<?xml version="1.0" encoding="UTF-8" standalone="no"?>
<?xml-stylesheet href="diagrams.css" type="text/css"?>
<!DOCTYPE svg PUBLIC "-//W3C//DTD SVG 1.1//EN"
 "http://www.w3.org/Graphics/SVG/1.1/DTD/svg11.dtd">
<!-- Generated by graphviz version 2.43.0 (0)
 -->
<!-- Title: Bank_deposit&#45;contract&#45;balance_v2_parsed_object Pages: 1 -->
<svg width="2046pt" height="1107pt"
 viewBox="72.00 72.00 1974.00 1035.00" xmlns="http://www.w3.org/2000/svg" xmlns:xlink="http://www.w3.org/1999/xlink">
<g id="graph0" class="graph" transform="scale(1 1) rotate(0) translate(76 1031)">
<title>Bank_deposit&#45;contract&#45;balance_v2_parsed_object</title>
<polygon fill="white" stroke="transparent" points="-4,4 -4,-959 1898,-959 1898,4 -4,4"/>
<text text-anchor="start" x="8" y="-18" font-family="Monospace" font-size="10.00" fill="dimgray">Cross&#45;referencing diagram for object Bank_deposit&#45;contract&#45;balance_v2_parsed</text>
<text text-anchor="start" x="8" y="-7" font-family="Monospace" font-size="10.00" fill="dimgray">Generated on 2024&#45;05&#45;06, 19:12</text>
<g id="clust1" class="cluster">
<title>cluster_Bank_deposit&#45;contract&#45;balance_v2_parsed_object</title>
<g id="a_clust1"><a xlink:title="GITHUB/SmartContractToGraph/Bank_deposit&#45;contract&#45;balance_v2_parsed.pl">
<path fill="snow" stroke="dimgray" d="M20,-38C20,-38 1874,-38 1874,-38 1880,-38 1886,-44 1886,-50 1886,-50 1886,-935 1886,-935 1886,-941 1880,-947 1874,-947 1874,-947 20,-947 20,-947 14,-947 8,-941 8,-935 8,-935 8,-50 8,-50 8,-44 14,-38 20,-38"/>
<text text-anchor="start" x="20.5" y="-930.5" font-family="Monospace" font-size="10.00" fill="dimgray">Bank_deposit&#45;contract&#45;balance_v2_parsed</text>
</a>
</g>
</g>
<!-- nondet_interface_1_bank_84_0/8 -->
<g id="node1" class="node">
<title>nondet_interface_1_bank_84_0/8</title>
<g id="a_node1"><a xlink:title="GITHUB/SmartContractToGraph/Bank_deposit&#45;contract&#45;balance_v2_parsed.pl">
<polygon fill="cornsilk" stroke="black" points="1706.5,-674 1475.5,-674 1475.5,-638 1706.5,-638 1706.5,-674"/>
<text text-anchor="start" x="1484" y="-658.8" font-family="Monospace" font-size="9.00"> </text>
<text text-anchor="start" x="1490" y="-658.2" font-family="Monospace" font-size="11.00">nondet_interface_1_bank_84_0/8</text>
<text text-anchor="start" x="1693" y="-658.8" font-family="Monospace" font-size="9.00"> </text>
<text text-anchor="start" x="1484" y="-647.8" font-family="Monospace" font-size="9.00"> </text>
<text text-anchor="start" x="1580" y="-648.4" font-family="Monospace" font-size="7.00">local</text>
<text text-anchor="start" x="1693" y="-647.8" font-family="Monospace" font-size="9.00"> </text>
</a>
</g>
</g>
<!-- summary_4_function_deposit__48_84_0/9 -->
<g id="node8" class="node">
<title>summary_4_function_deposit__48_84_0/9</title>
<g id="a_node8"><a xlink:title="GITHUB/SmartContractToGraph/Bank_deposit&#45;contract&#45;balance_v2_parsed.pl">
<polygon fill="cornsilk" stroke="black" points="1245,-556 967,-556 967,-520 1245,-520 1245,-556"/>
<text text-anchor="start" x="975" y="-540.8" font-family="Monospace" font-size="9.00"> </text>
<text text-anchor="start" x="981" y="-540.2" font-family="Monospace" font-size="11.00">summary_4_function_deposit__48_84_0/9</text>
<text text-anchor="start" x="1231" y="-540.8" font-family="Monospace" font-size="9.00"> </text>
<text text-anchor="start" x="975" y="-529.8" font-family="Monospace" font-size="9.00"> </text>
<text text-anchor="start" x="1094.5" y="-530.4" font-family="Monospace" font-size="7.00">local</text>
<text text-anchor="start" x="1231" y="-529.8" font-family="Monospace" font-size="9.00"> </text>
</a>
</g>
</g>
<!-- nondet_interface_1_bank_84_0/8&#45;&gt;summary_4_function_deposit__48_84_0/9 -->
<g id="edge1" class="edge">
<title>nondet_interface_1_bank_84_0/8&#45;&gt;summary_4_function_deposit__48_84_0/9</title>
<path fill="none" stroke="black" d="M1561.38,-637.86C1535.07,-623.41 1495.15,-603.32 1458,-592 1392.91,-572.16 1318.69,-559.58 1255.24,-551.69"/>
<polygon fill="black" stroke="black" points="1255.5,-548.19 1245.15,-550.46 1254.66,-555.14 1255.5,-548.19"/>
<g id="a_edge1&#45;label"><a xlink:title="calls">
<text text-anchor="middle" x="1497.5" y="-594.8" font-family="Monospace" font-size="9.00">calls</text>
</a>
</g>
</g>
<!-- summary_6_function_withdraw__83_84_0/11 -->
<g id="node16" class="node">
<title>summary_6_function_withdraw__83_84_0/11</title>
<g id="a_node16"><a xlink:title="GITHUB/SmartContractToGraph/Bank_deposit&#45;contract&#45;balance_v2_parsed.pl">
<polygon fill="cornsilk" stroke="black" points="1737,-556 1445,-556 1445,-520 1737,-520 1737,-556"/>
<text text-anchor="start" x="1453" y="-540.8" font-family="Monospace" font-size="9.00"> </text>
<text text-anchor="start" x="1459" y="-540.2" font-family="Monospace" font-size="11.00">summary_6_function_withdraw__83_84_0/11</text>
<text text-anchor="start" x="1723" y="-540.8" font-family="Monospace" font-size="9.00"> </text>
<text text-anchor="start" x="1453" y="-529.8" font-family="Monospace" font-size="9.00"> </text>
<text text-anchor="start" x="1579.5" y="-530.4" font-family="Monospace" font-size="7.00">local</text>
<text text-anchor="start" x="1723" y="-529.8" font-family="Monospace" font-size="9.00"> </text>
</a>
</g>
</g>
<!-- nondet_interface_1_bank_84_0/8&#45;&gt;summary_6_function_withdraw__83_84_0/11 -->
<g id="edge2" class="edge">
<title>nondet_interface_1_bank_84_0/8&#45;&gt;summary_6_function_withdraw__83_84_0/11</title>
<path fill="none" stroke="black" d="M1591,-637.88C1591,-619.04 1591,-588.47 1591,-566.3"/>
<polygon fill="black" stroke="black" points="1594.5,-566.19 1591,-556.19 1587.5,-566.19 1594.5,-566.19"/>
<g id="a_edge2&#45;label"><a xlink:title="calls">
<text text-anchor="middle" x="1604.5" y="-594.8" font-family="Monospace" font-size="9.00">calls</text>
</a>
</g>
</g>
<!-- block_7_function_deposit__48_84_0/11 -->
<g id="node2" class="node">
<title>block_7_function_deposit__48_84_0/11</title>
<g id="a_node2"><a xlink:title="GITHUB/SmartContractToGraph/Bank_deposit&#45;contract&#45;balance_v2_parsed.pl">
<polygon fill="cornsilk" stroke="black" points="1134,-84 862,-84 862,-48 1134,-48 1134,-84"/>
<text text-anchor="start" x="870" y="-68.8" font-family="Monospace" font-size="9.00"> </text>
<text text-anchor="start" x="876" y="-68.2" font-family="Monospace" font-size="11.00">block_7_function_deposit__48_84_0/11</text>
<text text-anchor="start" x="1120" y="-68.8" font-family="Monospace" font-size="9.00"> </text>
<text text-anchor="start" x="870" y="-57.8" font-family="Monospace" font-size="9.00"> </text>
<text text-anchor="start" x="986.5" y="-58.4" font-family="Monospace" font-size="7.00">local</text>
<text text-anchor="start" x="1120" y="-57.8" font-family="Monospace" font-size="9.00"> </text>
</a>
</g>
</g>
<!-- block_8_deposit_47_84_0/11 -->
<g id="node3" class="node">
<title>block_8_deposit_47_84_0/11</title>
<g id="a_node3"><a xlink:title="GITHUB/SmartContractToGraph/Bank_deposit&#45;contract&#45;balance_v2_parsed.pl">
<polygon fill="cornsilk" stroke="black" points="1100,-202 896,-202 896,-166 1100,-166 1100,-202"/>
<text text-anchor="start" x="904" y="-186.8" font-family="Monospace" font-size="9.00"> </text>
<text text-anchor="start" x="910" y="-186.2" font-family="Monospace" font-size="11.00">block_8_deposit_47_84_0/11</text>
<text text-anchor="start" x="1086" y="-186.8" font-family="Monospace" font-size="9.00"> </text>
<text text-anchor="start" x="904" y="-175.8" font-family="Monospace" font-size="9.00"> </text>
<text text-anchor="start" x="986.5" y="-176.4" font-family="Monospace" font-size="7.00">local</text>
<text text-anchor="start" x="1086" y="-175.8" font-family="Monospace" font-size="9.00"> </text>
</a>
</g>
</g>
<!-- block_8_deposit_47_84_0/11&#45;&gt;block_7_function_deposit__48_84_0/11 -->
<g id="edge3" class="edge">
<title>block_8_deposit_47_84_0/11&#45;&gt;block_7_function_deposit__48_84_0/11</title>
<path fill="none" stroke="black" d="M998,-165.88C998,-147.04 998,-116.47 998,-94.3"/>
<polygon fill="black" stroke="black" points="1001.5,-94.19 998,-84.19 994.5,-94.19 1001.5,-94.19"/>
<g id="a_edge3&#45;label"><a xlink:title="calls">
<text text-anchor="middle" x="1011.5" y="-122.8" font-family="Monospace" font-size="9.00">calls</text>
</a>
</g>
</g>
<!-- block_10_function_deposit__48_84_0/11 -->
<g id="node4" class="node">
<title>block_10_function_deposit__48_84_0/11</title>
<g id="a_node4"><a xlink:title="GITHUB/SmartContractToGraph/Bank_deposit&#45;contract&#45;balance_v2_parsed.pl">
<polygon fill="cornsilk" stroke="black" points="1316,-320 1038,-320 1038,-284 1316,-284 1316,-320"/>
<text text-anchor="start" x="1046" y="-304.8" font-family="Monospace" font-size="9.00"> </text>
<text text-anchor="start" x="1052" y="-304.2" font-family="Monospace" font-size="11.00">block_10_function_deposit__48_84_0/11</text>
<text text-anchor="start" x="1302" y="-304.8" font-family="Monospace" font-size="9.00"> </text>
<text text-anchor="start" x="1046" y="-293.8" font-family="Monospace" font-size="9.00"> </text>
<text text-anchor="start" x="1165.5" y="-294.4" font-family="Monospace" font-size="7.00">local</text>
<text text-anchor="start" x="1302" y="-293.8" font-family="Monospace" font-size="9.00"> </text>
</a>
</g>
</g>
<!-- block_10_function_deposit__48_84_0/11&#45;&gt;block_8_deposit_47_84_0/11 -->
<g id="edge4" class="edge">
<title>block_10_function_deposit__48_84_0/11&#45;&gt;block_8_deposit_47_84_0/11</title>
<path fill="none" stroke="black" d="M1150.59,-283.88C1119.52,-263.75 1067.82,-230.25 1033.33,-207.89"/>
<polygon fill="black" stroke="black" points="1034.82,-204.69 1024.52,-202.19 1031.01,-210.56 1034.82,-204.69"/>
<g id="a_edge4&#45;label"><a xlink:title="calls">
<text text-anchor="middle" x="1105.5" y="-240.8" font-family="Monospace" font-size="9.00">calls</text>
</a>
</g>
</g>
<!-- summary_3_function_deposit__48_84_0/9 -->
<g id="node5" class="node">
<title>summary_3_function_deposit__48_84_0/9</title>
<g id="a_node5"><a xlink:title="GITHUB/SmartContractToGraph/Bank_deposit&#45;contract&#45;balance_v2_parsed.pl">
<polygon fill="cornsilk" stroke="black" points="1199,-438 921,-438 921,-402 1199,-402 1199,-438"/>
<text text-anchor="start" x="929" y="-422.8" font-family="Monospace" font-size="9.00"> </text>
<text text-anchor="start" x="935" y="-422.2" font-family="Monospace" font-size="11.00">summary_3_function_deposit__48_84_0/9</text>
<text text-anchor="start" x="1185" y="-422.8" font-family="Monospace" font-size="9.00"> </text>
<text text-anchor="start" x="929" y="-411.8" font-family="Monospace" font-size="9.00"> </text>
<text text-anchor="start" x="1048.5" y="-412.4" font-family="Monospace" font-size="7.00">local</text>
<text text-anchor="start" x="1185" y="-411.8" font-family="Monospace" font-size="9.00"> </text>
</a>
</g>
</g>
<!-- summary_3_function_deposit__48_84_0/9&#45;&gt;block_10_function_deposit__48_84_0/11 -->
<g id="edge5" class="edge">
<title>summary_3_function_deposit__48_84_0/9&#45;&gt;block_10_function_deposit__48_84_0/11</title>
<path fill="none" stroke="black" d="M1077.26,-401.88C1097.14,-382.18 1129.93,-349.67 1152.45,-327.34"/>
<polygon fill="black" stroke="black" points="1155.03,-329.71 1159.67,-320.19 1150.1,-324.74 1155.03,-329.71"/>
<g id="a_edge5&#45;label"><a xlink:title="calls">
<text text-anchor="middle" x="1135.5" y="-358.8" font-family="Monospace" font-size="9.00">calls</text>
</a>
</g>
</g>
<!-- block_9_return_function_deposit__48_84_0/11 -->
<g id="node6" class="node">
<title>block_9_return_function_deposit__48_84_0/11</title>
<g id="a_node6"><a xlink:title="GITHUB/SmartContractToGraph/Bank_deposit&#45;contract&#45;balance_v2_parsed.pl">
<polygon fill="cornsilk" stroke="black" points="1019.5,-320 700.5,-320 700.5,-284 1019.5,-284 1019.5,-320"/>
<text text-anchor="start" x="709" y="-304.8" font-family="Monospace" font-size="9.00"> </text>
<text text-anchor="start" x="715" y="-304.2" font-family="Monospace" font-size="11.00">block_9_return_function_deposit__48_84_0/11</text>
<text text-anchor="start" x="1006" y="-304.8" font-family="Monospace" font-size="9.00"> </text>
<text text-anchor="start" x="709" y="-293.8" font-family="Monospace" font-size="9.00"> </text>
<text text-anchor="start" x="849" y="-294.4" font-family="Monospace" font-size="7.00">local</text>
<text text-anchor="start" x="1006" y="-293.8" font-family="Monospace" font-size="9.00"> </text>
</a>
</g>
</g>
<!-- summary_3_function_deposit__48_84_0/9&#45;&gt;block_9_return_function_deposit__48_84_0/11 -->
<g id="edge7" class="edge">
<title>summary_3_function_deposit__48_84_0/9&#45;&gt;block_9_return_function_deposit__48_84_0/11</title>
<path fill="none" stroke="black" d="M1030.49,-401.88C995.48,-381.58 937.03,-347.68 898.49,-325.33"/>
<polygon fill="black" stroke="black" points="900.04,-322.18 889.63,-320.19 896.53,-328.23 900.04,-322.18"/>
<g id="a_edge7&#45;label"><a xlink:title="calls">
<text text-anchor="middle" x="978.5" y="-358.8" font-family="Monospace" font-size="9.00">calls</text>
</a>
</g>
</g>
<!-- block_9_return_function_deposit__48_84_0/11&#45;&gt;block_8_deposit_47_84_0/11 -->
<g id="edge6" class="edge">
<title>block_9_return_function_deposit__48_84_0/11&#45;&gt;block_8_deposit_47_84_0/11</title>
<path fill="none" stroke="black" d="M880.36,-283.88C904.01,-264.01 943.16,-231.1 969.74,-208.76"/>
<polygon fill="black" stroke="black" points="972.15,-211.3 977.55,-202.19 967.65,-205.94 972.15,-211.3"/>
<g id="a_edge6&#45;label"><a xlink:title="calls">
<text text-anchor="middle" x="946.5" y="-240.8" font-family="Monospace" font-size="9.00">calls</text>
</a>
</g>
</g>
<!-- block_11_function_deposit__48_84_0/11 -->
<g id="node7" class="node">
<title>block_11_function_deposit__48_84_0/11</title>
<g id="a_node7"><a xlink:title="GITHUB/SmartContractToGraph/Bank_deposit&#45;contract&#45;balance_v2_parsed.pl">
<polygon fill="cornsilk" stroke="black" points="903,-438 625,-438 625,-402 903,-402 903,-438"/>
<text text-anchor="start" x="633" y="-422.8" font-family="Monospace" font-size="9.00"> </text>
<text text-anchor="start" x="639" y="-422.2" font-family="Monospace" font-size="11.00">block_11_function_deposit__48_84_0/11</text>
<text text-anchor="start" x="889" y="-422.8" font-family="Monospace" font-size="9.00"> </text>
<text text-anchor="start" x="633" y="-411.8" font-family="Monospace" font-size="9.00"> </text>
<text text-anchor="start" x="752.5" y="-412.4" font-family="Monospace" font-size="7.00">local</text>
<text text-anchor="start" x="889" y="-411.8" font-family="Monospace" font-size="9.00"> </text>
</a>
</g>
</g>
<!-- summary_4_function_deposit__48_84_0/9&#45;&gt;summary_3_function_deposit__48_84_0/9 -->
<g id="edge9" class="edge">
<title>summary_4_function_deposit__48_84_0/9&#45;&gt;summary_3_function_deposit__48_84_0/9</title>
<path fill="none" stroke="black" d="M1099.21,-519.88C1091.67,-500.86 1079.4,-469.91 1070.59,-447.7"/>
<polygon fill="black" stroke="black" points="1073.76,-446.19 1066.82,-438.19 1067.25,-448.77 1073.76,-446.19"/>
<g id="a_edge9&#45;label"><a xlink:title="calls">
<text text-anchor="middle" x="1097.5" y="-476.8" font-family="Monospace" font-size="9.00">calls</text>
</a>
</g>
</g>
<!-- summary_4_function_deposit__48_84_0/9&#45;&gt;block_11_function_deposit__48_84_0/11 -->
<g id="edge8" class="edge">
<title>summary_4_function_deposit__48_84_0/9&#45;&gt;block_11_function_deposit__48_84_0/11</title>
<path fill="none" stroke="black" d="M1055.54,-519.88C993.94,-498.99 889.9,-463.7 824.2,-441.42"/>
<polygon fill="black" stroke="black" points="824.99,-437.99 814.39,-438.09 822.74,-444.62 824.99,-437.99"/>
<g id="a_edge8&#45;label"><a xlink:title="calls">
<text text-anchor="middle" x="958.5" y="-476.8" font-family="Monospace" font-size="9.00">calls</text>
</a>
</g>
</g>
<!-- interface_0_bank_84_0/5 -->
<g id="node9" class="node">
<title>interface_0_bank_84_0/5</title>
<g id="a_node9"><a xlink:title="GITHUB/SmartContractToGraph/Bank_deposit&#45;contract&#45;balance_v2_parsed.pl">
<polygon fill="cornsilk" stroke="black" points="1335,-674 1151,-674 1151,-638 1335,-638 1335,-674"/>
<text text-anchor="start" x="1159" y="-658.8" font-family="Monospace" font-size="9.00"> </text>
<text text-anchor="start" x="1165" y="-658.2" font-family="Monospace" font-size="11.00">interface_0_bank_84_0/5</text>
<text text-anchor="start" x="1321" y="-658.8" font-family="Monospace" font-size="9.00"> </text>
<text text-anchor="start" x="1159" y="-647.8" font-family="Monospace" font-size="9.00"> </text>
<text text-anchor="start" x="1231.5" y="-648.4" font-family="Monospace" font-size="7.00">local</text>
<text text-anchor="start" x="1321" y="-647.8" font-family="Monospace" font-size="9.00"> </text>
</a>
</g>
</g>
<!-- interface_0_bank_84_0/5&#45;&gt;summary_4_function_deposit__48_84_0/9 -->
<g id="edge10" class="edge">
<title>interface_0_bank_84_0/5&#45;&gt;summary_4_function_deposit__48_84_0/9</title>
<path fill="none" stroke="black" d="M1226.16,-637.83C1213.13,-624.82 1194.42,-606.72 1177,-592 1164.88,-581.75 1150.99,-571.16 1138.73,-562.16"/>
<polygon fill="black" stroke="black" points="1140.7,-559.26 1130.55,-556.2 1136.58,-564.92 1140.7,-559.26"/>
<g id="a_edge10&#45;label"><a xlink:title="calls">
<text text-anchor="middle" x="1201.5" y="-594.8" font-family="Monospace" font-size="9.00">calls</text>
</a>
</g>
</g>
<!-- interface_0_bank_84_0/5&#45;&gt;summary_6_function_withdraw__83_84_0/11 -->
<g id="edge20" class="edge">
<title>interface_0_bank_84_0/5&#45;&gt;summary_6_function_withdraw__83_84_0/11</title>
<path fill="none" stroke="black" d="M1294.35,-637.88C1357.15,-616.95 1463.32,-581.56 1530.16,-559.28"/>
<polygon fill="black" stroke="black" points="1531.34,-562.57 1539.72,-556.09 1529.13,-555.93 1531.34,-562.57"/>
<g id="a_edge20&#45;label"><a xlink:title="calls">
<text text-anchor="middle" x="1440.5" y="-594.8" font-family="Monospace" font-size="9.00">calls</text>
</a>
</g>
</g>
<!-- summary_constructor_2_bank_84_0/9 -->
<g id="node21" class="node">
<title>summary_constructor_2_bank_84_0/9</title>
<g id="a_node21"><a xlink:title="GITHUB/SmartContractToGraph/Bank_deposit&#45;contract&#45;balance_v2_parsed.pl">
<polygon fill="cornsilk" stroke="black" points="599.5,-556 348.5,-556 348.5,-520 599.5,-520 599.5,-556"/>
<text text-anchor="start" x="357" y="-540.8" font-family="Monospace" font-size="9.00"> </text>
<text text-anchor="start" x="363" y="-540.2" font-family="Monospace" font-size="11.00">summary_constructor_2_bank_84_0/9</text>
<text text-anchor="start" x="586" y="-540.8" font-family="Monospace" font-size="9.00"> </text>
<text text-anchor="start" x="357" y="-529.8" font-family="Monospace" font-size="9.00"> </text>
<text text-anchor="start" x="463" y="-530.4" font-family="Monospace" font-size="7.00">local</text>
<text text-anchor="start" x="586" y="-529.8" font-family="Monospace" font-size="9.00"> </text>
</a>
</g>
</g>
<!-- interface_0_bank_84_0/5&#45;&gt;summary_constructor_2_bank_84_0/9 -->
<g id="edge25" class="edge">
<title>interface_0_bank_84_0/5&#45;&gt;summary_constructor_2_bank_84_0/9</title>
<path fill="none" stroke="black" d="M1150.8,-640.15C1146.13,-639.42 1141.51,-638.7 1137,-638 950.51,-609.12 734.27,-577.11 600.79,-557.52"/>
<polygon fill="black" stroke="black" points="600.93,-554 590.53,-556.01 599.92,-560.93 600.93,-554"/>
<g id="a_edge25&#45;label"><a xlink:title="calls">
<text text-anchor="middle" x="913.5" y="-594.8" font-family="Monospace" font-size="9.00">calls</text>
</a>
</g>
</g>
<!-- block_12_function_withdraw__83_84_0/12 -->
<g id="node10" class="node">
<title>block_12_function_withdraw__83_84_0/12</title>
<g id="a_node10"><a xlink:title="GITHUB/SmartContractToGraph/Bank_deposit&#45;contract&#45;balance_v2_parsed.pl">
<polygon fill="cornsilk" stroke="black" points="1578.5,-84 1293.5,-84 1293.5,-48 1578.5,-48 1578.5,-84"/>
<text text-anchor="start" x="1302" y="-68.8" font-family="Monospace" font-size="9.00"> </text>
<text text-anchor="start" x="1308" y="-68.2" font-family="Monospace" font-size="11.00">block_12_function_withdraw__83_84_0/12</text>
<text text-anchor="start" x="1565" y="-68.8" font-family="Monospace" font-size="9.00"> </text>
<text text-anchor="start" x="1302" y="-57.8" font-family="Monospace" font-size="9.00"> </text>
<text text-anchor="start" x="1425" y="-58.4" font-family="Monospace" font-size="7.00">local</text>
<text text-anchor="start" x="1565" y="-57.8" font-family="Monospace" font-size="9.00"> </text>
</a>
</g>
</g>
<!-- block_13_withdraw_82_84_0/12 -->
<g id="node11" class="node">
<title>block_13_withdraw_82_84_0/12</title>
<g id="a_node11"><a xlink:title="GITHUB/SmartContractToGraph/Bank_deposit&#45;contract&#45;balance_v2_parsed.pl">
<polygon fill="cornsilk" stroke="black" points="1545,-202 1327,-202 1327,-166 1545,-166 1545,-202"/>
<text text-anchor="start" x="1335" y="-186.8" font-family="Monospace" font-size="9.00"> </text>
<text text-anchor="start" x="1341" y="-186.2" font-family="Monospace" font-size="11.00">block_13_withdraw_82_84_0/12</text>
<text text-anchor="start" x="1531" y="-186.8" font-family="Monospace" font-size="9.00"> </text>
<text text-anchor="start" x="1335" y="-175.8" font-family="Monospace" font-size="9.00"> </text>
<text text-anchor="start" x="1424.5" y="-176.4" font-family="Monospace" font-size="7.00">local</text>
<text text-anchor="start" x="1531" y="-175.8" font-family="Monospace" font-size="9.00"> </text>
</a>
</g>
</g>
<!-- block_13_withdraw_82_84_0/12&#45;&gt;block_12_function_withdraw__83_84_0/12 -->
<g id="edge11" class="edge">
<title>block_13_withdraw_82_84_0/12&#45;&gt;block_12_function_withdraw__83_84_0/12</title>
<path fill="none" stroke="black" d="M1436,-165.88C1436,-147.04 1436,-116.47 1436,-94.3"/>
<polygon fill="black" stroke="black" points="1439.5,-94.19 1436,-84.19 1432.5,-94.19 1439.5,-94.19"/>
<g id="a_edge11&#45;label"><a xlink:title="calls">
<text text-anchor="middle" x="1449.5" y="-122.8" font-family="Monospace" font-size="9.00">calls</text>
</a>
</g>
</g>
<!-- nondet_call_15_0/8 -->
<g id="node12" class="node">
<title>nondet_call_15_0/8</title>
<g id="a_node12"><a xlink:title="GITHUB/SmartContractToGraph/Bank_deposit&#45;contract&#45;balance_v2_parsed.pl">
<polygon fill="cornsilk" stroke="black" points="1876,-202 1726,-202 1726,-166 1876,-166 1876,-202"/>
<text text-anchor="start" x="1734" y="-186.8" font-family="Monospace" font-size="9.00"> </text>
<text text-anchor="start" x="1740" y="-186.2" font-family="Monospace" font-size="11.00">nondet_call_15_0/8</text>
<text text-anchor="start" x="1862" y="-186.8" font-family="Monospace" font-size="9.00"> </text>
<text text-anchor="start" x="1734" y="-175.8" font-family="Monospace" font-size="9.00"> </text>
<text text-anchor="start" x="1789.5" y="-176.4" font-family="Monospace" font-size="7.00">local</text>
<text text-anchor="start" x="1862" y="-175.8" font-family="Monospace" font-size="9.00"> </text>
</a>
</g>
</g>
<!-- nondet_call_15_0/8&#45;&gt;nondet_interface_1_bank_84_0/8 -->
<g id="edge12" class="edge">
<title>nondet_call_15_0/8&#45;&gt;nondet_interface_1_bank_84_0/8</title>
<path fill="none" stroke="black" d="M1806.57,-202C1819.25,-243.37 1847.25,-352.17 1822,-438 1804.4,-497.85 1790.19,-511.97 1746,-556 1713.54,-588.34 1668.76,-615.53 1635.68,-633.19"/>
<polygon fill="black" stroke="black" points="1633.91,-630.16 1626.68,-637.91 1637.16,-636.36 1633.91,-630.16"/>
<g id="a_edge12&#45;label"><a xlink:title="calls">
<text text-anchor="middle" x="1842.5" y="-417.8" font-family="Monospace" font-size="9.00">calls</text>
</a>
</g>
</g>
<!-- summary_5_function_withdraw__83_84_0/11 -->
<g id="node13" class="node">
<title>summary_5_function_withdraw__83_84_0/11</title>
<g id="a_node13"><a xlink:title="GITHUB/SmartContractToGraph/Bank_deposit&#45;contract&#45;balance_v2_parsed.pl">
<polygon fill="cornsilk" stroke="black" points="1813,-438 1521,-438 1521,-402 1813,-402 1813,-438"/>
<text text-anchor="start" x="1529" y="-422.8" font-family="Monospace" font-size="9.00"> </text>
<text text-anchor="start" x="1535" y="-422.2" font-family="Monospace" font-size="11.00">summary_5_function_withdraw__83_84_0/11</text>
<text text-anchor="start" x="1799" y="-422.8" font-family="Monospace" font-size="9.00"> </text>
<text text-anchor="start" x="1529" y="-411.8" font-family="Monospace" font-size="9.00"> </text>
<text text-anchor="start" x="1655.5" y="-412.4" font-family="Monospace" font-size="7.00">local</text>
<text text-anchor="start" x="1799" y="-411.8" font-family="Monospace" font-size="9.00"> </text>
</a>
</g>
</g>
<!-- summary_5_function_withdraw__83_84_0/11&#45;&gt;block_13_withdraw_82_84_0/12 -->
<g id="edge13" class="edge">
<title>summary_5_function_withdraw__83_84_0/11&#45;&gt;block_13_withdraw_82_84_0/12</title>
<path fill="none" stroke="black" d="M1532.2,-401.97C1481.86,-388.33 1429.55,-363.85 1399,-320 1375.84,-286.75 1398.55,-239.54 1417.2,-210.66"/>
<polygon fill="black" stroke="black" points="1420.13,-212.57 1422.8,-202.32 1414.32,-208.67 1420.13,-212.57"/>
<g id="a_edge13&#45;label"><a xlink:title="calls">
<text text-anchor="middle" x="1412.5" y="-299.8" font-family="Monospace" font-size="9.00">calls</text>
</a>
</g>
</g>
<!-- summary_5_function_withdraw__83_84_0/11&#45;&gt;nondet_call_15_0/8 -->
<g id="edge14" class="edge">
<title>summary_5_function_withdraw__83_84_0/11&#45;&gt;nondet_call_15_0/8</title>
<path fill="none" stroke="black" d="M1694.53,-401.76C1719.9,-384.35 1756.47,-355.06 1776,-320 1794.82,-286.21 1799.83,-241.02 1800.97,-212.45"/>
<polygon fill="black" stroke="black" points="1804.47,-212.47 1801.24,-202.38 1797.47,-212.28 1804.47,-212.47"/>
<g id="a_edge14&#45;label"><a xlink:title="calls">
<text text-anchor="middle" x="1803.5" y="-299.8" font-family="Monospace" font-size="9.00">calls</text>
</a>
</g>
</g>
<!-- block_14_return_function_withdraw__83_84_0/12 -->
<g id="node14" class="node">
<title>block_14_return_function_withdraw__83_84_0/12</title>
<g id="a_node14"><a xlink:title="GITHUB/SmartContractToGraph/Bank_deposit&#45;contract&#45;balance_v2_parsed.pl">
<polygon fill="cornsilk" stroke="black" points="1767,-320 1435,-320 1435,-284 1767,-284 1767,-320"/>
<text text-anchor="start" x="1443" y="-304.8" font-family="Monospace" font-size="9.00"> </text>
<text text-anchor="start" x="1449" y="-304.2" font-family="Monospace" font-size="11.00">block_14_return_function_withdraw__83_84_0/12</text>
<text text-anchor="start" x="1753" y="-304.8" font-family="Monospace" font-size="9.00"> </text>
<text text-anchor="start" x="1443" y="-293.8" font-family="Monospace" font-size="9.00"> </text>
<text text-anchor="start" x="1589.5" y="-294.4" font-family="Monospace" font-size="7.00">local</text>
<text text-anchor="start" x="1753" y="-293.8" font-family="Monospace" font-size="9.00"> </text>
</a>
</g>
</g>
<!-- summary_5_function_withdraw__83_84_0/11&#45;&gt;block_14_return_function_withdraw__83_84_0/12 -->
<g id="edge17" class="edge">
<title>summary_5_function_withdraw__83_84_0/11&#45;&gt;block_14_return_function_withdraw__83_84_0/12</title>
<path fill="none" stroke="black" d="M1657.26,-401.88C1646.34,-382.69 1628.51,-351.35 1615.85,-329.1"/>
<polygon fill="black" stroke="black" points="1618.77,-327.15 1610.78,-320.19 1612.68,-330.61 1618.77,-327.15"/>
<g id="a_edge17&#45;label"><a xlink:title="calls">
<text text-anchor="middle" x="1648.5" y="-358.8" font-family="Monospace" font-size="9.00">calls</text>
</a>
</g>
</g>
<!-- block_14_return_function_withdraw__83_84_0/12&#45;&gt;block_13_withdraw_82_84_0/12 -->
<g id="edge15" class="edge">
<title>block_14_return_function_withdraw__83_84_0/12&#45;&gt;block_13_withdraw_82_84_0/12</title>
<path fill="none" stroke="black" d="M1576.65,-283.88C1548.14,-263.84 1500.76,-230.53 1468.97,-208.18"/>
<polygon fill="black" stroke="black" points="1470.64,-205.07 1460.45,-202.19 1466.61,-210.8 1470.64,-205.07"/>
<g id="a_edge15&#45;label"><a xlink:title="calls">
<text text-anchor="middle" x="1536.5" y="-240.8" font-family="Monospace" font-size="9.00">calls</text>
</a>
</g>
</g>
<!-- block_14_return_function_withdraw__83_84_0/12&#45;&gt;nondet_call_15_0/8 -->
<g id="edge16" class="edge">
<title>block_14_return_function_withdraw__83_84_0/12&#45;&gt;nondet_call_15_0/8</title>
<path fill="none" stroke="black" d="M1630.51,-283.88C1665.52,-263.58 1723.97,-229.68 1762.51,-207.33"/>
<polygon fill="black" stroke="black" points="1764.47,-210.23 1771.37,-202.19 1760.96,-204.18 1764.47,-210.23"/>
<g id="a_edge16&#45;label"><a xlink:title="calls">
<text text-anchor="middle" x="1719.5" y="-240.8" font-family="Monospace" font-size="9.00">calls</text>
</a>
</g>
</g>
<!-- block_16_function_withdraw__83_84_0/12 -->
<g id="node15" class="node">
<title>block_16_function_withdraw__83_84_0/12</title>
<g id="a_node15"><a xlink:title="GITHUB/SmartContractToGraph/Bank_deposit&#45;contract&#45;balance_v2_parsed.pl">
<polygon fill="cornsilk" stroke="black" points="1502.5,-438 1217.5,-438 1217.5,-402 1502.5,-402 1502.5,-438"/>
<text text-anchor="start" x="1226" y="-422.8" font-family="Monospace" font-size="9.00"> </text>
<text text-anchor="start" x="1232" y="-422.2" font-family="Monospace" font-size="11.00">block_16_function_withdraw__83_84_0/12</text>
<text text-anchor="start" x="1489" y="-422.8" font-family="Monospace" font-size="9.00"> </text>
<text text-anchor="start" x="1226" y="-411.8" font-family="Monospace" font-size="9.00"> </text>
<text text-anchor="start" x="1349" y="-412.4" font-family="Monospace" font-size="7.00">local</text>
<text text-anchor="start" x="1489" y="-411.8" font-family="Monospace" font-size="9.00"> </text>
</a>
</g>
</g>
<!-- summary_6_function_withdraw__83_84_0/11&#45;&gt;summary_5_function_withdraw__83_84_0/11 -->
<g id="edge19" class="edge">
<title>summary_6_function_withdraw__83_84_0/11&#45;&gt;summary_5_function_withdraw__83_84_0/11</title>
<path fill="none" stroke="black" d="M1602.21,-519.88C1614.84,-500.61 1635.5,-469.07 1650.09,-446.81"/>
<polygon fill="black" stroke="black" points="1653.19,-448.47 1655.74,-438.19 1647.33,-444.63 1653.19,-448.47"/>
<g id="a_edge19&#45;label"><a xlink:title="calls">
<text text-anchor="middle" x="1644.5" y="-476.8" font-family="Monospace" font-size="9.00">calls</text>
</a>
</g>
</g>
<!-- summary_6_function_withdraw__83_84_0/11&#45;&gt;block_16_function_withdraw__83_84_0/12 -->
<g id="edge18" class="edge">
<title>summary_6_function_withdraw__83_84_0/11&#45;&gt;block_16_function_withdraw__83_84_0/12</title>
<path fill="none" stroke="black" d="M1556.92,-519.88C1516.14,-499.41 1447.82,-465.1 1403.34,-442.76"/>
<polygon fill="black" stroke="black" points="1404.73,-439.55 1394.22,-438.19 1401.59,-445.8 1404.73,-439.55"/>
<g id="a_edge18&#45;label"><a xlink:title="calls">
<text text-anchor="middle" x="1495.5" y="-476.8" font-family="Monospace" font-size="9.00">calls</text>
</a>
</g>
</g>
<!-- contract_initializer_entry_18_bank_84_0/9 -->
<g id="node17" class="node">
<title>contract_initializer_entry_18_bank_84_0/9</title>
<g id="a_node17"><a xlink:title="GITHUB/SmartContractToGraph/Bank_deposit&#45;contract&#45;balance_v2_parsed.pl">
<polygon fill="cornsilk" stroke="black" points="626.5,-202 321.5,-202 321.5,-166 626.5,-166 626.5,-202"/>
<text text-anchor="start" x="330" y="-186.8" font-family="Monospace" font-size="9.00"> </text>
<text text-anchor="start" x="336" y="-186.2" font-family="Monospace" font-size="11.00">contract_initializer_entry_18_bank_84_0/9</text>
<text text-anchor="start" x="613" y="-186.8" font-family="Monospace" font-size="9.00"> </text>
<text text-anchor="start" x="330" y="-175.8" font-family="Monospace" font-size="9.00"> </text>
<text text-anchor="start" x="463" y="-176.4" font-family="Monospace" font-size="7.00">local</text>
<text text-anchor="start" x="613" y="-175.8" font-family="Monospace" font-size="9.00"> </text>
</a>
</g>
</g>
<!-- contract_initializer_after_init_19_bank_84_0/9 -->
<g id="node18" class="node">
<title>contract_initializer_after_init_19_bank_84_0/9</title>
<g id="a_node18"><a xlink:title="GITHUB/SmartContractToGraph/Bank_deposit&#45;contract&#45;balance_v2_parsed.pl">
<polygon fill="cornsilk" stroke="black" points="643.5,-320 304.5,-320 304.5,-284 643.5,-284 643.5,-320"/>
<text text-anchor="start" x="313" y="-304.8" font-family="Monospace" font-size="9.00"> </text>
<text text-anchor="start" x="319" y="-304.2" font-family="Monospace" font-size="11.00">contract_initializer_after_init_19_bank_84_0/9</text>
<text text-anchor="start" x="630" y="-304.8" font-family="Monospace" font-size="9.00"> </text>
<text text-anchor="start" x="313" y="-293.8" font-family="Monospace" font-size="9.00"> </text>
<text text-anchor="start" x="463" y="-294.4" font-family="Monospace" font-size="7.00">local</text>
<text text-anchor="start" x="630" y="-293.8" font-family="Monospace" font-size="9.00"> </text>
</a>
</g>
</g>
<!-- contract_initializer_after_init_19_bank_84_0/9&#45;&gt;contract_initializer_entry_18_bank_84_0/9 -->
<g id="edge21" class="edge">
<title>contract_initializer_after_init_19_bank_84_0/9&#45;&gt;contract_initializer_entry_18_bank_84_0/9</title>
<path fill="none" stroke="black" d="M474,-283.88C474,-265.04 474,-234.47 474,-212.3"/>
<polygon fill="black" stroke="black" points="477.5,-212.19 474,-202.19 470.5,-212.19 477.5,-212.19"/>
<g id="a_edge21&#45;label"><a xlink:title="calls">
<text text-anchor="middle" x="487.5" y="-240.8" font-family="Monospace" font-size="9.00">calls</text>
</a>
</g>
</g>
<!-- contract_initializer_17_bank_84_0/9 -->
<g id="node19" class="node">
<title>contract_initializer_17_bank_84_0/9</title>
<g id="a_node19"><a xlink:title="GITHUB/SmartContractToGraph/Bank_deposit&#45;contract&#45;balance_v2_parsed.pl">
<polygon fill="cornsilk" stroke="black" points="606.5,-438 341.5,-438 341.5,-402 606.5,-402 606.5,-438"/>
<text text-anchor="start" x="350" y="-422.8" font-family="Monospace" font-size="9.00"> </text>
<text text-anchor="start" x="356" y="-422.2" font-family="Monospace" font-size="11.00">contract_initializer_17_bank_84_0/9</text>
<text text-anchor="start" x="593" y="-422.8" font-family="Monospace" font-size="9.00"> </text>
<text text-anchor="start" x="350" y="-411.8" font-family="Monospace" font-size="9.00"> </text>
<text text-anchor="start" x="463" y="-412.4" font-family="Monospace" font-size="7.00">local</text>
<text text-anchor="start" x="593" y="-411.8" font-family="Monospace" font-size="9.00"> </text>
</a>
</g>
</g>
<!-- contract_initializer_17_bank_84_0/9&#45;&gt;contract_initializer_after_init_19_bank_84_0/9 -->
<g id="edge22" class="edge">
<title>contract_initializer_17_bank_84_0/9&#45;&gt;contract_initializer_after_init_19_bank_84_0/9</title>
<path fill="none" stroke="black" d="M474,-401.88C474,-383.04 474,-352.47 474,-330.3"/>
<polygon fill="black" stroke="black" points="477.5,-330.19 474,-320.19 470.5,-330.19 477.5,-330.19"/>
<g id="a_edge22&#45;label"><a xlink:title="calls">
<text text-anchor="middle" x="487.5" y="-358.8" font-family="Monospace" font-size="9.00">calls</text>
</a>
</g>
</g>
<!-- implicit_constructor_entry_20_bank_84_0/9 -->
<g id="node20" class="node">
<title>implicit_constructor_entry_20_bank_84_0/9</title>
<g id="a_node20"><a xlink:title="GITHUB/SmartContractToGraph/Bank_deposit&#45;contract&#45;balance_v2_parsed.pl">
<polygon fill="cornsilk" stroke="black" points="323.5,-438 18.5,-438 18.5,-402 323.5,-402 323.5,-438"/>
<text text-anchor="start" x="27" y="-422.8" font-family="Monospace" font-size="9.00"> </text>
<text text-anchor="start" x="33" y="-422.2" font-family="Monospace" font-size="11.00">implicit_constructor_entry_20_bank_84_0/9</text>
<text text-anchor="start" x="310" y="-422.8" font-family="Monospace" font-size="9.00"> </text>
<text text-anchor="start" x="27" y="-411.8" font-family="Monospace" font-size="9.00"> </text>
<text text-anchor="start" x="160" y="-412.4" font-family="Monospace" font-size="7.00">local</text>
<text text-anchor="start" x="310" y="-411.8" font-family="Monospace" font-size="9.00"> </text>
</a>
</g>
</g>
<!-- summary_constructor_2_bank_84_0/9&#45;&gt;contract_initializer_17_bank_84_0/9 -->
<g id="edge24" class="edge">
<title>summary_constructor_2_bank_84_0/9&#45;&gt;contract_initializer_17_bank_84_0/9</title>
<path fill="none" stroke="black" d="M474,-519.88C474,-501.04 474,-470.47 474,-448.3"/>
<polygon fill="black" stroke="black" points="477.5,-448.19 474,-438.19 470.5,-448.19 477.5,-448.19"/>
<g id="a_edge24&#45;label"><a xlink:title="calls">
<text text-anchor="middle" x="487.5" y="-476.8" font-family="Monospace" font-size="9.00">calls</text>
</a>
</g>
</g>
<!-- summary_constructor_2_bank_84_0/9&#45;&gt;implicit_constructor_entry_20_bank_84_0/9 -->
<g id="edge23" class="edge">
<title>summary_constructor_2_bank_84_0/9&#45;&gt;implicit_constructor_entry_20_bank_84_0/9</title>
<path fill="none" stroke="black" d="M429.29,-519.88C375.03,-499.11 283.57,-464.09 225.3,-441.79"/>
<polygon fill="black" stroke="black" points="226.48,-438.49 215.89,-438.19 223.98,-445.03 226.48,-438.49"/>
<g id="a_edge23&#45;label"><a xlink:title="calls">
<text text-anchor="middle" x="344.5" y="-476.8" font-family="Monospace" font-size="9.00">calls</text>
</a>
</g>
</g>
<!-- error_target_4_0/0 -->
<g id="node22" class="node">
<title>error_target_4_0/0</title>
<g id="a_node22"><a xlink:title="GITHUB/SmartContractToGraph/Bank_deposit&#45;contract&#45;balance_v2_parsed.pl">
<polygon fill="cornsilk" stroke="black" points="1318,-792 1168,-792 1168,-756 1318,-756 1318,-792"/>
<text text-anchor="start" x="1176" y="-776.8" font-family="Monospace" font-size="9.00"> </text>
<text text-anchor="start" x="1182" y="-776.2" font-family="Monospace" font-size="11.00">error_target_4_0/0</text>
<text text-anchor="start" x="1304" y="-776.8" font-family="Monospace" font-size="9.00"> </text>
<text text-anchor="start" x="1176" y="-765.8" font-family="Monospace" font-size="9.00"> </text>
<text text-anchor="start" x="1231.5" y="-766.4" font-family="Monospace" font-size="7.00">local</text>
<text text-anchor="start" x="1304" y="-765.8" font-family="Monospace" font-size="9.00"> </text>
</a>
</g>
</g>
<!-- error_target_4_0/0&#45;&gt;summary_4_function_deposit__48_84_0/9 -->
<g id="edge26" class="edge">
<title>error_target_4_0/0&#45;&gt;summary_4_function_deposit__48_84_0/9</title>
<path fill="none" stroke="black" d="M1206.73,-755.92C1176.44,-739.52 1135.08,-711.69 1115,-674 1097.08,-640.36 1098.26,-595.13 1101.53,-566.51"/>
<polygon fill="black" stroke="black" points="1105.02,-566.79 1102.85,-556.42 1098.08,-565.88 1105.02,-566.79"/>
<g id="a_edge26&#45;label"><a xlink:title="calls">
<text text-anchor="middle" x="1128.5" y="-653.8" font-family="Monospace" font-size="9.00">calls</text>
</a>
</g>
</g>
<!-- error_target_4_0/0&#45;&gt;interface_0_bank_84_0/5 -->
<g id="edge27" class="edge">
<title>error_target_4_0/0&#45;&gt;interface_0_bank_84_0/5</title>
<path fill="none" stroke="black" d="M1243,-755.88C1243,-737.04 1243,-706.47 1243,-684.3"/>
<polygon fill="black" stroke="black" points="1246.5,-684.19 1243,-674.19 1239.5,-684.19 1246.5,-684.19"/>
<g id="a_edge27&#45;label"><a xlink:title="calls">
<text text-anchor="middle" x="1256.5" y="-712.8" font-family="Monospace" font-size="9.00">calls</text>
</a>
</g>
</g>
<!-- error_target_4_0/0&#45;&gt;summary_6_function_withdraw__83_84_0/11 -->
<g id="edge28" class="edge">
<title>error_target_4_0/0&#45;&gt;summary_6_function_withdraw__83_84_0/11</title>
<path fill="none" stroke="black" d="M1318.23,-768.46C1438.79,-759.45 1666.74,-734.64 1716,-674 1749.96,-632.19 1684.94,-586.89 1636.61,-560.83"/>
<polygon fill="black" stroke="black" points="1637.98,-557.6 1627.5,-556.04 1634.72,-563.79 1637.98,-557.6"/>
<g id="a_edge28&#45;label"><a xlink:title="calls">
<text text-anchor="middle" x="1738.5" y="-653.8" font-family="Monospace" font-size="9.00">calls</text>
</a>
</g>
</g>
<!-- ff/0 -->
<g id="node23" class="node">
<title>ff/0</title>
<g id="a_node23"><a xlink:title="GITHUB/SmartContractToGraph/Bank_deposit&#45;contract&#45;balance_v2_parsed.pl">
<polygon fill="cornsilk" stroke="black" points="1271,-910 1215,-910 1215,-874 1271,-874 1271,-910"/>
<text text-anchor="start" x="1223" y="-894.8" font-family="Monospace" font-size="9.00"> </text>
<text text-anchor="start" x="1229" y="-894.2" font-family="Monospace" font-size="11.00">ff/0</text>
<text text-anchor="start" x="1257" y="-894.8" font-family="Monospace" font-size="9.00"> </text>
<text text-anchor="start" x="1223" y="-883.8" font-family="Monospace" font-size="9.00"> </text>
<text text-anchor="start" x="1231.5" y="-884.4" font-family="Monospace" font-size="7.00">local</text>
<text text-anchor="start" x="1257" y="-883.8" font-family="Monospace" font-size="9.00"> </text>
</a>
</g>
</g>
<!-- ff/0&#45;&gt;error_target_4_0/0 -->
<g id="edge29" class="edge">
<title>ff/0&#45;&gt;error_target_4_0/0</title>
<path fill="none" stroke="black" d="M1243,-873.88C1243,-855.04 1243,-824.47 1243,-802.3"/>
<polygon fill="black" stroke="black" points="1246.5,-802.19 1243,-792.19 1239.5,-802.19 1246.5,-802.19"/>
<g id="a_edge29&#45;label"><a xlink:title="calls">
<text text-anchor="middle" x="1256.5" y="-830.8" font-family="Monospace" font-size="9.00">calls</text>
</a>
</g>
</g>
</g>
</svg>
