<?xml version="1.0" encoding="UTF-8" standalone="no"?>
<?xml-stylesheet href="diagrams.css" type="text/css"?>
<!DOCTYPE svg PUBLIC "-//W3C//DTD SVG 1.1//EN"
 "http://www.w3.org/Graphics/SVG/1.1/DTD/svg11.dtd">
<!-- Generated by graphviz version 2.43.0 (0)
 -->
<!-- Title: Bank_withdraw&#45;sender&#45;rcv&#45;EOA_v1_parsed_object Pages: 1 -->
<svg width="2081pt" height="1107pt"
 viewBox="72.00 72.00 2009.00 1035.00" xmlns="http://www.w3.org/2000/svg" xmlns:xlink="http://www.w3.org/1999/xlink">
<g id="graph0" class="graph" transform="scale(1 1) rotate(0) translate(76 1031)">
<title>Bank_withdraw&#45;sender&#45;rcv&#45;EOA_v1_parsed_object</title>
<polygon fill="white" stroke="transparent" points="-4,4 -4,-959 1933,-959 1933,4 -4,4"/>
<text text-anchor="start" x="8" y="-18" font-family="Monospace" font-size="10.00" fill="dimgray">Cross&#45;referencing diagram for object Bank_withdraw&#45;sender&#45;rcv&#45;EOA_v1_parsed</text>
<text text-anchor="start" x="8" y="-7" font-family="Monospace" font-size="10.00" fill="dimgray">Generated on 2024&#45;05&#45;06, 19:12</text>
<g id="clust1" class="cluster">
<title>cluster_Bank_withdraw&#45;sender&#45;rcv&#45;EOA_v1_parsed_object</title>
<g id="a_clust1"><a xlink:title="GITHUB/SmartContractToGraph/Bank_withdraw&#45;sender&#45;rcv&#45;EOA_v1_parsed.pl">
<path fill="snow" stroke="dimgray" d="M20,-38C20,-38 1909,-38 1909,-38 1915,-38 1921,-44 1921,-50 1921,-50 1921,-935 1921,-935 1921,-941 1915,-947 1909,-947 1909,-947 20,-947 20,-947 14,-947 8,-941 8,-935 8,-935 8,-50 8,-50 8,-44 14,-38 20,-38"/>
<text text-anchor="start" x="20.5" y="-930.5" font-family="Monospace" font-size="10.00" fill="dimgray">Bank_withdraw&#45;sender&#45;rcv&#45;EOA_v1_parsed</text>
</a>
</g>
</g>
<!-- nondet_interface_1_bank_100_0/8 -->
<g id="node1" class="node">
<title>nondet_interface_1_bank_100_0/8</title>
<g id="a_node1"><a xlink:title="GITHUB/SmartContractToGraph/Bank_withdraw&#45;sender&#45;rcv&#45;EOA_v1_parsed.pl">
<polygon fill="cornsilk" stroke="black" points="1507,-674 1269,-674 1269,-638 1507,-638 1507,-674"/>
<text text-anchor="start" x="1277" y="-658.8" font-family="Monospace" font-size="9.00"> </text>
<text text-anchor="start" x="1283" y="-658.2" font-family="Monospace" font-size="11.00">nondet_interface_1_bank_100_0/8</text>
<text text-anchor="start" x="1493" y="-658.8" font-family="Monospace" font-size="9.00"> </text>
<text text-anchor="start" x="1277" y="-647.8" font-family="Monospace" font-size="9.00"> </text>
<text text-anchor="start" x="1376.5" y="-648.4" font-family="Monospace" font-size="7.00">local</text>
<text text-anchor="start" x="1493" y="-647.8" font-family="Monospace" font-size="9.00"> </text>
</a>
</g>
</g>
<!-- summary_4_function_deposit__18_100_0/9 -->
<g id="node7" class="node">
<title>summary_4_function_deposit__18_100_0/9</title>
<g id="a_node7"><a xlink:title="GITHUB/SmartContractToGraph/Bank_withdraw&#45;sender&#45;rcv&#45;EOA_v1_parsed.pl">
<polygon fill="cornsilk" stroke="black" points="1220.5,-556 935.5,-556 935.5,-520 1220.5,-520 1220.5,-556"/>
<text text-anchor="start" x="944" y="-540.8" font-family="Monospace" font-size="9.00"> </text>
<text text-anchor="start" x="950" y="-540.2" font-family="Monospace" font-size="11.00">summary_4_function_deposit__18_100_0/9</text>
<text text-anchor="start" x="1207" y="-540.8" font-family="Monospace" font-size="9.00"> </text>
<text text-anchor="start" x="944" y="-529.8" font-family="Monospace" font-size="9.00"> </text>
<text text-anchor="start" x="1067" y="-530.4" font-family="Monospace" font-size="7.00">local</text>
<text text-anchor="start" x="1207" y="-529.8" font-family="Monospace" font-size="9.00"> </text>
</a>
</g>
</g>
<!-- nondet_interface_1_bank_100_0/8&#45;&gt;summary_4_function_deposit__18_100_0/9 -->
<g id="edge1" class="edge">
<title>nondet_interface_1_bank_100_0/8&#45;&gt;summary_4_function_deposit__18_100_0/9</title>
<path fill="none" stroke="black" d="M1342.26,-637.88C1286.66,-617.08 1192.9,-581.99 1133.3,-559.69"/>
<polygon fill="black" stroke="black" points="1134.27,-556.32 1123.68,-556.09 1131.82,-562.87 1134.27,-556.32"/>
<g id="a_edge1&#45;label"><a xlink:title="calls">
<text text-anchor="middle" x="1255.5" y="-594.8" font-family="Monospace" font-size="9.00">calls</text>
</a>
</g>
</g>
<!-- summary_6_function_withdraw__99_100_0/11 -->
<g id="node16" class="node">
<title>summary_6_function_withdraw__99_100_0/11</title>
<g id="a_node16"><a xlink:title="GITHUB/SmartContractToGraph/Bank_withdraw&#45;sender&#45;rcv&#45;EOA_v1_parsed.pl">
<polygon fill="cornsilk" stroke="black" points="1537.5,-556 1238.5,-556 1238.5,-520 1537.5,-520 1537.5,-556"/>
<text text-anchor="start" x="1247" y="-540.8" font-family="Monospace" font-size="9.00"> </text>
<text text-anchor="start" x="1253" y="-540.2" font-family="Monospace" font-size="11.00">summary_6_function_withdraw__99_100_0/11</text>
<text text-anchor="start" x="1524" y="-540.8" font-family="Monospace" font-size="9.00"> </text>
<text text-anchor="start" x="1247" y="-529.8" font-family="Monospace" font-size="9.00"> </text>
<text text-anchor="start" x="1377" y="-530.4" font-family="Monospace" font-size="7.00">local</text>
<text text-anchor="start" x="1524" y="-529.8" font-family="Monospace" font-size="9.00"> </text>
</a>
</g>
</g>
<!-- nondet_interface_1_bank_100_0/8&#45;&gt;summary_6_function_withdraw__99_100_0/11 -->
<g id="edge2" class="edge">
<title>nondet_interface_1_bank_100_0/8&#45;&gt;summary_6_function_withdraw__99_100_0/11</title>
<path fill="none" stroke="black" d="M1388,-637.88C1388,-619.04 1388,-588.47 1388,-566.3"/>
<polygon fill="black" stroke="black" points="1391.5,-566.19 1388,-556.19 1384.5,-566.19 1391.5,-566.19"/>
<g id="a_edge2&#45;label"><a xlink:title="calls">
<text text-anchor="middle" x="1401.5" y="-594.8" font-family="Monospace" font-size="9.00">calls</text>
</a>
</g>
</g>
<!-- block_7_function_deposit__18_100_0/9 -->
<g id="node2" class="node">
<title>block_7_function_deposit__18_100_0/9</title>
<g id="a_node2"><a xlink:title="GITHUB/SmartContractToGraph/Bank_withdraw&#45;sender&#45;rcv&#45;EOA_v1_parsed.pl">
<polygon fill="cornsilk" stroke="black" points="917,-84 645,-84 645,-48 917,-48 917,-84"/>
<text text-anchor="start" x="653" y="-68.8" font-family="Monospace" font-size="9.00"> </text>
<text text-anchor="start" x="659" y="-68.2" font-family="Monospace" font-size="11.00">block_7_function_deposit__18_100_0/9</text>
<text text-anchor="start" x="903" y="-68.8" font-family="Monospace" font-size="9.00"> </text>
<text text-anchor="start" x="653" y="-57.8" font-family="Monospace" font-size="9.00"> </text>
<text text-anchor="start" x="769.5" y="-58.4" font-family="Monospace" font-size="7.00">local</text>
<text text-anchor="start" x="903" y="-57.8" font-family="Monospace" font-size="9.00"> </text>
</a>
</g>
</g>
<!-- block_8_deposit_17_100_0/9 -->
<g id="node3" class="node">
<title>block_8_deposit_17_100_0/9</title>
<g id="a_node3"><a xlink:title="GITHUB/SmartContractToGraph/Bank_withdraw&#45;sender&#45;rcv&#45;EOA_v1_parsed.pl">
<polygon fill="cornsilk" stroke="black" points="883,-202 679,-202 679,-166 883,-166 883,-202"/>
<text text-anchor="start" x="687" y="-186.8" font-family="Monospace" font-size="9.00"> </text>
<text text-anchor="start" x="693" y="-186.2" font-family="Monospace" font-size="11.00">block_8_deposit_17_100_0/9</text>
<text text-anchor="start" x="869" y="-186.8" font-family="Monospace" font-size="9.00"> </text>
<text text-anchor="start" x="687" y="-175.8" font-family="Monospace" font-size="9.00"> </text>
<text text-anchor="start" x="769.5" y="-176.4" font-family="Monospace" font-size="7.00">local</text>
<text text-anchor="start" x="869" y="-175.8" font-family="Monospace" font-size="9.00"> </text>
</a>
</g>
</g>
<!-- block_8_deposit_17_100_0/9&#45;&gt;block_7_function_deposit__18_100_0/9 -->
<g id="edge3" class="edge">
<title>block_8_deposit_17_100_0/9&#45;&gt;block_7_function_deposit__18_100_0/9</title>
<path fill="none" stroke="black" d="M781,-165.88C781,-147.04 781,-116.47 781,-94.3"/>
<polygon fill="black" stroke="black" points="784.5,-94.19 781,-84.19 777.5,-94.19 784.5,-94.19"/>
<g id="a_edge3&#45;label"><a xlink:title="calls">
<text text-anchor="middle" x="794.5" y="-122.8" font-family="Monospace" font-size="9.00">calls</text>
</a>
</g>
</g>
<!-- block_9_return_function_deposit__18_100_0/9 -->
<g id="node4" class="node">
<title>block_9_return_function_deposit__18_100_0/9</title>
<g id="a_node4"><a xlink:title="GITHUB/SmartContractToGraph/Bank_withdraw&#45;sender&#45;rcv&#45;EOA_v1_parsed.pl">
<polygon fill="cornsilk" stroke="black" points="940.5,-320 621.5,-320 621.5,-284 940.5,-284 940.5,-320"/>
<text text-anchor="start" x="630" y="-304.8" font-family="Monospace" font-size="9.00"> </text>
<text text-anchor="start" x="636" y="-304.2" font-family="Monospace" font-size="11.00">block_9_return_function_deposit__18_100_0/9</text>
<text text-anchor="start" x="927" y="-304.8" font-family="Monospace" font-size="9.00"> </text>
<text text-anchor="start" x="630" y="-293.8" font-family="Monospace" font-size="9.00"> </text>
<text text-anchor="start" x="770" y="-294.4" font-family="Monospace" font-size="7.00">local</text>
<text text-anchor="start" x="927" y="-293.8" font-family="Monospace" font-size="9.00"> </text>
</a>
</g>
</g>
<!-- block_9_return_function_deposit__18_100_0/9&#45;&gt;block_8_deposit_17_100_0/9 -->
<g id="edge4" class="edge">
<title>block_9_return_function_deposit__18_100_0/9&#45;&gt;block_8_deposit_17_100_0/9</title>
<path fill="none" stroke="black" d="M781,-283.88C781,-265.04 781,-234.47 781,-212.3"/>
<polygon fill="black" stroke="black" points="784.5,-212.19 781,-202.19 777.5,-212.19 784.5,-212.19"/>
<g id="a_edge4&#45;label"><a xlink:title="calls">
<text text-anchor="middle" x="794.5" y="-240.8" font-family="Monospace" font-size="9.00">calls</text>
</a>
</g>
</g>
<!-- summary_3_function_deposit__18_100_0/9 -->
<g id="node5" class="node">
<title>summary_3_function_deposit__18_100_0/9</title>
<g id="a_node5"><a xlink:title="GITHUB/SmartContractToGraph/Bank_withdraw&#45;sender&#45;rcv&#45;EOA_v1_parsed.pl">
<polygon fill="cornsilk" stroke="black" points="923.5,-438 638.5,-438 638.5,-402 923.5,-402 923.5,-438"/>
<text text-anchor="start" x="647" y="-422.8" font-family="Monospace" font-size="9.00"> </text>
<text text-anchor="start" x="653" y="-422.2" font-family="Monospace" font-size="11.00">summary_3_function_deposit__18_100_0/9</text>
<text text-anchor="start" x="910" y="-422.8" font-family="Monospace" font-size="9.00"> </text>
<text text-anchor="start" x="647" y="-411.8" font-family="Monospace" font-size="9.00"> </text>
<text text-anchor="start" x="770" y="-412.4" font-family="Monospace" font-size="7.00">local</text>
<text text-anchor="start" x="910" y="-411.8" font-family="Monospace" font-size="9.00"> </text>
</a>
</g>
</g>
<!-- summary_3_function_deposit__18_100_0/9&#45;&gt;block_9_return_function_deposit__18_100_0/9 -->
<g id="edge5" class="edge">
<title>summary_3_function_deposit__18_100_0/9&#45;&gt;block_9_return_function_deposit__18_100_0/9</title>
<path fill="none" stroke="black" d="M781,-401.88C781,-383.04 781,-352.47 781,-330.3"/>
<polygon fill="black" stroke="black" points="784.5,-330.19 781,-320.19 777.5,-330.19 784.5,-330.19"/>
<g id="a_edge5&#45;label"><a xlink:title="calls">
<text text-anchor="middle" x="794.5" y="-358.8" font-family="Monospace" font-size="9.00">calls</text>
</a>
</g>
</g>
<!-- block_10_function_deposit__18_100_0/9 -->
<g id="node6" class="node">
<title>block_10_function_deposit__18_100_0/9</title>
<g id="a_node6"><a xlink:title="GITHUB/SmartContractToGraph/Bank_withdraw&#45;sender&#45;rcv&#45;EOA_v1_parsed.pl">
<polygon fill="cornsilk" stroke="black" points="1220,-438 942,-438 942,-402 1220,-402 1220,-438"/>
<text text-anchor="start" x="950" y="-422.8" font-family="Monospace" font-size="9.00"> </text>
<text text-anchor="start" x="956" y="-422.2" font-family="Monospace" font-size="11.00">block_10_function_deposit__18_100_0/9</text>
<text text-anchor="start" x="1206" y="-422.8" font-family="Monospace" font-size="9.00"> </text>
<text text-anchor="start" x="950" y="-411.8" font-family="Monospace" font-size="9.00"> </text>
<text text-anchor="start" x="1069.5" y="-412.4" font-family="Monospace" font-size="7.00">local</text>
<text text-anchor="start" x="1206" y="-411.8" font-family="Monospace" font-size="9.00"> </text>
</a>
</g>
</g>
<!-- summary_4_function_deposit__18_100_0/9&#45;&gt;summary_3_function_deposit__18_100_0/9 -->
<g id="edge7" class="edge">
<title>summary_4_function_deposit__18_100_0/9&#45;&gt;summary_3_function_deposit__18_100_0/9</title>
<path fill="none" stroke="black" d="M1034.18,-519.88C981.09,-499.15 891.71,-464.24 834.58,-441.93"/>
<polygon fill="black" stroke="black" points="835.59,-438.56 825,-438.19 833.04,-445.08 835.59,-438.56"/>
<g id="a_edge7&#45;label"><a xlink:title="calls">
<text text-anchor="middle" x="951.5" y="-476.8" font-family="Monospace" font-size="9.00">calls</text>
</a>
</g>
</g>
<!-- summary_4_function_deposit__18_100_0/9&#45;&gt;block_10_function_deposit__18_100_0/9 -->
<g id="edge6" class="edge">
<title>summary_4_function_deposit__18_100_0/9&#45;&gt;block_10_function_deposit__18_100_0/9</title>
<path fill="none" stroke="black" d="M1078.44,-519.88C1078.93,-501.04 1079.72,-470.47 1080.29,-448.3"/>
<polygon fill="black" stroke="black" points="1083.8,-448.27 1080.56,-438.19 1076.8,-448.09 1083.8,-448.27"/>
<g id="a_edge6&#45;label"><a xlink:title="calls">
<text text-anchor="middle" x="1092.5" y="-476.8" font-family="Monospace" font-size="9.00">calls</text>
</a>
</g>
</g>
<!-- interface_0_bank_100_0/5 -->
<g id="node8" class="node">
<title>interface_0_bank_100_0/5</title>
<g id="a_node8"><a xlink:title="GITHUB/SmartContractToGraph/Bank_withdraw&#45;sender&#45;rcv&#45;EOA_v1_parsed.pl">
<polygon fill="cornsilk" stroke="black" points="1186.5,-674 995.5,-674 995.5,-638 1186.5,-638 1186.5,-674"/>
<text text-anchor="start" x="1004" y="-658.8" font-family="Monospace" font-size="9.00"> </text>
<text text-anchor="start" x="1010" y="-658.2" font-family="Monospace" font-size="11.00">interface_0_bank_100_0/5</text>
<text text-anchor="start" x="1173" y="-658.8" font-family="Monospace" font-size="9.00"> </text>
<text text-anchor="start" x="1004" y="-647.8" font-family="Monospace" font-size="9.00"> </text>
<text text-anchor="start" x="1080" y="-648.4" font-family="Monospace" font-size="7.00">local</text>
<text text-anchor="start" x="1173" y="-647.8" font-family="Monospace" font-size="9.00"> </text>
</a>
</g>
</g>
<!-- interface_0_bank_100_0/5&#45;&gt;summary_4_function_deposit__18_100_0/9 -->
<g id="edge8" class="edge">
<title>interface_0_bank_100_0/5&#45;&gt;summary_4_function_deposit__18_100_0/9</title>
<path fill="none" stroke="black" d="M1089.08,-637.88C1086.97,-619.04 1083.54,-588.47 1081.06,-566.3"/>
<polygon fill="black" stroke="black" points="1084.52,-565.73 1079.93,-556.19 1077.56,-566.51 1084.52,-565.73"/>
<g id="a_edge8&#45;label"><a xlink:title="calls">
<text text-anchor="middle" x="1097.5" y="-594.8" font-family="Monospace" font-size="9.00">calls</text>
</a>
</g>
</g>
<!-- interface_0_bank_100_0/5&#45;&gt;summary_6_function_withdraw__99_100_0/11 -->
<g id="edge21" class="edge">
<title>interface_0_bank_100_0/5&#45;&gt;summary_6_function_withdraw__99_100_0/11</title>
<path fill="none" stroke="black" d="M1099.59,-637.79C1107.73,-623.3 1121.34,-603.19 1139,-592 1159.96,-578.72 1210.42,-566.9 1260.48,-557.8"/>
<polygon fill="black" stroke="black" points="1261.25,-561.22 1270.48,-556.02 1260.02,-554.33 1261.25,-561.22"/>
<g id="a_edge21&#45;label"><a xlink:title="calls">
<text text-anchor="middle" x="1152.5" y="-594.8" font-family="Monospace" font-size="9.00">calls</text>
</a>
</g>
</g>
<!-- summary_constructor_2_bank_100_0/9 -->
<g id="node21" class="node">
<title>summary_constructor_2_bank_100_0/9</title>
<g id="a_node21"><a xlink:title="GITHUB/SmartContractToGraph/Bank_withdraw&#45;sender&#45;rcv&#45;EOA_v1_parsed.pl">
<polygon fill="cornsilk" stroke="black" points="593,-556 335,-556 335,-520 593,-520 593,-556"/>
<text text-anchor="start" x="343" y="-540.8" font-family="Monospace" font-size="9.00"> </text>
<text text-anchor="start" x="349" y="-540.2" font-family="Monospace" font-size="11.00">summary_constructor_2_bank_100_0/9</text>
<text text-anchor="start" x="579" y="-540.8" font-family="Monospace" font-size="9.00"> </text>
<text text-anchor="start" x="343" y="-529.8" font-family="Monospace" font-size="9.00"> </text>
<text text-anchor="start" x="452.5" y="-530.4" font-family="Monospace" font-size="7.00">local</text>
<text text-anchor="start" x="579" y="-529.8" font-family="Monospace" font-size="9.00"> </text>
</a>
</g>
</g>
<!-- interface_0_bank_100_0/5&#45;&gt;summary_constructor_2_bank_100_0/9 -->
<g id="edge26" class="edge">
<title>interface_0_bank_100_0/5&#45;&gt;summary_constructor_2_bank_100_0/9</title>
<path fill="none" stroke="black" d="M998.82,-637.95C883.27,-616.57 685.85,-580.04 565.91,-557.85"/>
<polygon fill="black" stroke="black" points="566.45,-554.39 555.98,-556.02 565.18,-561.28 566.45,-554.39"/>
<g id="a_edge26&#45;label"><a xlink:title="calls">
<text text-anchor="middle" x="809.5" y="-594.8" font-family="Monospace" font-size="9.00">calls</text>
</a>
</g>
</g>
<!-- block_11_function_withdraw__99_100_0/15 -->
<g id="node9" class="node">
<title>block_11_function_withdraw__99_100_0/15</title>
<g id="a_node9"><a xlink:title="GITHUB/SmartContractToGraph/Bank_withdraw&#45;sender&#45;rcv&#45;EOA_v1_parsed.pl">
<polygon fill="cornsilk" stroke="black" points="1468,-84 1176,-84 1176,-48 1468,-48 1468,-84"/>
<text text-anchor="start" x="1184" y="-68.8" font-family="Monospace" font-size="9.00"> </text>
<text text-anchor="start" x="1190" y="-68.2" font-family="Monospace" font-size="11.00">block_11_function_withdraw__99_100_0/15</text>
<text text-anchor="start" x="1454" y="-68.8" font-family="Monospace" font-size="9.00"> </text>
<text text-anchor="start" x="1184" y="-57.8" font-family="Monospace" font-size="9.00"> </text>
<text text-anchor="start" x="1310.5" y="-58.4" font-family="Monospace" font-size="7.00">local</text>
<text text-anchor="start" x="1454" y="-57.8" font-family="Monospace" font-size="9.00"> </text>
</a>
</g>
</g>
<!-- block_12_withdraw_98_100_0/15 -->
<g id="node10" class="node">
<title>block_12_withdraw_98_100_0/15</title>
<g id="a_node10"><a xlink:title="GITHUB/SmartContractToGraph/Bank_withdraw&#45;sender&#45;rcv&#45;EOA_v1_parsed.pl">
<polygon fill="cornsilk" stroke="black" points="1434,-202 1210,-202 1210,-166 1434,-166 1434,-202"/>
<text text-anchor="start" x="1218" y="-186.8" font-family="Monospace" font-size="9.00"> </text>
<text text-anchor="start" x="1224" y="-186.2" font-family="Monospace" font-size="11.00">block_12_withdraw_98_100_0/15</text>
<text text-anchor="start" x="1420" y="-186.8" font-family="Monospace" font-size="9.00"> </text>
<text text-anchor="start" x="1218" y="-175.8" font-family="Monospace" font-size="9.00"> </text>
<text text-anchor="start" x="1310.5" y="-176.4" font-family="Monospace" font-size="7.00">local</text>
<text text-anchor="start" x="1420" y="-175.8" font-family="Monospace" font-size="9.00"> </text>
</a>
</g>
</g>
<!-- block_12_withdraw_98_100_0/15&#45;&gt;block_11_function_withdraw__99_100_0/15 -->
<g id="edge9" class="edge">
<title>block_12_withdraw_98_100_0/15&#45;&gt;block_11_function_withdraw__99_100_0/15</title>
<path fill="none" stroke="black" d="M1322,-165.88C1322,-147.04 1322,-116.47 1322,-94.3"/>
<polygon fill="black" stroke="black" points="1325.5,-94.19 1322,-84.19 1318.5,-94.19 1325.5,-94.19"/>
<g id="a_edge9&#45;label"><a xlink:title="calls">
<text text-anchor="middle" x="1335.5" y="-122.8" font-family="Monospace" font-size="9.00">calls</text>
</a>
</g>
</g>
<!-- nondet_call_14_0/8 -->
<g id="node11" class="node">
<title>nondet_call_14_0/8</title>
<g id="a_node11"><a xlink:title="GITHUB/SmartContractToGraph/Bank_withdraw&#45;sender&#45;rcv&#45;EOA_v1_parsed.pl">
<polygon fill="cornsilk" stroke="black" points="1821,-202 1671,-202 1671,-166 1821,-166 1821,-202"/>
<text text-anchor="start" x="1679" y="-186.8" font-family="Monospace" font-size="9.00"> </text>
<text text-anchor="start" x="1685" y="-186.2" font-family="Monospace" font-size="11.00">nondet_call_14_0/8</text>
<text text-anchor="start" x="1807" y="-186.8" font-family="Monospace" font-size="9.00"> </text>
<text text-anchor="start" x="1679" y="-175.8" font-family="Monospace" font-size="9.00"> </text>
<text text-anchor="start" x="1734.5" y="-176.4" font-family="Monospace" font-size="7.00">local</text>
<text text-anchor="start" x="1807" y="-175.8" font-family="Monospace" font-size="9.00"> </text>
</a>
</g>
</g>
<!-- nondet_call_14_0/8&#45;&gt;nondet_interface_1_bank_100_0/8 -->
<g id="edge10" class="edge">
<title>nondet_call_14_0/8&#45;&gt;nondet_interface_1_bank_100_0/8</title>
<path fill="none" stroke="black" d="M1793.11,-202.09C1833.08,-219.99 1884,-252.33 1884,-301 1884,-539 1884,-539 1884,-539 1884,-614.37 1664.09,-640.8 1517.13,-650.05"/>
<polygon fill="black" stroke="black" points="1516.89,-646.56 1507.12,-650.66 1517.31,-653.54 1516.89,-646.56"/>
<g id="a_edge10&#45;label"><a xlink:title="calls">
<text text-anchor="middle" x="1897.5" y="-417.8" font-family="Monospace" font-size="9.00">calls</text>
</a>
</g>
</g>
<!-- summary_5_function_withdraw__99_100_0/11 -->
<g id="node12" class="node">
<title>summary_5_function_withdraw__99_100_0/11</title>
<g id="a_node12"><a xlink:title="GITHUB/SmartContractToGraph/Bank_withdraw&#45;sender&#45;rcv&#45;EOA_v1_parsed.pl">
<polygon fill="cornsilk" stroke="black" points="1847.5,-438 1548.5,-438 1548.5,-402 1847.5,-402 1847.5,-438"/>
<text text-anchor="start" x="1557" y="-422.8" font-family="Monospace" font-size="9.00"> </text>
<text text-anchor="start" x="1563" y="-422.2" font-family="Monospace" font-size="11.00">summary_5_function_withdraw__99_100_0/11</text>
<text text-anchor="start" x="1834" y="-422.8" font-family="Monospace" font-size="9.00"> </text>
<text text-anchor="start" x="1557" y="-411.8" font-family="Monospace" font-size="9.00"> </text>
<text text-anchor="start" x="1687" y="-412.4" font-family="Monospace" font-size="7.00">local</text>
<text text-anchor="start" x="1834" y="-411.8" font-family="Monospace" font-size="9.00"> </text>
</a>
</g>
</g>
<!-- summary_5_function_withdraw__99_100_0/11&#45;&gt;block_12_withdraw_98_100_0/15 -->
<g id="edge11" class="edge">
<title>summary_5_function_withdraw__99_100_0/11&#45;&gt;block_12_withdraw_98_100_0/15</title>
<path fill="none" stroke="black" d="M1573.85,-401.97C1407.61,-378.58 1131.7,-337.42 1117,-320 1072.48,-267.25 1166.37,-227.21 1241.34,-204.91"/>
<polygon fill="black" stroke="black" points="1242.68,-208.16 1251.31,-202.01 1240.73,-201.44 1242.68,-208.16"/>
<g id="a_edge11&#45;label"><a xlink:title="calls">
<text text-anchor="middle" x="1130.5" y="-299.8" font-family="Monospace" font-size="9.00">calls</text>
</a>
</g>
</g>
<!-- summary_5_function_withdraw__99_100_0/11&#45;&gt;nondet_call_14_0/8 -->
<g id="edge12" class="edge">
<title>summary_5_function_withdraw__99_100_0/11&#45;&gt;nondet_call_14_0/8</title>
<path fill="none" stroke="black" d="M1729.36,-401.96C1756.65,-385.16 1794.36,-356.7 1811,-320 1828.6,-281.19 1797.05,-236.76 1772.05,-209.81"/>
<polygon fill="black" stroke="black" points="1774.35,-207.14 1764.9,-202.35 1769.3,-211.99 1774.35,-207.14"/>
<g id="a_edge12&#45;label"><a xlink:title="calls">
<text text-anchor="middle" x="1829.5" y="-299.8" font-family="Monospace" font-size="9.00">calls</text>
</a>
</g>
</g>
<!-- block_15_function_withdraw__99_100_0/15 -->
<g id="node13" class="node">
<title>block_15_function_withdraw__99_100_0/15</title>
<g id="a_node13"><a xlink:title="GITHUB/SmartContractToGraph/Bank_withdraw&#45;sender&#45;rcv&#45;EOA_v1_parsed.pl">
<polygon fill="cornsilk" stroke="black" points="1802,-320 1510,-320 1510,-284 1802,-284 1802,-320"/>
<text text-anchor="start" x="1518" y="-304.8" font-family="Monospace" font-size="9.00"> </text>
<text text-anchor="start" x="1524" y="-304.2" font-family="Monospace" font-size="11.00">block_15_function_withdraw__99_100_0/15</text>
<text text-anchor="start" x="1788" y="-304.8" font-family="Monospace" font-size="9.00"> </text>
<text text-anchor="start" x="1518" y="-293.8" font-family="Monospace" font-size="9.00"> </text>
<text text-anchor="start" x="1644.5" y="-294.4" font-family="Monospace" font-size="7.00">local</text>
<text text-anchor="start" x="1788" y="-293.8" font-family="Monospace" font-size="9.00"> </text>
</a>
</g>
</g>
<!-- summary_5_function_withdraw__99_100_0/11&#45;&gt;block_15_function_withdraw__99_100_0/15 -->
<g id="edge15" class="edge">
<title>summary_5_function_withdraw__99_100_0/11&#45;&gt;block_15_function_withdraw__99_100_0/15</title>
<path fill="none" stroke="black" d="M1691.8,-401.88C1684.92,-382.86 1673.71,-351.91 1665.67,-329.7"/>
<polygon fill="black" stroke="black" points="1668.92,-328.4 1662.22,-320.19 1662.34,-330.78 1668.92,-328.4"/>
<g id="a_edge15&#45;label"><a xlink:title="calls">
<text text-anchor="middle" x="1691.5" y="-358.8" font-family="Monospace" font-size="9.00">calls</text>
</a>
</g>
</g>
<!-- block_13_return_function_withdraw__99_100_0/15 -->
<g id="node14" class="node">
<title>block_13_return_function_withdraw__99_100_0/15</title>
<g id="a_node14"><a xlink:title="GITHUB/SmartContractToGraph/Bank_withdraw&#45;sender&#45;rcv&#45;EOA_v1_parsed.pl">
<polygon fill="cornsilk" stroke="black" points="1491.5,-320 1152.5,-320 1152.5,-284 1491.5,-284 1491.5,-320"/>
<text text-anchor="start" x="1161" y="-304.8" font-family="Monospace" font-size="9.00"> </text>
<text text-anchor="start" x="1167" y="-304.2" font-family="Monospace" font-size="11.00">block_13_return_function_withdraw__99_100_0/15</text>
<text text-anchor="start" x="1478" y="-304.8" font-family="Monospace" font-size="9.00"> </text>
<text text-anchor="start" x="1161" y="-293.8" font-family="Monospace" font-size="9.00"> </text>
<text text-anchor="start" x="1311" y="-294.4" font-family="Monospace" font-size="7.00">local</text>
<text text-anchor="start" x="1478" y="-293.8" font-family="Monospace" font-size="9.00"> </text>
</a>
</g>
</g>
<!-- summary_5_function_withdraw__99_100_0/11&#45;&gt;block_13_return_function_withdraw__99_100_0/15 -->
<g id="edge18" class="edge">
<title>summary_5_function_withdraw__99_100_0/11&#45;&gt;block_13_return_function_withdraw__99_100_0/15</title>
<path fill="none" stroke="black" d="M1642.52,-401.88C1574.53,-380.91 1459.48,-345.41 1387.29,-323.14"/>
<polygon fill="black" stroke="black" points="1387.99,-319.7 1377.4,-320.09 1385.92,-326.38 1387.99,-319.7"/>
<g id="a_edge18&#45;label"><a xlink:title="calls">
<text text-anchor="middle" x="1534.5" y="-358.8" font-family="Monospace" font-size="9.00">calls</text>
</a>
</g>
</g>
<!-- block_15_function_withdraw__99_100_0/15&#45;&gt;block_12_withdraw_98_100_0/15 -->
<g id="edge13" class="edge">
<title>block_15_function_withdraw__99_100_0/15&#45;&gt;block_12_withdraw_98_100_0/15</title>
<path fill="none" stroke="black" d="M1606.72,-283.88C1546.57,-262.99 1444.96,-227.7 1380.79,-205.42"/>
<polygon fill="black" stroke="black" points="1381.81,-202.07 1371.21,-202.09 1379.51,-208.68 1381.81,-202.07"/>
<g id="a_edge13&#45;label"><a xlink:title="calls">
<text text-anchor="middle" x="1512.5" y="-240.8" font-family="Monospace" font-size="9.00">calls</text>
</a>
</g>
</g>
<!-- block_15_function_withdraw__99_100_0/15&#45;&gt;nondet_call_14_0/8 -->
<g id="edge14" class="edge">
<title>block_15_function_withdraw__99_100_0/15&#45;&gt;nondet_call_14_0/8</title>
<path fill="none" stroke="black" d="M1669.28,-283.88C1684.37,-264.44 1709.14,-232.51 1726.44,-210.21"/>
<polygon fill="black" stroke="black" points="1729.3,-212.23 1732.67,-202.19 1723.77,-207.94 1729.3,-212.23"/>
<g id="a_edge14&#45;label"><a xlink:title="calls">
<text text-anchor="middle" x="1716.5" y="-240.8" font-family="Monospace" font-size="9.00">calls</text>
</a>
</g>
</g>
<!-- block_13_return_function_withdraw__99_100_0/15&#45;&gt;block_12_withdraw_98_100_0/15 -->
<g id="edge16" class="edge">
<title>block_13_return_function_withdraw__99_100_0/15&#45;&gt;block_12_withdraw_98_100_0/15</title>
<path fill="none" stroke="black" d="M1322,-283.88C1322,-265.04 1322,-234.47 1322,-212.3"/>
<polygon fill="black" stroke="black" points="1325.5,-212.19 1322,-202.19 1318.5,-212.19 1325.5,-212.19"/>
<g id="a_edge16&#45;label"><a xlink:title="calls">
<text text-anchor="middle" x="1335.5" y="-240.8" font-family="Monospace" font-size="9.00">calls</text>
</a>
</g>
</g>
<!-- block_13_return_function_withdraw__99_100_0/15&#45;&gt;nondet_call_14_0/8 -->
<g id="edge17" class="edge">
<title>block_13_return_function_withdraw__99_100_0/15&#45;&gt;nondet_call_14_0/8</title>
<path fill="none" stroke="black" d="M1391.49,-283.93C1431.99,-273.82 1483.99,-260.57 1530,-248 1580.34,-234.25 1636.96,-217.69 1679.6,-205.01"/>
<polygon fill="black" stroke="black" points="1680.72,-208.32 1689.3,-202.11 1678.72,-201.62 1680.72,-208.32"/>
<g id="a_edge17&#45;label"><a xlink:title="calls">
<text text-anchor="middle" x="1578.5" y="-240.8" font-family="Monospace" font-size="9.00">calls</text>
</a>
</g>
</g>
<!-- block_16_function_withdraw__99_100_0/15 -->
<g id="node15" class="node">
<title>block_16_function_withdraw__99_100_0/15</title>
<g id="a_node15"><a xlink:title="GITHUB/SmartContractToGraph/Bank_withdraw&#45;sender&#45;rcv&#45;EOA_v1_parsed.pl">
<polygon fill="cornsilk" stroke="black" points="1530,-438 1238,-438 1238,-402 1530,-402 1530,-438"/>
<text text-anchor="start" x="1246" y="-422.8" font-family="Monospace" font-size="9.00"> </text>
<text text-anchor="start" x="1252" y="-422.2" font-family="Monospace" font-size="11.00">block_16_function_withdraw__99_100_0/15</text>
<text text-anchor="start" x="1516" y="-422.8" font-family="Monospace" font-size="9.00"> </text>
<text text-anchor="start" x="1246" y="-411.8" font-family="Monospace" font-size="9.00"> </text>
<text text-anchor="start" x="1372.5" y="-412.4" font-family="Monospace" font-size="7.00">local</text>
<text text-anchor="start" x="1516" y="-411.8" font-family="Monospace" font-size="9.00"> </text>
</a>
</g>
</g>
<!-- summary_6_function_withdraw__99_100_0/11&#45;&gt;summary_5_function_withdraw__99_100_0/11 -->
<g id="edge20" class="edge">
<title>summary_6_function_withdraw__99_100_0/11&#45;&gt;summary_5_function_withdraw__99_100_0/11</title>
<path fill="none" stroke="black" d="M1433.74,-519.88C1489.34,-499.08 1583.1,-463.99 1642.7,-441.69"/>
<polygon fill="black" stroke="black" points="1644.18,-444.87 1652.32,-438.09 1641.73,-438.32 1644.18,-444.87"/>
<g id="a_edge20&#45;label"><a xlink:title="calls">
<text text-anchor="middle" x="1565.5" y="-476.8" font-family="Monospace" font-size="9.00">calls</text>
</a>
</g>
</g>
<!-- summary_6_function_withdraw__99_100_0/11&#45;&gt;block_16_function_withdraw__99_100_0/15 -->
<g id="edge19" class="edge">
<title>summary_6_function_withdraw__99_100_0/11&#45;&gt;block_16_function_withdraw__99_100_0/15</title>
<path fill="none" stroke="black" d="M1387.41,-519.88C1386.76,-501.04 1385.71,-470.47 1384.94,-448.3"/>
<polygon fill="black" stroke="black" points="1388.44,-448.06 1384.59,-438.19 1381.44,-448.3 1388.44,-448.06"/>
<g id="a_edge19&#45;label"><a xlink:title="calls">
<text text-anchor="middle" x="1399.5" y="-476.8" font-family="Monospace" font-size="9.00">calls</text>
</a>
</g>
</g>
<!-- contract_initializer_entry_18_bank_100_0/9 -->
<g id="node17" class="node">
<title>contract_initializer_entry_18_bank_100_0/9</title>
<g id="a_node17"><a xlink:title="GITHUB/SmartContractToGraph/Bank_withdraw&#45;sender&#45;rcv&#45;EOA_v1_parsed.pl">
<polygon fill="cornsilk" stroke="black" points="347,-202 35,-202 35,-166 347,-166 347,-202"/>
<text text-anchor="start" x="43" y="-186.8" font-family="Monospace" font-size="9.00"> </text>
<text text-anchor="start" x="49" y="-186.2" font-family="Monospace" font-size="11.00">contract_initializer_entry_18_bank_100_0/9</text>
<text text-anchor="start" x="333" y="-186.8" font-family="Monospace" font-size="9.00"> </text>
<text text-anchor="start" x="43" y="-175.8" font-family="Monospace" font-size="9.00"> </text>
<text text-anchor="start" x="179.5" y="-176.4" font-family="Monospace" font-size="7.00">local</text>
<text text-anchor="start" x="333" y="-175.8" font-family="Monospace" font-size="9.00"> </text>
</a>
</g>
</g>
<!-- contract_initializer_after_init_19_bank_100_0/9 -->
<g id="node18" class="node">
<title>contract_initializer_after_init_19_bank_100_0/9</title>
<g id="a_node18"><a xlink:title="GITHUB/SmartContractToGraph/Bank_withdraw&#45;sender&#45;rcv&#45;EOA_v1_parsed.pl">
<polygon fill="cornsilk" stroke="black" points="364,-320 18,-320 18,-284 364,-284 364,-320"/>
<text text-anchor="start" x="26" y="-304.8" font-family="Monospace" font-size="9.00"> </text>
<text text-anchor="start" x="32" y="-304.2" font-family="Monospace" font-size="11.00">contract_initializer_after_init_19_bank_100_0/9</text>
<text text-anchor="start" x="350" y="-304.8" font-family="Monospace" font-size="9.00"> </text>
<text text-anchor="start" x="26" y="-293.8" font-family="Monospace" font-size="9.00"> </text>
<text text-anchor="start" x="179.5" y="-294.4" font-family="Monospace" font-size="7.00">local</text>
<text text-anchor="start" x="350" y="-293.8" font-family="Monospace" font-size="9.00"> </text>
</a>
</g>
</g>
<!-- contract_initializer_after_init_19_bank_100_0/9&#45;&gt;contract_initializer_entry_18_bank_100_0/9 -->
<g id="edge22" class="edge">
<title>contract_initializer_after_init_19_bank_100_0/9&#45;&gt;contract_initializer_entry_18_bank_100_0/9</title>
<path fill="none" stroke="black" d="M191,-283.88C191,-265.04 191,-234.47 191,-212.3"/>
<polygon fill="black" stroke="black" points="194.5,-212.19 191,-202.19 187.5,-212.19 194.5,-212.19"/>
<g id="a_edge22&#45;label"><a xlink:title="calls">
<text text-anchor="middle" x="204.5" y="-240.8" font-family="Monospace" font-size="9.00">calls</text>
</a>
</g>
</g>
<!-- contract_initializer_17_bank_100_0/9 -->
<g id="node19" class="node">
<title>contract_initializer_17_bank_100_0/9</title>
<g id="a_node19"><a xlink:title="GITHUB/SmartContractToGraph/Bank_withdraw&#45;sender&#45;rcv&#45;EOA_v1_parsed.pl">
<polygon fill="cornsilk" stroke="black" points="290,-438 18,-438 18,-402 290,-402 290,-438"/>
<text text-anchor="start" x="26" y="-422.8" font-family="Monospace" font-size="9.00"> </text>
<text text-anchor="start" x="32" y="-422.2" font-family="Monospace" font-size="11.00">contract_initializer_17_bank_100_0/9</text>
<text text-anchor="start" x="276" y="-422.8" font-family="Monospace" font-size="9.00"> </text>
<text text-anchor="start" x="26" y="-411.8" font-family="Monospace" font-size="9.00"> </text>
<text text-anchor="start" x="142.5" y="-412.4" font-family="Monospace" font-size="7.00">local</text>
<text text-anchor="start" x="276" y="-411.8" font-family="Monospace" font-size="9.00"> </text>
</a>
</g>
</g>
<!-- contract_initializer_17_bank_100_0/9&#45;&gt;contract_initializer_after_init_19_bank_100_0/9 -->
<g id="edge23" class="edge">
<title>contract_initializer_17_bank_100_0/9&#45;&gt;contract_initializer_after_init_19_bank_100_0/9</title>
<path fill="none" stroke="black" d="M159.46,-401.88C165.5,-382.95 175.31,-352.19 182.39,-330"/>
<polygon fill="black" stroke="black" points="185.81,-330.78 185.52,-320.19 179.14,-328.65 185.81,-330.78"/>
<g id="a_edge23&#45;label"><a xlink:title="calls">
<text text-anchor="middle" x="186.5" y="-358.8" font-family="Monospace" font-size="9.00">calls</text>
</a>
</g>
</g>
<!-- implicit_constructor_entry_20_bank_100_0/9 -->
<g id="node20" class="node">
<title>implicit_constructor_entry_20_bank_100_0/9</title>
<g id="a_node20"><a xlink:title="GITHUB/SmartContractToGraph/Bank_withdraw&#45;sender&#45;rcv&#45;EOA_v1_parsed.pl">
<polygon fill="cornsilk" stroke="black" points="620,-438 308,-438 308,-402 620,-402 620,-438"/>
<text text-anchor="start" x="316" y="-422.8" font-family="Monospace" font-size="9.00"> </text>
<text text-anchor="start" x="322" y="-422.2" font-family="Monospace" font-size="11.00">implicit_constructor_entry_20_bank_100_0/9</text>
<text text-anchor="start" x="606" y="-422.8" font-family="Monospace" font-size="9.00"> </text>
<text text-anchor="start" x="316" y="-411.8" font-family="Monospace" font-size="9.00"> </text>
<text text-anchor="start" x="452.5" y="-412.4" font-family="Monospace" font-size="7.00">local</text>
<text text-anchor="start" x="606" y="-411.8" font-family="Monospace" font-size="9.00"> </text>
</a>
</g>
</g>
<!-- summary_constructor_2_bank_100_0/9&#45;&gt;contract_initializer_17_bank_100_0/9 -->
<g id="edge25" class="edge">
<title>summary_constructor_2_bank_100_0/9&#45;&gt;contract_initializer_17_bank_100_0/9</title>
<path fill="none" stroke="black" d="M418.26,-519.88C362.66,-499.08 268.9,-463.99 209.3,-441.69"/>
<polygon fill="black" stroke="black" points="210.27,-438.32 199.68,-438.09 207.82,-444.87 210.27,-438.32"/>
<g id="a_edge25&#45;label"><a xlink:title="calls">
<text text-anchor="middle" x="331.5" y="-476.8" font-family="Monospace" font-size="9.00">calls</text>
</a>
</g>
</g>
<!-- summary_constructor_2_bank_100_0/9&#45;&gt;implicit_constructor_entry_20_bank_100_0/9 -->
<g id="edge24" class="edge">
<title>summary_constructor_2_bank_100_0/9&#45;&gt;implicit_constructor_entry_20_bank_100_0/9</title>
<path fill="none" stroke="black" d="M464,-519.88C464,-501.04 464,-470.47 464,-448.3"/>
<polygon fill="black" stroke="black" points="467.5,-448.19 464,-438.19 460.5,-448.19 467.5,-448.19"/>
<g id="a_edge24&#45;label"><a xlink:title="calls">
<text text-anchor="middle" x="477.5" y="-476.8" font-family="Monospace" font-size="9.00">calls</text>
</a>
</g>
</g>
<!-- error_target_3_0/0 -->
<g id="node22" class="node">
<title>error_target_3_0/0</title>
<g id="a_node22"><a xlink:title="GITHUB/SmartContractToGraph/Bank_withdraw&#45;sender&#45;rcv&#45;EOA_v1_parsed.pl">
<polygon fill="cornsilk" stroke="black" points="1256,-792 1106,-792 1106,-756 1256,-756 1256,-792"/>
<text text-anchor="start" x="1114" y="-776.8" font-family="Monospace" font-size="9.00"> </text>
<text text-anchor="start" x="1120" y="-776.2" font-family="Monospace" font-size="11.00">error_target_3_0/0</text>
<text text-anchor="start" x="1242" y="-776.8" font-family="Monospace" font-size="9.00"> </text>
<text text-anchor="start" x="1114" y="-765.8" font-family="Monospace" font-size="9.00"> </text>
<text text-anchor="start" x="1169.5" y="-766.4" font-family="Monospace" font-size="7.00">local</text>
<text text-anchor="start" x="1242" y="-765.8" font-family="Monospace" font-size="9.00"> </text>
</a>
</g>
</g>
<!-- error_target_3_0/0&#45;&gt;interface_0_bank_100_0/5 -->
<g id="edge28" class="edge">
<title>error_target_3_0/0&#45;&gt;interface_0_bank_100_0/5</title>
<path fill="none" stroke="black" d="M1167.72,-755.88C1152.63,-736.44 1127.86,-704.51 1110.56,-682.21"/>
<polygon fill="black" stroke="black" points="1113.23,-679.94 1104.33,-674.19 1107.7,-684.23 1113.23,-679.94"/>
<g id="a_edge28&#45;label"><a xlink:title="calls">
<text text-anchor="middle" x="1151.5" y="-712.8" font-family="Monospace" font-size="9.00">calls</text>
</a>
</g>
</g>
<!-- error_target_3_0/0&#45;&gt;summary_6_function_withdraw__99_100_0/11 -->
<g id="edge27" class="edge">
<title>error_target_3_0/0&#45;&gt;summary_6_function_withdraw__99_100_0/11</title>
<path fill="none" stroke="black" d="M1184,-755.91C1189.54,-728.46 1203.6,-673.98 1233,-638 1261.07,-603.65 1304.33,-577.42 1338.02,-560.62"/>
<polygon fill="black" stroke="black" points="1339.78,-563.65 1347.25,-556.13 1336.72,-557.36 1339.78,-563.65"/>
<g id="a_edge27&#45;label"><a xlink:title="calls">
<text text-anchor="middle" x="1246.5" y="-653.8" font-family="Monospace" font-size="9.00">calls</text>
</a>
</g>
</g>
<!-- ff/0 -->
<g id="node23" class="node">
<title>ff/0</title>
<g id="a_node23"><a xlink:title="GITHUB/SmartContractToGraph/Bank_withdraw&#45;sender&#45;rcv&#45;EOA_v1_parsed.pl">
<polygon fill="cornsilk" stroke="black" points="1209,-910 1153,-910 1153,-874 1209,-874 1209,-910"/>
<text text-anchor="start" x="1161" y="-894.8" font-family="Monospace" font-size="9.00"> </text>
<text text-anchor="start" x="1167" y="-894.2" font-family="Monospace" font-size="11.00">ff/0</text>
<text text-anchor="start" x="1195" y="-894.8" font-family="Monospace" font-size="9.00"> </text>
<text text-anchor="start" x="1161" y="-883.8" font-family="Monospace" font-size="9.00"> </text>
<text text-anchor="start" x="1169.5" y="-884.4" font-family="Monospace" font-size="7.00">local</text>
<text text-anchor="start" x="1195" y="-883.8" font-family="Monospace" font-size="9.00"> </text>
</a>
</g>
</g>
<!-- ff/0&#45;&gt;error_target_3_0/0 -->
<g id="edge29" class="edge">
<title>ff/0&#45;&gt;error_target_3_0/0</title>
<path fill="none" stroke="black" d="M1181,-873.88C1181,-855.04 1181,-824.47 1181,-802.3"/>
<polygon fill="black" stroke="black" points="1184.5,-802.19 1181,-792.19 1177.5,-802.19 1184.5,-802.19"/>
<g id="a_edge29&#45;label"><a xlink:title="calls">
<text text-anchor="middle" x="1194.5" y="-830.8" font-family="Monospace" font-size="9.00">calls</text>
</a>
</g>
</g>
</g>
</svg>
