<?xml version="1.0" encoding="UTF-8" standalone="no"?>
<?xml-stylesheet href="diagrams.css" type="text/css"?>
<!DOCTYPE svg PUBLIC "-//W3C//DTD SVG 1.1//EN"
 "http://www.w3.org/Graphics/SVG/1.1/DTD/svg11.dtd">
<!-- Generated by graphviz version 2.43.0 (0)
 -->
<!-- Title: DepositEth_wd&#45;sender&#45;rcv&#45;EOA_v1_parsed_object Pages: 1 -->
<svg width="1632pt" height="1225pt"
 viewBox="72.00 72.00 1560.00 1153.00" xmlns="http://www.w3.org/2000/svg" xmlns:xlink="http://www.w3.org/1999/xlink">
<g id="graph0" class="graph" transform="scale(1 1) rotate(0) translate(76 1149)">
<title>DepositEth_wd&#45;sender&#45;rcv&#45;EOA_v1_parsed_object</title>
<polygon fill="white" stroke="transparent" points="-4,4 -4,-1077 1484,-1077 1484,4 -4,4"/>
<text text-anchor="start" x="8" y="-18" font-family="Monospace" font-size="10.00" fill="dimgray">Cross&#45;referencing diagram for object DepositEth_wd&#45;sender&#45;rcv&#45;EOA_v1_parsed</text>
<text text-anchor="start" x="8" y="-7" font-family="Monospace" font-size="10.00" fill="dimgray">Generated on 2024&#45;06&#45;06, 13:15</text>
<g id="clust1" class="cluster">
<title>cluster_DepositEth_wd&#45;sender&#45;rcv&#45;EOA_v1_parsed_object</title>
<g id="a_clust1"><a xlink:title="GITHUB/SmartContractToGraph/DepositEth_wd&#45;sender&#45;rcv&#45;EOA_v1_parsed">
<path fill="snow" stroke="dimgray" d="M20,-38C20,-38 1460,-38 1460,-38 1466,-38 1472,-44 1472,-50 1472,-50 1472,-1053 1472,-1053 1472,-1059 1466,-1065 1460,-1065 1460,-1065 20,-1065 20,-1065 14,-1065 8,-1059 8,-1053 8,-1053 8,-50 8,-50 8,-44 14,-38 20,-38"/>
<text text-anchor="start" x="20.5" y="-1048.5" font-family="Monospace" font-size="10.00" fill="dimgray">DepositEth_wd&#45;sender&#45;rcv&#45;EOA_v1_parsed</text>
</a>
</g>
</g>
<!-- nondet_interface_1_depositeth_92_0/10 -->
<g id="node1" class="node">
<title>nondet_interface_1_depositeth_92_0/10</title>
<g id="a_node1"><a xlink:title="GITHUB/SmartContractToGraph/DepositEth_wd&#45;sender&#45;rcv&#45;EOA_v1_parsed">
<polygon fill="cornsilk" stroke="black" points="1414,-792 1136,-792 1136,-756 1414,-756 1414,-792"/>
<text text-anchor="start" x="1144" y="-776.8" font-family="Monospace" font-size="9.00"> </text>
<text text-anchor="start" x="1150" y="-776.2" font-family="Monospace" font-size="11.00">nondet_interface_1_depositeth_92_0/10</text>
<text text-anchor="start" x="1400" y="-776.8" font-family="Monospace" font-size="9.00"> </text>
<text text-anchor="start" x="1144" y="-765.8" font-family="Monospace" font-size="9.00"> </text>
<text text-anchor="start" x="1263.5" y="-766.4" font-family="Monospace" font-size="7.00">local</text>
<text text-anchor="start" x="1400" y="-765.8" font-family="Monospace" font-size="9.00"> </text>
</a>
</g>
</g>
<!-- summary_5_function_withdraw__91_92_0/13 -->
<g id="node9" class="node">
<title>summary_5_function_withdraw__91_92_0/13</title>
<g id="a_node9"><a xlink:title="GITHUB/SmartContractToGraph/DepositEth_wd&#45;sender&#45;rcv&#45;EOA_v1_parsed">
<polygon fill="cornsilk" stroke="black" points="1143,-674 851,-674 851,-638 1143,-638 1143,-674"/>
<text text-anchor="start" x="859" y="-658.8" font-family="Monospace" font-size="9.00"> </text>
<text text-anchor="start" x="865" y="-658.2" font-family="Monospace" font-size="11.00">summary_5_function_withdraw__91_92_0/13</text>
<text text-anchor="start" x="1129" y="-658.8" font-family="Monospace" font-size="9.00"> </text>
<text text-anchor="start" x="859" y="-647.8" font-family="Monospace" font-size="9.00"> </text>
<text text-anchor="start" x="985.5" y="-648.4" font-family="Monospace" font-size="7.00">local</text>
<text text-anchor="start" x="1129" y="-647.8" font-family="Monospace" font-size="9.00"> </text>
</a>
</g>
</g>
<!-- nondet_interface_1_depositeth_92_0/10&#45;&gt;summary_5_function_withdraw__91_92_0/13 -->
<g id="edge1" class="edge">
<title>nondet_interface_1_depositeth_92_0/10&#45;&gt;summary_5_function_withdraw__91_92_0/13</title>
<path fill="none" stroke="black" d="M1233.98,-755.88C1184.4,-735.19 1100.97,-700.38 1047.48,-678.07"/>
<polygon fill="black" stroke="black" points="1048.76,-674.81 1038.19,-674.19 1046.07,-681.27 1048.76,-674.81"/>
<g id="a_edge1&#45;label"><a xlink:title="calls">
<text text-anchor="middle" x="1157.5" y="-712.8" font-family="Monospace" font-size="9.00">calls</text>
</a>
</g>
</g>
<!-- block_6_function_withdraw__91_92_0/17 -->
<g id="node2" class="node">
<title>block_6_function_withdraw__91_92_0/17</title>
<g id="a_node2"><a xlink:title="GITHUB/SmartContractToGraph/DepositEth_wd&#45;sender&#45;rcv&#45;EOA_v1_parsed">
<polygon fill="cornsilk" stroke="black" points="1031,-202 753,-202 753,-166 1031,-166 1031,-202"/>
<text text-anchor="start" x="761" y="-186.8" font-family="Monospace" font-size="9.00"> </text>
<text text-anchor="start" x="767" y="-186.2" font-family="Monospace" font-size="11.00">block_6_function_withdraw__91_92_0/17</text>
<text text-anchor="start" x="1017" y="-186.8" font-family="Monospace" font-size="9.00"> </text>
<text text-anchor="start" x="761" y="-175.8" font-family="Monospace" font-size="9.00"> </text>
<text text-anchor="start" x="880.5" y="-176.4" font-family="Monospace" font-size="7.00">local</text>
<text text-anchor="start" x="1017" y="-175.8" font-family="Monospace" font-size="9.00"> </text>
</a>
</g>
</g>
<!-- block_7_withdraw_90_92_0/17 -->
<g id="node3" class="node">
<title>block_7_withdraw_90_92_0/17</title>
<g id="a_node3"><a xlink:title="GITHUB/SmartContractToGraph/DepositEth_wd&#45;sender&#45;rcv&#45;EOA_v1_parsed">
<polygon fill="cornsilk" stroke="black" points="997.5,-320 786.5,-320 786.5,-284 997.5,-284 997.5,-320"/>
<text text-anchor="start" x="795" y="-304.8" font-family="Monospace" font-size="9.00"> </text>
<text text-anchor="start" x="801" y="-304.2" font-family="Monospace" font-size="11.00">block_7_withdraw_90_92_0/17</text>
<text text-anchor="start" x="984" y="-304.8" font-family="Monospace" font-size="9.00"> </text>
<text text-anchor="start" x="795" y="-293.8" font-family="Monospace" font-size="9.00"> </text>
<text text-anchor="start" x="881" y="-294.4" font-family="Monospace" font-size="7.00">local</text>
<text text-anchor="start" x="984" y="-293.8" font-family="Monospace" font-size="9.00"> </text>
</a>
</g>
</g>
<!-- block_7_withdraw_90_92_0/17&#45;&gt;block_6_function_withdraw__91_92_0/17 -->
<g id="edge2" class="edge">
<title>block_7_withdraw_90_92_0/17&#45;&gt;block_6_function_withdraw__91_92_0/17</title>
<path fill="none" stroke="black" d="M892,-283.88C892,-265.04 892,-234.47 892,-212.3"/>
<polygon fill="black" stroke="black" points="895.5,-212.19 892,-202.19 888.5,-212.19 895.5,-212.19"/>
<g id="a_edge2&#45;label"><a xlink:title="calls">
<text text-anchor="middle" x="905.5" y="-240.8" font-family="Monospace" font-size="9.00">calls</text>
</a>
</g>
</g>
<!-- nondet_call_9_0/10 -->
<g id="node4" class="node">
<title>nondet_call_9_0/10</title>
<g id="a_node4"><a xlink:title="GITHUB/SmartContractToGraph/DepositEth_wd&#45;sender&#45;rcv&#45;EOA_v1_parsed">
<polygon fill="cornsilk" stroke="black" points="1377,-320 1227,-320 1227,-284 1377,-284 1377,-320"/>
<text text-anchor="start" x="1235" y="-304.8" font-family="Monospace" font-size="9.00"> </text>
<text text-anchor="start" x="1241" y="-304.2" font-family="Monospace" font-size="11.00">nondet_call_9_0/10</text>
<text text-anchor="start" x="1363" y="-304.8" font-family="Monospace" font-size="9.00"> </text>
<text text-anchor="start" x="1235" y="-293.8" font-family="Monospace" font-size="9.00"> </text>
<text text-anchor="start" x="1290.5" y="-294.4" font-family="Monospace" font-size="7.00">local</text>
<text text-anchor="start" x="1363" y="-293.8" font-family="Monospace" font-size="9.00"> </text>
</a>
</g>
</g>
<!-- nondet_call_9_0/10&#45;&gt;nondet_interface_1_depositeth_92_0/10 -->
<g id="edge3" class="edge">
<title>nondet_call_9_0/10&#45;&gt;nondet_interface_1_depositeth_92_0/10</title>
<path fill="none" stroke="black" d="M1338.94,-320.12C1368.99,-336.38 1409.1,-363.99 1426,-402 1432.5,-416.62 1429.36,-422.36 1426,-438 1399.64,-560.64 1324.69,-692.51 1291.35,-747.09"/>
<polygon fill="black" stroke="black" points="1288.26,-745.42 1285.99,-755.77 1294.22,-749.09 1288.26,-745.42"/>
<g id="a_edge3&#45;label"><a xlink:title="calls">
<text text-anchor="middle" x="1415.5" y="-535.8" font-family="Monospace" font-size="9.00">calls</text>
</a>
</g>
</g>
<!-- summary_4_function_withdraw__91_92_0/13 -->
<g id="node5" class="node">
<title>summary_4_function_withdraw__91_92_0/13</title>
<g id="a_node5"><a xlink:title="GITHUB/SmartContractToGraph/DepositEth_wd&#45;sender&#45;rcv&#45;EOA_v1_parsed">
<polygon fill="cornsilk" stroke="black" points="1339,-556 1047,-556 1047,-520 1339,-520 1339,-556"/>
<text text-anchor="start" x="1055" y="-540.8" font-family="Monospace" font-size="9.00"> </text>
<text text-anchor="start" x="1061" y="-540.2" font-family="Monospace" font-size="11.00">summary_4_function_withdraw__91_92_0/13</text>
<text text-anchor="start" x="1325" y="-540.8" font-family="Monospace" font-size="9.00"> </text>
<text text-anchor="start" x="1055" y="-529.8" font-family="Monospace" font-size="9.00"> </text>
<text text-anchor="start" x="1181.5" y="-530.4" font-family="Monospace" font-size="7.00">local</text>
<text text-anchor="start" x="1325" y="-529.8" font-family="Monospace" font-size="9.00"> </text>
</a>
</g>
</g>
<!-- summary_4_function_withdraw__91_92_0/13&#45;&gt;block_7_withdraw_90_92_0/17 -->
<g id="edge4" class="edge">
<title>summary_4_function_withdraw__91_92_0/13&#45;&gt;block_7_withdraw_90_92_0/17</title>
<path fill="none" stroke="black" d="M1071.59,-519.97C937.26,-499.9 736.61,-465.76 714,-438 673.67,-388.48 758.85,-346.82 824.78,-323.39"/>
<polygon fill="black" stroke="black" points="826.05,-326.65 834.35,-320.06 823.75,-320.04 826.05,-326.65"/>
<g id="a_edge4&#45;label"><a xlink:title="calls">
<text text-anchor="middle" x="727.5" y="-417.8" font-family="Monospace" font-size="9.00">calls</text>
</a>
</g>
</g>
<!-- summary_4_function_withdraw__91_92_0/13&#45;&gt;nondet_call_9_0/10 -->
<g id="edge5" class="edge">
<title>summary_4_function_withdraw__91_92_0/13&#45;&gt;nondet_call_9_0/10</title>
<path fill="none" stroke="black" d="M1267.48,-519.88C1310.76,-505.7 1361.78,-480.71 1388,-438 1412.19,-398.59 1368.6,-353.38 1335.12,-326.55"/>
<polygon fill="black" stroke="black" points="1336.92,-323.52 1326.88,-320.15 1332.62,-329.05 1336.92,-323.52"/>
<g id="a_edge5&#45;label"><a xlink:title="calls">
<text text-anchor="middle" x="1408.5" y="-417.8" font-family="Monospace" font-size="9.00">calls</text>
</a>
</g>
</g>
<!-- block_10_function_withdraw__91_92_0/17 -->
<g id="node6" class="node">
<title>block_10_function_withdraw__91_92_0/17</title>
<g id="a_node6"><a xlink:title="GITHUB/SmartContractToGraph/DepositEth_wd&#45;sender&#45;rcv&#45;EOA_v1_parsed">
<polygon fill="cornsilk" stroke="black" points="1034.5,-438 749.5,-438 749.5,-402 1034.5,-402 1034.5,-438"/>
<text text-anchor="start" x="758" y="-422.8" font-family="Monospace" font-size="9.00"> </text>
<text text-anchor="start" x="764" y="-422.2" font-family="Monospace" font-size="11.00">block_10_function_withdraw__91_92_0/17</text>
<text text-anchor="start" x="1021" y="-422.8" font-family="Monospace" font-size="9.00"> </text>
<text text-anchor="start" x="758" y="-411.8" font-family="Monospace" font-size="9.00"> </text>
<text text-anchor="start" x="881" y="-412.4" font-family="Monospace" font-size="7.00">local</text>
<text text-anchor="start" x="1021" y="-411.8" font-family="Monospace" font-size="9.00"> </text>
</a>
</g>
</g>
<!-- summary_4_function_withdraw__91_92_0/13&#45;&gt;block_10_function_withdraw__91_92_0/17 -->
<g id="edge8" class="edge">
<title>summary_4_function_withdraw__91_92_0/13&#45;&gt;block_10_function_withdraw__91_92_0/17</title>
<path fill="none" stroke="black" d="M1148.59,-519.88C1094.68,-499.11 1003.82,-464.09 945.94,-441.79"/>
<polygon fill="black" stroke="black" points="947.19,-438.52 936.6,-438.19 944.67,-445.05 947.19,-438.52"/>
<g id="a_edge8&#45;label"><a xlink:title="calls">
<text text-anchor="middle" x="1064.5" y="-476.8" font-family="Monospace" font-size="9.00">calls</text>
</a>
</g>
</g>
<!-- block_8_return_function_withdraw__91_92_0/17 -->
<g id="node7" class="node">
<title>block_8_return_function_withdraw__91_92_0/17</title>
<g id="a_node7"><a xlink:title="GITHUB/SmartContractToGraph/DepositEth_wd&#45;sender&#45;rcv&#45;EOA_v1_parsed">
<polygon fill="cornsilk" stroke="black" points="1379,-438 1053,-438 1053,-402 1379,-402 1379,-438"/>
<text text-anchor="start" x="1061" y="-422.8" font-family="Monospace" font-size="9.00"> </text>
<text text-anchor="start" x="1067" y="-422.2" font-family="Monospace" font-size="11.00">block_8_return_function_withdraw__91_92_0/17</text>
<text text-anchor="start" x="1365" y="-422.8" font-family="Monospace" font-size="9.00"> </text>
<text text-anchor="start" x="1061" y="-411.8" font-family="Monospace" font-size="9.00"> </text>
<text text-anchor="start" x="1204.5" y="-412.4" font-family="Monospace" font-size="7.00">local</text>
<text text-anchor="start" x="1365" y="-411.8" font-family="Monospace" font-size="9.00"> </text>
</a>
</g>
</g>
<!-- summary_4_function_withdraw__91_92_0/13&#45;&gt;block_8_return_function_withdraw__91_92_0/17 -->
<g id="edge11" class="edge">
<title>summary_4_function_withdraw__91_92_0/13&#45;&gt;block_8_return_function_withdraw__91_92_0/17</title>
<path fill="none" stroke="black" d="M1196.39,-519.88C1200.15,-500.95 1206.25,-470.19 1210.65,-448"/>
<polygon fill="black" stroke="black" points="1214.08,-448.68 1212.59,-438.19 1207.21,-447.31 1214.08,-448.68"/>
<g id="a_edge11&#45;label"><a xlink:title="calls">
<text text-anchor="middle" x="1218.5" y="-476.8" font-family="Monospace" font-size="9.00">calls</text>
</a>
</g>
</g>
<!-- block_10_function_withdraw__91_92_0/17&#45;&gt;block_7_withdraw_90_92_0/17 -->
<g id="edge6" class="edge">
<title>block_10_function_withdraw__91_92_0/17&#45;&gt;block_7_withdraw_90_92_0/17</title>
<path fill="none" stroke="black" d="M892,-401.88C892,-383.04 892,-352.47 892,-330.3"/>
<polygon fill="black" stroke="black" points="895.5,-330.19 892,-320.19 888.5,-330.19 895.5,-330.19"/>
<g id="a_edge6&#45;label"><a xlink:title="calls">
<text text-anchor="middle" x="905.5" y="-358.8" font-family="Monospace" font-size="9.00">calls</text>
</a>
</g>
</g>
<!-- block_10_function_withdraw__91_92_0/17&#45;&gt;nondet_call_9_0/10 -->
<g id="edge7" class="edge">
<title>block_10_function_withdraw__91_92_0/17&#45;&gt;nondet_call_9_0/10</title>
<path fill="none" stroke="black" d="M959.5,-401.96C998.84,-391.87 1049.34,-378.62 1094,-366 1142.57,-352.28 1197.18,-335.69 1238.25,-322.98"/>
<polygon fill="black" stroke="black" points="1239.34,-326.31 1247.86,-320.01 1237.27,-319.62 1239.34,-326.31"/>
<g id="a_edge7&#45;label"><a xlink:title="calls">
<text text-anchor="middle" x="1141.5" y="-358.8" font-family="Monospace" font-size="9.00">calls</text>
</a>
</g>
</g>
<!-- block_8_return_function_withdraw__91_92_0/17&#45;&gt;block_7_withdraw_90_92_0/17 -->
<g id="edge9" class="edge">
<title>block_8_return_function_withdraw__91_92_0/17&#45;&gt;block_7_withdraw_90_92_0/17</title>
<path fill="none" stroke="black" d="M1168.19,-401.88C1109.96,-381.04 1011.68,-345.85 949.41,-323.56"/>
<polygon fill="black" stroke="black" points="950.33,-320.17 939.74,-320.09 947.97,-326.76 950.33,-320.17"/>
<g id="a_edge9&#45;label"><a xlink:title="calls">
<text text-anchor="middle" x="1076.5" y="-358.8" font-family="Monospace" font-size="9.00">calls</text>
</a>
</g>
</g>
<!-- block_8_return_function_withdraw__91_92_0/17&#45;&gt;nondet_call_9_0/10 -->
<g id="edge10" class="edge">
<title>block_8_return_function_withdraw__91_92_0/17&#45;&gt;nondet_call_9_0/10</title>
<path fill="none" stroke="black" d="M1228.69,-401.88C1243.04,-382.52 1266.57,-350.79 1283.09,-328.51"/>
<polygon fill="black" stroke="black" points="1286.11,-330.3 1289.26,-320.19 1280.49,-326.14 1286.11,-330.3"/>
<g id="a_edge10&#45;label"><a xlink:title="calls">
<text text-anchor="middle" x="1274.5" y="-358.8" font-family="Monospace" font-size="9.00">calls</text>
</a>
</g>
</g>
<!-- block_11_function_withdraw__91_92_0/17 -->
<g id="node8" class="node">
<title>block_11_function_withdraw__91_92_0/17</title>
<g id="a_node8"><a xlink:title="GITHUB/SmartContractToGraph/DepositEth_wd&#45;sender&#45;rcv&#45;EOA_v1_parsed">
<polygon fill="cornsilk" stroke="black" points="1028.5,-556 743.5,-556 743.5,-520 1028.5,-520 1028.5,-556"/>
<text text-anchor="start" x="752" y="-540.8" font-family="Monospace" font-size="9.00"> </text>
<text text-anchor="start" x="758" y="-540.2" font-family="Monospace" font-size="11.00">block_11_function_withdraw__91_92_0/17</text>
<text text-anchor="start" x="1015" y="-540.8" font-family="Monospace" font-size="9.00"> </text>
<text text-anchor="start" x="752" y="-529.8" font-family="Monospace" font-size="9.00"> </text>
<text text-anchor="start" x="875" y="-530.4" font-family="Monospace" font-size="7.00">local</text>
<text text-anchor="start" x="1015" y="-529.8" font-family="Monospace" font-size="9.00"> </text>
</a>
</g>
</g>
<!-- summary_5_function_withdraw__91_92_0/13&#45;&gt;summary_4_function_withdraw__91_92_0/13 -->
<g id="edge13" class="edge">
<title>summary_5_function_withdraw__91_92_0/13&#45;&gt;summary_4_function_withdraw__91_92_0/13</title>
<path fill="none" stroke="black" d="M1025.92,-637.88C1060.23,-617.58 1117.51,-583.68 1155.28,-561.33"/>
<polygon fill="black" stroke="black" points="1157.14,-564.29 1163.96,-556.19 1153.57,-558.27 1157.14,-564.29"/>
<g id="a_edge13&#45;label"><a xlink:title="calls">
<text text-anchor="middle" x="1113.5" y="-594.8" font-family="Monospace" font-size="9.00">calls</text>
</a>
</g>
</g>
<!-- summary_5_function_withdraw__91_92_0/13&#45;&gt;block_11_function_withdraw__91_92_0/17 -->
<g id="edge12" class="edge">
<title>summary_5_function_withdraw__91_92_0/13&#45;&gt;block_11_function_withdraw__91_92_0/17</title>
<path fill="none" stroke="black" d="M980.62,-637.88C961.85,-618.27 930.93,-585.95 909.57,-563.63"/>
<polygon fill="black" stroke="black" points="911.89,-560.99 902.45,-556.19 906.83,-565.83 911.89,-560.99"/>
<g id="a_edge12&#45;label"><a xlink:title="calls">
<text text-anchor="middle" x="957.5" y="-594.8" font-family="Monospace" font-size="9.00">calls</text>
</a>
</g>
</g>
<!-- interface_0_depositeth_92_0/6 -->
<g id="node10" class="node">
<title>interface_0_depositeth_92_0/6</title>
<g id="a_node10"><a xlink:title="GITHUB/SmartContractToGraph/DepositEth_wd&#45;sender&#45;rcv&#45;EOA_v1_parsed">
<polygon fill="cornsilk" stroke="black" points="961,-792 737,-792 737,-756 961,-756 961,-792"/>
<text text-anchor="start" x="745" y="-776.8" font-family="Monospace" font-size="9.00"> </text>
<text text-anchor="start" x="751" y="-776.2" font-family="Monospace" font-size="11.00">interface_0_depositeth_92_0/6</text>
<text text-anchor="start" x="947" y="-776.8" font-family="Monospace" font-size="9.00"> </text>
<text text-anchor="start" x="745" y="-765.8" font-family="Monospace" font-size="9.00"> </text>
<text text-anchor="start" x="837.5" y="-766.4" font-family="Monospace" font-size="7.00">local</text>
<text text-anchor="start" x="947" y="-765.8" font-family="Monospace" font-size="9.00"> </text>
</a>
</g>
</g>
<!-- interface_0_depositeth_92_0/6&#45;&gt;summary_5_function_withdraw__91_92_0/13 -->
<g id="edge14" class="edge">
<title>interface_0_depositeth_92_0/6&#45;&gt;summary_5_function_withdraw__91_92_0/13</title>
<path fill="none" stroke="black" d="M870.84,-755.88C896.31,-735.92 938.55,-702.82 967.06,-680.47"/>
<polygon fill="black" stroke="black" points="969.36,-683.11 975.07,-674.19 965.04,-677.6 969.36,-683.11"/>
<g id="a_edge14&#45;label"><a xlink:title="calls">
<text text-anchor="middle" x="940.5" y="-712.8" font-family="Monospace" font-size="9.00">calls</text>
</a>
</g>
</g>
<!-- summary_constructor_2_depositeth_92_0/11 -->
<g id="node19" class="node">
<title>summary_constructor_2_depositeth_92_0/11</title>
<g id="a_node19"><a xlink:title="GITHUB/SmartContractToGraph/DepositEth_wd&#45;sender&#45;rcv&#45;EOA_v1_parsed">
<polygon fill="cornsilk" stroke="black" points="695.5,-674 396.5,-674 396.5,-638 695.5,-638 695.5,-674"/>
<text text-anchor="start" x="405" y="-658.8" font-family="Monospace" font-size="9.00"> </text>
<text text-anchor="start" x="411" y="-658.2" font-family="Monospace" font-size="11.00">summary_constructor_2_depositeth_92_0/11</text>
<text text-anchor="start" x="682" y="-658.8" font-family="Monospace" font-size="9.00"> </text>
<text text-anchor="start" x="405" y="-647.8" font-family="Monospace" font-size="9.00"> </text>
<text text-anchor="start" x="535" y="-648.4" font-family="Monospace" font-size="7.00">local</text>
<text text-anchor="start" x="682" y="-647.8" font-family="Monospace" font-size="9.00"> </text>
</a>
</g>
</g>
<!-- interface_0_depositeth_92_0/6&#45;&gt;summary_constructor_2_depositeth_92_0/11 -->
<g id="edge23" class="edge">
<title>interface_0_depositeth_92_0/6&#45;&gt;summary_constructor_2_depositeth_92_0/11</title>
<path fill="none" stroke="black" d="M804.29,-755.88C750.03,-735.11 658.57,-700.09 600.3,-677.79"/>
<polygon fill="black" stroke="black" points="601.48,-674.49 590.89,-674.19 598.98,-681.03 601.48,-674.49"/>
<g id="a_edge23&#45;label"><a xlink:title="calls">
<text text-anchor="middle" x="719.5" y="-712.8" font-family="Monospace" font-size="9.00">calls</text>
</a>
</g>
</g>
<!-- block_12_constructor_18_92_0/11 -->
<g id="node11" class="node">
<title>block_12_constructor_18_92_0/11</title>
<g id="a_node11"><a xlink:title="GITHUB/SmartContractToGraph/DepositEth_wd&#45;sender&#45;rcv&#45;EOA_v1_parsed">
<polygon fill="cornsilk" stroke="black" points="665,-84 427,-84 427,-48 665,-48 665,-84"/>
<text text-anchor="start" x="435" y="-68.8" font-family="Monospace" font-size="9.00"> </text>
<text text-anchor="start" x="441" y="-68.2" font-family="Monospace" font-size="11.00">block_12_constructor_18_92_0/11</text>
<text text-anchor="start" x="651" y="-68.8" font-family="Monospace" font-size="9.00"> </text>
<text text-anchor="start" x="435" y="-57.8" font-family="Monospace" font-size="9.00"> </text>
<text text-anchor="start" x="534.5" y="-58.4" font-family="Monospace" font-size="7.00">local</text>
<text text-anchor="start" x="651" y="-57.8" font-family="Monospace" font-size="9.00"> </text>
</a>
</g>
</g>
<!-- block_13__17_92_0/11 -->
<g id="node12" class="node">
<title>block_13__17_92_0/11</title>
<g id="a_node12"><a xlink:title="GITHUB/SmartContractToGraph/DepositEth_wd&#45;sender&#45;rcv&#45;EOA_v1_parsed">
<polygon fill="cornsilk" stroke="black" points="628,-202 464,-202 464,-166 628,-166 628,-202"/>
<text text-anchor="start" x="472" y="-186.8" font-family="Monospace" font-size="9.00"> </text>
<text text-anchor="start" x="478" y="-186.2" font-family="Monospace" font-size="11.00">block_13__17_92_0/11</text>
<text text-anchor="start" x="614" y="-186.8" font-family="Monospace" font-size="9.00"> </text>
<text text-anchor="start" x="472" y="-175.8" font-family="Monospace" font-size="9.00"> </text>
<text text-anchor="start" x="534.5" y="-176.4" font-family="Monospace" font-size="7.00">local</text>
<text text-anchor="start" x="614" y="-175.8" font-family="Monospace" font-size="9.00"> </text>
</a>
</g>
</g>
<!-- block_13__17_92_0/11&#45;&gt;block_12_constructor_18_92_0/11 -->
<g id="edge15" class="edge">
<title>block_13__17_92_0/11&#45;&gt;block_12_constructor_18_92_0/11</title>
<path fill="none" stroke="black" d="M546,-165.88C546,-147.04 546,-116.47 546,-94.3"/>
<polygon fill="black" stroke="black" points="549.5,-94.19 546,-84.19 542.5,-94.19 549.5,-94.19"/>
<g id="a_edge15&#45;label"><a xlink:title="calls">
<text text-anchor="middle" x="559.5" y="-122.8" font-family="Monospace" font-size="9.00">calls</text>
</a>
</g>
</g>
<!-- block_14_return_constructor_18_92_0/11 -->
<g id="node13" class="node">
<title>block_14_return_constructor_18_92_0/11</title>
<g id="a_node13"><a xlink:title="GITHUB/SmartContractToGraph/DepositEth_wd&#45;sender&#45;rcv&#45;EOA_v1_parsed">
<polygon fill="cornsilk" stroke="black" points="688.5,-320 403.5,-320 403.5,-284 688.5,-284 688.5,-320"/>
<text text-anchor="start" x="412" y="-304.8" font-family="Monospace" font-size="9.00"> </text>
<text text-anchor="start" x="418" y="-304.2" font-family="Monospace" font-size="11.00">block_14_return_constructor_18_92_0/11</text>
<text text-anchor="start" x="675" y="-304.8" font-family="Monospace" font-size="9.00"> </text>
<text text-anchor="start" x="412" y="-293.8" font-family="Monospace" font-size="9.00"> </text>
<text text-anchor="start" x="535" y="-294.4" font-family="Monospace" font-size="7.00">local</text>
<text text-anchor="start" x="675" y="-293.8" font-family="Monospace" font-size="9.00"> </text>
</a>
</g>
</g>
<!-- block_14_return_constructor_18_92_0/11&#45;&gt;block_13__17_92_0/11 -->
<g id="edge16" class="edge">
<title>block_14_return_constructor_18_92_0/11&#45;&gt;block_13__17_92_0/11</title>
<path fill="none" stroke="black" d="M546,-283.88C546,-265.04 546,-234.47 546,-212.3"/>
<polygon fill="black" stroke="black" points="549.5,-212.19 546,-202.19 542.5,-212.19 549.5,-212.19"/>
<g id="a_edge16&#45;label"><a xlink:title="calls">
<text text-anchor="middle" x="559.5" y="-240.8" font-family="Monospace" font-size="9.00">calls</text>
</a>
</g>
</g>
<!-- summary_3_constructor_18_92_0/11 -->
<g id="node14" class="node">
<title>summary_3_constructor_18_92_0/11</title>
<g id="a_node14"><a xlink:title="GITHUB/SmartContractToGraph/DepositEth_wd&#45;sender&#45;rcv&#45;EOA_v1_parsed">
<polygon fill="cornsilk" stroke="black" points="667.5,-438 422.5,-438 422.5,-402 667.5,-402 667.5,-438"/>
<text text-anchor="start" x="431" y="-422.8" font-family="Monospace" font-size="9.00"> </text>
<text text-anchor="start" x="437" y="-422.2" font-family="Monospace" font-size="11.00">summary_3_constructor_18_92_0/11</text>
<text text-anchor="start" x="654" y="-422.8" font-family="Monospace" font-size="9.00"> </text>
<text text-anchor="start" x="431" y="-411.8" font-family="Monospace" font-size="9.00"> </text>
<text text-anchor="start" x="534" y="-412.4" font-family="Monospace" font-size="7.00">local</text>
<text text-anchor="start" x="654" y="-411.8" font-family="Monospace" font-size="9.00"> </text>
</a>
</g>
</g>
<!-- summary_3_constructor_18_92_0/11&#45;&gt;block_14_return_constructor_18_92_0/11 -->
<g id="edge17" class="edge">
<title>summary_3_constructor_18_92_0/11&#45;&gt;block_14_return_constructor_18_92_0/11</title>
<path fill="none" stroke="black" d="M545.15,-401.88C545.31,-383.04 545.57,-352.47 545.76,-330.3"/>
<polygon fill="black" stroke="black" points="549.27,-330.22 545.85,-320.19 542.27,-330.16 549.27,-330.22"/>
<g id="a_edge17&#45;label"><a xlink:title="calls">
<text text-anchor="middle" x="558.5" y="-358.8" font-family="Monospace" font-size="9.00">calls</text>
</a>
</g>
</g>
<!-- contract_initializer_entry_16_depositeth_92_0/11 -->
<g id="node15" class="node">
<title>contract_initializer_entry_16_depositeth_92_0/11</title>
<g id="a_node15"><a xlink:title="GITHUB/SmartContractToGraph/DepositEth_wd&#45;sender&#45;rcv&#45;EOA_v1_parsed">
<polygon fill="cornsilk" stroke="black" points="385.5,-320 32.5,-320 32.5,-284 385.5,-284 385.5,-320"/>
<text text-anchor="start" x="41" y="-304.8" font-family="Monospace" font-size="9.00"> </text>
<text text-anchor="start" x="47" y="-304.2" font-family="Monospace" font-size="11.00">contract_initializer_entry_16_depositeth_92_0/11</text>
<text text-anchor="start" x="372" y="-304.8" font-family="Monospace" font-size="9.00"> </text>
<text text-anchor="start" x="41" y="-293.8" font-family="Monospace" font-size="9.00"> </text>
<text text-anchor="start" x="198" y="-294.4" font-family="Monospace" font-size="7.00">local</text>
<text text-anchor="start" x="372" y="-293.8" font-family="Monospace" font-size="9.00"> </text>
</a>
</g>
</g>
<!-- contract_initializer_after_init_17_depositeth_92_0/11 -->
<g id="node16" class="node">
<title>contract_initializer_after_init_17_depositeth_92_0/11</title>
<g id="a_node16"><a xlink:title="GITHUB/SmartContractToGraph/DepositEth_wd&#45;sender&#45;rcv&#45;EOA_v1_parsed">
<polygon fill="cornsilk" stroke="black" points="404,-438 18,-438 18,-402 404,-402 404,-438"/>
<text text-anchor="start" x="26" y="-422.8" font-family="Monospace" font-size="9.00"> </text>
<text text-anchor="start" x="32" y="-422.2" font-family="Monospace" font-size="11.00">contract_initializer_after_init_17_depositeth_92_0/11</text>
<text text-anchor="start" x="390" y="-422.8" font-family="Monospace" font-size="9.00"> </text>
<text text-anchor="start" x="26" y="-411.8" font-family="Monospace" font-size="9.00"> </text>
<text text-anchor="start" x="199.5" y="-412.4" font-family="Monospace" font-size="7.00">local</text>
<text text-anchor="start" x="390" y="-411.8" font-family="Monospace" font-size="9.00"> </text>
</a>
</g>
</g>
<!-- contract_initializer_after_init_17_depositeth_92_0/11&#45;&gt;contract_initializer_entry_16_depositeth_92_0/11 -->
<g id="edge18" class="edge">
<title>contract_initializer_after_init_17_depositeth_92_0/11&#45;&gt;contract_initializer_entry_16_depositeth_92_0/11</title>
<path fill="none" stroke="black" d="M210.7,-401.88C210.38,-383.04 209.85,-352.47 209.47,-330.3"/>
<polygon fill="black" stroke="black" points="212.97,-330.12 209.3,-320.19 205.97,-330.25 212.97,-330.12"/>
<g id="a_edge18&#45;label"><a xlink:title="calls">
<text text-anchor="middle" x="223.5" y="-358.8" font-family="Monospace" font-size="9.00">calls</text>
</a>
</g>
</g>
<!-- contract_initializer_15_depositeth_92_0/11 -->
<g id="node17" class="node">
<title>contract_initializer_15_depositeth_92_0/11</title>
<g id="a_node17"><a xlink:title="GITHUB/SmartContractToGraph/DepositEth_wd&#45;sender&#45;rcv&#45;EOA_v1_parsed">
<polygon fill="cornsilk" stroke="black" points="702,-556 390,-556 390,-520 702,-520 702,-556"/>
<text text-anchor="start" x="398" y="-540.8" font-family="Monospace" font-size="9.00"> </text>
<text text-anchor="start" x="404" y="-540.2" font-family="Monospace" font-size="11.00">contract_initializer_15_depositeth_92_0/11</text>
<text text-anchor="start" x="688" y="-540.8" font-family="Monospace" font-size="9.00"> </text>
<text text-anchor="start" x="398" y="-529.8" font-family="Monospace" font-size="9.00"> </text>
<text text-anchor="start" x="534.5" y="-530.4" font-family="Monospace" font-size="7.00">local</text>
<text text-anchor="start" x="688" y="-529.8" font-family="Monospace" font-size="9.00"> </text>
</a>
</g>
</g>
<!-- contract_initializer_15_depositeth_92_0/11&#45;&gt;summary_3_constructor_18_92_0/11 -->
<g id="edge20" class="edge">
<title>contract_initializer_15_depositeth_92_0/11&#45;&gt;summary_3_constructor_18_92_0/11</title>
<path fill="none" stroke="black" d="M545.85,-519.88C545.69,-501.04 545.43,-470.47 545.24,-448.3"/>
<polygon fill="black" stroke="black" points="548.73,-448.16 545.15,-438.19 541.73,-448.22 548.73,-448.16"/>
<g id="a_edge20&#45;label"><a xlink:title="calls">
<text text-anchor="middle" x="558.5" y="-476.8" font-family="Monospace" font-size="9.00">calls</text>
</a>
</g>
</g>
<!-- contract_initializer_15_depositeth_92_0/11&#45;&gt;contract_initializer_after_init_17_depositeth_92_0/11 -->
<g id="edge19" class="edge">
<title>contract_initializer_15_depositeth_92_0/11&#45;&gt;contract_initializer_after_init_17_depositeth_92_0/11</title>
<path fill="none" stroke="black" d="M496.57,-519.88C436.24,-498.99 334.33,-463.7 269.96,-441.42"/>
<polygon fill="black" stroke="black" points="270.95,-438.06 260.36,-438.09 268.66,-444.67 270.95,-438.06"/>
<g id="a_edge19&#45;label"><a xlink:title="calls">
<text text-anchor="middle" x="401.5" y="-476.8" font-family="Monospace" font-size="9.00">calls</text>
</a>
</g>
</g>
<!-- implicit_constructor_entry_18_depositeth_92_0/11 -->
<g id="node18" class="node">
<title>implicit_constructor_entry_18_depositeth_92_0/11</title>
<g id="a_node18"><a xlink:title="GITHUB/SmartContractToGraph/DepositEth_wd&#45;sender&#45;rcv&#45;EOA_v1_parsed">
<polygon fill="cornsilk" stroke="black" points="371.5,-556 18.5,-556 18.5,-520 371.5,-520 371.5,-556"/>
<text text-anchor="start" x="27" y="-540.8" font-family="Monospace" font-size="9.00"> </text>
<text text-anchor="start" x="33" y="-540.2" font-family="Monospace" font-size="11.00">implicit_constructor_entry_18_depositeth_92_0/11</text>
<text text-anchor="start" x="358" y="-540.8" font-family="Monospace" font-size="9.00"> </text>
<text text-anchor="start" x="27" y="-529.8" font-family="Monospace" font-size="9.00"> </text>
<text text-anchor="start" x="184" y="-530.4" font-family="Monospace" font-size="7.00">local</text>
<text text-anchor="start" x="358" y="-529.8" font-family="Monospace" font-size="9.00"> </text>
</a>
</g>
</g>
<!-- summary_constructor_2_depositeth_92_0/11&#45;&gt;contract_initializer_15_depositeth_92_0/11 -->
<g id="edge22" class="edge">
<title>summary_constructor_2_depositeth_92_0/11&#45;&gt;contract_initializer_15_depositeth_92_0/11</title>
<path fill="none" stroke="black" d="M546,-637.88C546,-619.04 546,-588.47 546,-566.3"/>
<polygon fill="black" stroke="black" points="549.5,-566.19 546,-556.19 542.5,-566.19 549.5,-566.19"/>
<g id="a_edge22&#45;label"><a xlink:title="calls">
<text text-anchor="middle" x="559.5" y="-594.8" font-family="Monospace" font-size="9.00">calls</text>
</a>
</g>
</g>
<!-- summary_constructor_2_depositeth_92_0/11&#45;&gt;implicit_constructor_entry_18_depositeth_92_0/11 -->
<g id="edge21" class="edge">
<title>summary_constructor_2_depositeth_92_0/11&#45;&gt;implicit_constructor_entry_18_depositeth_92_0/11</title>
<path fill="none" stroke="black" d="M494.21,-637.88C430.87,-616.95 323.78,-581.56 256.37,-559.28"/>
<polygon fill="black" stroke="black" points="257.31,-555.91 246.72,-556.09 255.11,-562.55 257.31,-555.91"/>
<g id="a_edge21&#45;label"><a xlink:title="calls">
<text text-anchor="middle" x="394.5" y="-594.8" font-family="Monospace" font-size="9.00">calls</text>
</a>
</g>
</g>
<!-- error_target_3_0/0 -->
<g id="node20" class="node">
<title>error_target_3_0/0</title>
<g id="a_node20"><a xlink:title="GITHUB/SmartContractToGraph/DepositEth_wd&#45;sender&#45;rcv&#45;EOA_v1_parsed">
<polygon fill="cornsilk" stroke="black" points="1026,-910 876,-910 876,-874 1026,-874 1026,-910"/>
<text text-anchor="start" x="884" y="-894.8" font-family="Monospace" font-size="9.00"> </text>
<text text-anchor="start" x="890" y="-894.2" font-family="Monospace" font-size="11.00">error_target_3_0/0</text>
<text text-anchor="start" x="1012" y="-894.8" font-family="Monospace" font-size="9.00"> </text>
<text text-anchor="start" x="884" y="-883.8" font-family="Monospace" font-size="9.00"> </text>
<text text-anchor="start" x="939.5" y="-884.4" font-family="Monospace" font-size="7.00">local</text>
<text text-anchor="start" x="1012" y="-883.8" font-family="Monospace" font-size="9.00"> </text>
</a>
</g>
</g>
<!-- error_target_3_0/0&#45;&gt;summary_5_function_withdraw__91_92_0/13 -->
<g id="edge24" class="edge">
<title>error_target_3_0/0&#45;&gt;summary_5_function_withdraw__91_92_0/13</title>
<path fill="none" stroke="black" d="M954.38,-873.79C962.31,-833.48 982.13,-732.65 991.68,-684.04"/>
<polygon fill="black" stroke="black" points="995.12,-684.72 993.61,-674.23 988.25,-683.37 995.12,-684.72"/>
<g id="a_edge24&#45;label"><a xlink:title="calls">
<text text-anchor="middle" x="990.5" y="-771.8" font-family="Monospace" font-size="9.00">calls</text>
</a>
</g>
</g>
<!-- error_target_3_0/0&#45;&gt;interface_0_depositeth_92_0/6 -->
<g id="edge25" class="edge">
<title>error_target_3_0/0&#45;&gt;interface_0_depositeth_92_0/6</title>
<path fill="none" stroke="black" d="M935.95,-873.88C918.77,-854.35 890.53,-822.23 870.91,-799.92"/>
<polygon fill="black" stroke="black" points="873.34,-797.38 864.11,-792.19 868.09,-802.01 873.34,-797.38"/>
<g id="a_edge25&#45;label"><a xlink:title="calls">
<text text-anchor="middle" x="916.5" y="-830.8" font-family="Monospace" font-size="9.00">calls</text>
</a>
</g>
</g>
<!-- ff/0 -->
<g id="node21" class="node">
<title>ff/0</title>
<g id="a_node21"><a xlink:title="GITHUB/SmartContractToGraph/DepositEth_wd&#45;sender&#45;rcv&#45;EOA_v1_parsed">
<polygon fill="cornsilk" stroke="black" points="979,-1028 923,-1028 923,-992 979,-992 979,-1028"/>
<text text-anchor="start" x="931" y="-1012.8" font-family="Monospace" font-size="9.00"> </text>
<text text-anchor="start" x="937" y="-1012.2" font-family="Monospace" font-size="11.00">ff/0</text>
<text text-anchor="start" x="965" y="-1012.8" font-family="Monospace" font-size="9.00"> </text>
<text text-anchor="start" x="931" y="-1001.8" font-family="Monospace" font-size="9.00"> </text>
<text text-anchor="start" x="939.5" y="-1002.4" font-family="Monospace" font-size="7.00">local</text>
<text text-anchor="start" x="965" y="-1001.8" font-family="Monospace" font-size="9.00"> </text>
</a>
</g>
</g>
<!-- ff/0&#45;&gt;error_target_3_0/0 -->
<g id="edge26" class="edge">
<title>ff/0&#45;&gt;error_target_3_0/0</title>
<path fill="none" stroke="black" d="M951,-991.88C951,-973.04 951,-942.47 951,-920.3"/>
<polygon fill="black" stroke="black" points="954.5,-920.19 951,-910.19 947.5,-920.19 954.5,-920.19"/>
<g id="a_edge26&#45;label"><a xlink:title="calls">
<text text-anchor="middle" x="964.5" y="-948.8" font-family="Monospace" font-size="9.00">calls</text>
</a>
</g>
</g>
</g>
</svg>
