<?xml version="1.0" encoding="UTF-8" standalone="no"?>
<?xml-stylesheet href="diagrams.css" type="text/css"?>
<!DOCTYPE svg PUBLIC "-//W3C//DTD SVG 1.1//EN"
 "http://www.w3.org/Graphics/SVG/1.1/DTD/svg11.dtd">
<!-- Generated by graphviz version 2.43.0 (0)
 -->
<!-- Title: Bank_withdraw&#45;user&#45;balance_v1_parsed_object Pages: 1 -->
<svg width="2040pt" height="1107pt"
 viewBox="72.00 72.00 1968.00 1035.00" xmlns="http://www.w3.org/2000/svg" xmlns:xlink="http://www.w3.org/1999/xlink">
<g id="graph0" class="graph" transform="scale(1 1) rotate(0) translate(76 1031)">
<title>Bank_withdraw&#45;user&#45;balance_v1_parsed_object</title>
<polygon fill="white" stroke="transparent" points="-4,4 -4,-959 1892,-959 1892,4 -4,4"/>
<text text-anchor="start" x="8" y="-18" font-family="Monospace" font-size="10.00" fill="dimgray">Cross&#45;referencing diagram for object Bank_withdraw&#45;user&#45;balance_v1_parsed</text>
<text text-anchor="start" x="8" y="-7" font-family="Monospace" font-size="10.00" fill="dimgray">Generated on 2024&#45;06&#45;06, 13:05</text>
<g id="clust1" class="cluster">
<title>cluster_Bank_withdraw&#45;user&#45;balance_v1_parsed_object</title>
<g id="a_clust1"><a xlink:title="GITHUB/SmartContractToGraph/Bank_withdraw&#45;user&#45;balance_v1_parsed">
<path fill="snow" stroke="dimgray" d="M20,-38C20,-38 1868,-38 1868,-38 1874,-38 1880,-44 1880,-50 1880,-50 1880,-935 1880,-935 1880,-941 1874,-947 1868,-947 1868,-947 20,-947 20,-947 14,-947 8,-941 8,-935 8,-935 8,-50 8,-50 8,-44 14,-38 20,-38"/>
<text text-anchor="start" x="20.5" y="-930.5" font-family="Monospace" font-size="10.00" fill="dimgray">Bank_withdraw&#45;user&#45;balance_v1_parsed</text>
</a>
</g>
</g>
<!-- nondet_interface_1_bank_85_0/8 -->
<g id="node1" class="node">
<title>nondet_interface_1_bank_85_0/8</title>
<g id="a_node1"><a xlink:title="GITHUB/SmartContractToGraph/Bank_withdraw&#45;user&#45;balance_v1_parsed">
<polygon fill="cornsilk" stroke="black" points="1473.5,-674 1242.5,-674 1242.5,-638 1473.5,-638 1473.5,-674"/>
<text text-anchor="start" x="1251" y="-658.8" font-family="Monospace" font-size="9.00"> </text>
<text text-anchor="start" x="1257" y="-658.2" font-family="Monospace" font-size="11.00">nondet_interface_1_bank_85_0/8</text>
<text text-anchor="start" x="1460" y="-658.8" font-family="Monospace" font-size="9.00"> </text>
<text text-anchor="start" x="1251" y="-647.8" font-family="Monospace" font-size="9.00"> </text>
<text text-anchor="start" x="1347" y="-648.4" font-family="Monospace" font-size="7.00">local</text>
<text text-anchor="start" x="1460" y="-647.8" font-family="Monospace" font-size="9.00"> </text>
</a>
</g>
</g>
<!-- summary_4_function_deposit__18_85_0/9 -->
<g id="node7" class="node">
<title>summary_4_function_deposit__18_85_0/9</title>
<g id="a_node7"><a xlink:title="GITHUB/SmartContractToGraph/Bank_withdraw&#45;user&#45;balance_v1_parsed">
<polygon fill="cornsilk" stroke="black" points="1194,-556 916,-556 916,-520 1194,-520 1194,-556"/>
<text text-anchor="start" x="924" y="-540.8" font-family="Monospace" font-size="9.00"> </text>
<text text-anchor="start" x="930" y="-540.2" font-family="Monospace" font-size="11.00">summary_4_function_deposit__18_85_0/9</text>
<text text-anchor="start" x="1180" y="-540.8" font-family="Monospace" font-size="9.00"> </text>
<text text-anchor="start" x="924" y="-529.8" font-family="Monospace" font-size="9.00"> </text>
<text text-anchor="start" x="1043.5" y="-530.4" font-family="Monospace" font-size="7.00">local</text>
<text text-anchor="start" x="1180" y="-529.8" font-family="Monospace" font-size="9.00"> </text>
</a>
</g>
</g>
<!-- nondet_interface_1_bank_85_0/8&#45;&gt;summary_4_function_deposit__18_85_0/9 -->
<g id="edge1" class="edge">
<title>nondet_interface_1_bank_85_0/8&#45;&gt;summary_4_function_deposit__18_85_0/9</title>
<path fill="none" stroke="black" d="M1313.29,-637.88C1259.03,-617.11 1167.57,-582.09 1109.3,-559.79"/>
<polygon fill="black" stroke="black" points="1110.48,-556.49 1099.89,-556.19 1107.98,-563.03 1110.48,-556.49"/>
<g id="a_edge1&#45;label"><a xlink:title="calls">
<text text-anchor="middle" x="1228.5" y="-594.8" font-family="Monospace" font-size="9.00">calls</text>
</a>
</g>
</g>
<!-- summary_6_function_withdraw__84_85_0/11 -->
<g id="node16" class="node">
<title>summary_6_function_withdraw__84_85_0/11</title>
<g id="a_node16"><a xlink:title="GITHUB/SmartContractToGraph/Bank_withdraw&#45;user&#45;balance_v1_parsed">
<polygon fill="cornsilk" stroke="black" points="1504,-556 1212,-556 1212,-520 1504,-520 1504,-556"/>
<text text-anchor="start" x="1220" y="-540.8" font-family="Monospace" font-size="9.00"> </text>
<text text-anchor="start" x="1226" y="-540.2" font-family="Monospace" font-size="11.00">summary_6_function_withdraw__84_85_0/11</text>
<text text-anchor="start" x="1490" y="-540.8" font-family="Monospace" font-size="9.00"> </text>
<text text-anchor="start" x="1220" y="-529.8" font-family="Monospace" font-size="9.00"> </text>
<text text-anchor="start" x="1346.5" y="-530.4" font-family="Monospace" font-size="7.00">local</text>
<text text-anchor="start" x="1490" y="-529.8" font-family="Monospace" font-size="9.00"> </text>
</a>
</g>
</g>
<!-- nondet_interface_1_bank_85_0/8&#45;&gt;summary_6_function_withdraw__84_85_0/11 -->
<g id="edge2" class="edge">
<title>nondet_interface_1_bank_85_0/8&#45;&gt;summary_6_function_withdraw__84_85_0/11</title>
<path fill="none" stroke="black" d="M1358,-637.88C1358,-619.04 1358,-588.47 1358,-566.3"/>
<polygon fill="black" stroke="black" points="1361.5,-566.19 1358,-556.19 1354.5,-566.19 1361.5,-566.19"/>
<g id="a_edge2&#45;label"><a xlink:title="calls">
<text text-anchor="middle" x="1371.5" y="-594.8" font-family="Monospace" font-size="9.00">calls</text>
</a>
</g>
</g>
<!-- block_7_function_deposit__18_85_0/9 -->
<g id="node2" class="node">
<title>block_7_function_deposit__18_85_0/9</title>
<g id="a_node2"><a xlink:title="GITHUB/SmartContractToGraph/Bank_withdraw&#45;user&#45;balance_v1_parsed">
<polygon fill="cornsilk" stroke="black" points="896.5,-84 631.5,-84 631.5,-48 896.5,-48 896.5,-84"/>
<text text-anchor="start" x="640" y="-68.8" font-family="Monospace" font-size="9.00"> </text>
<text text-anchor="start" x="646" y="-68.2" font-family="Monospace" font-size="11.00">block_7_function_deposit__18_85_0/9</text>
<text text-anchor="start" x="883" y="-68.8" font-family="Monospace" font-size="9.00"> </text>
<text text-anchor="start" x="640" y="-57.8" font-family="Monospace" font-size="9.00"> </text>
<text text-anchor="start" x="753" y="-58.4" font-family="Monospace" font-size="7.00">local</text>
<text text-anchor="start" x="883" y="-57.8" font-family="Monospace" font-size="9.00"> </text>
</a>
</g>
</g>
<!-- block_8_deposit_17_85_0/9 -->
<g id="node3" class="node">
<title>block_8_deposit_17_85_0/9</title>
<g id="a_node3"><a xlink:title="GITHUB/SmartContractToGraph/Bank_withdraw&#45;user&#45;balance_v1_parsed">
<polygon fill="cornsilk" stroke="black" points="862.5,-202 665.5,-202 665.5,-166 862.5,-166 862.5,-202"/>
<text text-anchor="start" x="674" y="-186.8" font-family="Monospace" font-size="9.00"> </text>
<text text-anchor="start" x="680" y="-186.2" font-family="Monospace" font-size="11.00">block_8_deposit_17_85_0/9</text>
<text text-anchor="start" x="849" y="-186.8" font-family="Monospace" font-size="9.00"> </text>
<text text-anchor="start" x="674" y="-175.8" font-family="Monospace" font-size="9.00"> </text>
<text text-anchor="start" x="753" y="-176.4" font-family="Monospace" font-size="7.00">local</text>
<text text-anchor="start" x="849" y="-175.8" font-family="Monospace" font-size="9.00"> </text>
</a>
</g>
</g>
<!-- block_8_deposit_17_85_0/9&#45;&gt;block_7_function_deposit__18_85_0/9 -->
<g id="edge3" class="edge">
<title>block_8_deposit_17_85_0/9&#45;&gt;block_7_function_deposit__18_85_0/9</title>
<path fill="none" stroke="black" d="M764,-165.88C764,-147.04 764,-116.47 764,-94.3"/>
<polygon fill="black" stroke="black" points="767.5,-94.19 764,-84.19 760.5,-94.19 767.5,-94.19"/>
<g id="a_edge3&#45;label"><a xlink:title="calls">
<text text-anchor="middle" x="777.5" y="-122.8" font-family="Monospace" font-size="9.00">calls</text>
</a>
</g>
</g>
<!-- block_9_return_function_deposit__18_85_0/9 -->
<g id="node4" class="node">
<title>block_9_return_function_deposit__18_85_0/9</title>
<g id="a_node4"><a xlink:title="GITHUB/SmartContractToGraph/Bank_withdraw&#45;user&#45;balance_v1_parsed">
<polygon fill="cornsilk" stroke="black" points="920,-320 608,-320 608,-284 920,-284 920,-320"/>
<text text-anchor="start" x="616" y="-304.8" font-family="Monospace" font-size="9.00"> </text>
<text text-anchor="start" x="622" y="-304.2" font-family="Monospace" font-size="11.00">block_9_return_function_deposit__18_85_0/9</text>
<text text-anchor="start" x="906" y="-304.8" font-family="Monospace" font-size="9.00"> </text>
<text text-anchor="start" x="616" y="-293.8" font-family="Monospace" font-size="9.00"> </text>
<text text-anchor="start" x="752.5" y="-294.4" font-family="Monospace" font-size="7.00">local</text>
<text text-anchor="start" x="906" y="-293.8" font-family="Monospace" font-size="9.00"> </text>
</a>
</g>
</g>
<!-- block_9_return_function_deposit__18_85_0/9&#45;&gt;block_8_deposit_17_85_0/9 -->
<g id="edge4" class="edge">
<title>block_9_return_function_deposit__18_85_0/9&#45;&gt;block_8_deposit_17_85_0/9</title>
<path fill="none" stroke="black" d="M764,-283.88C764,-265.04 764,-234.47 764,-212.3"/>
<polygon fill="black" stroke="black" points="767.5,-212.19 764,-202.19 760.5,-212.19 767.5,-212.19"/>
<g id="a_edge4&#45;label"><a xlink:title="calls">
<text text-anchor="middle" x="777.5" y="-240.8" font-family="Monospace" font-size="9.00">calls</text>
</a>
</g>
</g>
<!-- summary_3_function_deposit__18_85_0/9 -->
<g id="node5" class="node">
<title>summary_3_function_deposit__18_85_0/9</title>
<g id="a_node5"><a xlink:title="GITHUB/SmartContractToGraph/Bank_withdraw&#45;user&#45;balance_v1_parsed">
<polygon fill="cornsilk" stroke="black" points="903,-438 625,-438 625,-402 903,-402 903,-438"/>
<text text-anchor="start" x="633" y="-422.8" font-family="Monospace" font-size="9.00"> </text>
<text text-anchor="start" x="639" y="-422.2" font-family="Monospace" font-size="11.00">summary_3_function_deposit__18_85_0/9</text>
<text text-anchor="start" x="889" y="-422.8" font-family="Monospace" font-size="9.00"> </text>
<text text-anchor="start" x="633" y="-411.8" font-family="Monospace" font-size="9.00"> </text>
<text text-anchor="start" x="752.5" y="-412.4" font-family="Monospace" font-size="7.00">local</text>
<text text-anchor="start" x="889" y="-411.8" font-family="Monospace" font-size="9.00"> </text>
</a>
</g>
</g>
<!-- summary_3_function_deposit__18_85_0/9&#45;&gt;block_9_return_function_deposit__18_85_0/9 -->
<g id="edge5" class="edge">
<title>summary_3_function_deposit__18_85_0/9&#45;&gt;block_9_return_function_deposit__18_85_0/9</title>
<path fill="none" stroke="black" d="M764,-401.88C764,-383.04 764,-352.47 764,-330.3"/>
<polygon fill="black" stroke="black" points="767.5,-330.19 764,-320.19 760.5,-330.19 767.5,-330.19"/>
<g id="a_edge5&#45;label"><a xlink:title="calls">
<text text-anchor="middle" x="777.5" y="-358.8" font-family="Monospace" font-size="9.00">calls</text>
</a>
</g>
</g>
<!-- block_10_function_deposit__18_85_0/9 -->
<g id="node6" class="node">
<title>block_10_function_deposit__18_85_0/9</title>
<g id="a_node6"><a xlink:title="GITHUB/SmartContractToGraph/Bank_withdraw&#45;user&#45;balance_v1_parsed">
<polygon fill="cornsilk" stroke="black" points="1193,-438 921,-438 921,-402 1193,-402 1193,-438"/>
<text text-anchor="start" x="929" y="-422.8" font-family="Monospace" font-size="9.00"> </text>
<text text-anchor="start" x="935" y="-422.2" font-family="Monospace" font-size="11.00">block_10_function_deposit__18_85_0/9</text>
<text text-anchor="start" x="1179" y="-422.8" font-family="Monospace" font-size="9.00"> </text>
<text text-anchor="start" x="929" y="-411.8" font-family="Monospace" font-size="9.00"> </text>
<text text-anchor="start" x="1045.5" y="-412.4" font-family="Monospace" font-size="7.00">local</text>
<text text-anchor="start" x="1179" y="-411.8" font-family="Monospace" font-size="9.00"> </text>
</a>
</g>
</g>
<!-- summary_4_function_deposit__18_85_0/9&#45;&gt;summary_3_function_deposit__18_85_0/9 -->
<g id="edge7" class="edge">
<title>summary_4_function_deposit__18_85_0/9&#45;&gt;summary_3_function_deposit__18_85_0/9</title>
<path fill="none" stroke="black" d="M1012.06,-519.88C960.05,-499.15 872.47,-464.24 816.5,-441.93"/>
<polygon fill="black" stroke="black" points="817.7,-438.64 807.11,-438.19 815.11,-445.14 817.7,-438.64"/>
<g id="a_edge7&#45;label"><a xlink:title="calls">
<text text-anchor="middle" x="931.5" y="-476.8" font-family="Monospace" font-size="9.00">calls</text>
</a>
</g>
</g>
<!-- summary_4_function_deposit__18_85_0/9&#45;&gt;block_10_function_deposit__18_85_0/9 -->
<g id="edge6" class="edge">
<title>summary_4_function_deposit__18_85_0/9&#45;&gt;block_10_function_deposit__18_85_0/9</title>
<path fill="none" stroke="black" d="M1055.3,-519.88C1055.62,-501.04 1056.15,-470.47 1056.53,-448.3"/>
<polygon fill="black" stroke="black" points="1060.03,-448.25 1056.7,-438.19 1053.03,-448.12 1060.03,-448.25"/>
<g id="a_edge6&#45;label"><a xlink:title="calls">
<text text-anchor="middle" x="1069.5" y="-476.8" font-family="Monospace" font-size="9.00">calls</text>
</a>
</g>
</g>
<!-- interface_0_bank_85_0/5 -->
<g id="node8" class="node">
<title>interface_0_bank_85_0/5</title>
<g id="a_node8"><a xlink:title="GITHUB/SmartContractToGraph/Bank_withdraw&#45;user&#45;balance_v1_parsed">
<polygon fill="cornsilk" stroke="black" points="1158,-674 974,-674 974,-638 1158,-638 1158,-674"/>
<text text-anchor="start" x="982" y="-658.8" font-family="Monospace" font-size="9.00"> </text>
<text text-anchor="start" x="988" y="-658.2" font-family="Monospace" font-size="11.00">interface_0_bank_85_0/5</text>
<text text-anchor="start" x="1144" y="-658.8" font-family="Monospace" font-size="9.00"> </text>
<text text-anchor="start" x="982" y="-647.8" font-family="Monospace" font-size="9.00"> </text>
<text text-anchor="start" x="1054.5" y="-648.4" font-family="Monospace" font-size="7.00">local</text>
<text text-anchor="start" x="1144" y="-647.8" font-family="Monospace" font-size="9.00"> </text>
</a>
</g>
</g>
<!-- interface_0_bank_85_0/5&#45;&gt;summary_4_function_deposit__18_85_0/9 -->
<g id="edge8" class="edge">
<title>interface_0_bank_85_0/5&#45;&gt;summary_4_function_deposit__18_85_0/9</title>
<path fill="none" stroke="black" d="M1064.38,-637.88C1062.59,-619.04 1059.69,-588.47 1057.59,-566.3"/>
<polygon fill="black" stroke="black" points="1061.06,-565.81 1056.63,-556.19 1054.09,-566.47 1061.06,-565.81"/>
<g id="a_edge8&#45;label"><a xlink:title="calls">
<text text-anchor="middle" x="1073.5" y="-594.8" font-family="Monospace" font-size="9.00">calls</text>
</a>
</g>
</g>
<!-- interface_0_bank_85_0/5&#45;&gt;summary_6_function_withdraw__84_85_0/11 -->
<g id="edge21" class="edge">
<title>interface_0_bank_85_0/5&#45;&gt;summary_6_function_withdraw__84_85_0/11</title>
<path fill="none" stroke="black" d="M1074.33,-637.81C1082.26,-623.32 1095.55,-603.22 1113,-592 1133.59,-578.76 1183.4,-566.92 1232.77,-557.81"/>
<polygon fill="black" stroke="black" points="1233.41,-561.25 1242.63,-556.02 1232.16,-554.36 1233.41,-561.25"/>
<g id="a_edge21&#45;label"><a xlink:title="calls">
<text text-anchor="middle" x="1126.5" y="-594.8" font-family="Monospace" font-size="9.00">calls</text>
</a>
</g>
</g>
<!-- summary_constructor_2_bank_85_0/9 -->
<g id="node21" class="node">
<title>summary_constructor_2_bank_85_0/9</title>
<g id="a_node21"><a xlink:title="GITHUB/SmartContractToGraph/Bank_withdraw&#45;user&#45;balance_v1_parsed">
<polygon fill="cornsilk" stroke="black" points="579.5,-556 328.5,-556 328.5,-520 579.5,-520 579.5,-556"/>
<text text-anchor="start" x="337" y="-540.8" font-family="Monospace" font-size="9.00"> </text>
<text text-anchor="start" x="343" y="-540.2" font-family="Monospace" font-size="11.00">summary_constructor_2_bank_85_0/9</text>
<text text-anchor="start" x="566" y="-540.8" font-family="Monospace" font-size="9.00"> </text>
<text text-anchor="start" x="337" y="-529.8" font-family="Monospace" font-size="9.00"> </text>
<text text-anchor="start" x="443" y="-530.4" font-family="Monospace" font-size="7.00">local</text>
<text text-anchor="start" x="566" y="-529.8" font-family="Monospace" font-size="9.00"> </text>
</a>
</g>
</g>
<!-- interface_0_bank_85_0/5&#45;&gt;summary_constructor_2_bank_85_0/9 -->
<g id="edge26" class="edge">
<title>interface_0_bank_85_0/5&#45;&gt;summary_constructor_2_bank_85_0/9</title>
<path fill="none" stroke="black" d="M976.03,-637.95C863.35,-616.59 670.93,-580.12 553.82,-557.92"/>
<polygon fill="black" stroke="black" points="554.26,-554.44 543.78,-556.02 552.95,-561.32 554.26,-554.44"/>
<g id="a_edge26&#45;label"><a xlink:title="calls">
<text text-anchor="middle" x="791.5" y="-594.8" font-family="Monospace" font-size="9.00">calls</text>
</a>
</g>
</g>
<!-- block_11_function_withdraw__84_85_0/14 -->
<g id="node9" class="node">
<title>block_11_function_withdraw__84_85_0/14</title>
<g id="a_node9"><a xlink:title="GITHUB/SmartContractToGraph/Bank_withdraw&#45;user&#45;balance_v1_parsed">
<polygon fill="cornsilk" stroke="black" points="1433.5,-84 1148.5,-84 1148.5,-48 1433.5,-48 1433.5,-84"/>
<text text-anchor="start" x="1157" y="-68.8" font-family="Monospace" font-size="9.00"> </text>
<text text-anchor="start" x="1163" y="-68.2" font-family="Monospace" font-size="11.00">block_11_function_withdraw__84_85_0/14</text>
<text text-anchor="start" x="1420" y="-68.8" font-family="Monospace" font-size="9.00"> </text>
<text text-anchor="start" x="1157" y="-57.8" font-family="Monospace" font-size="9.00"> </text>
<text text-anchor="start" x="1280" y="-58.4" font-family="Monospace" font-size="7.00">local</text>
<text text-anchor="start" x="1420" y="-57.8" font-family="Monospace" font-size="9.00"> </text>
</a>
</g>
</g>
<!-- block_12_withdraw_83_85_0/14 -->
<g id="node10" class="node">
<title>block_12_withdraw_83_85_0/14</title>
<g id="a_node10"><a xlink:title="GITHUB/SmartContractToGraph/Bank_withdraw&#45;user&#45;balance_v1_parsed">
<polygon fill="cornsilk" stroke="black" points="1400,-202 1182,-202 1182,-166 1400,-166 1400,-202"/>
<text text-anchor="start" x="1190" y="-186.8" font-family="Monospace" font-size="9.00"> </text>
<text text-anchor="start" x="1196" y="-186.2" font-family="Monospace" font-size="11.00">block_12_withdraw_83_85_0/14</text>
<text text-anchor="start" x="1386" y="-186.8" font-family="Monospace" font-size="9.00"> </text>
<text text-anchor="start" x="1190" y="-175.8" font-family="Monospace" font-size="9.00"> </text>
<text text-anchor="start" x="1279.5" y="-176.4" font-family="Monospace" font-size="7.00">local</text>
<text text-anchor="start" x="1386" y="-175.8" font-family="Monospace" font-size="9.00"> </text>
</a>
</g>
</g>
<!-- block_12_withdraw_83_85_0/14&#45;&gt;block_11_function_withdraw__84_85_0/14 -->
<g id="edge9" class="edge">
<title>block_12_withdraw_83_85_0/14&#45;&gt;block_11_function_withdraw__84_85_0/14</title>
<path fill="none" stroke="black" d="M1291,-165.88C1291,-147.04 1291,-116.47 1291,-94.3"/>
<polygon fill="black" stroke="black" points="1294.5,-94.19 1291,-84.19 1287.5,-94.19 1294.5,-94.19"/>
<g id="a_edge9&#45;label"><a xlink:title="calls">
<text text-anchor="middle" x="1304.5" y="-122.8" font-family="Monospace" font-size="9.00">calls</text>
</a>
</g>
</g>
<!-- nondet_call_14_0/8 -->
<g id="node11" class="node">
<title>nondet_call_14_0/8</title>
<g id="a_node11"><a xlink:title="GITHUB/SmartContractToGraph/Bank_withdraw&#45;user&#45;balance_v1_parsed">
<polygon fill="cornsilk" stroke="black" points="1782,-202 1632,-202 1632,-166 1782,-166 1782,-202"/>
<text text-anchor="start" x="1640" y="-186.8" font-family="Monospace" font-size="9.00"> </text>
<text text-anchor="start" x="1646" y="-186.2" font-family="Monospace" font-size="11.00">nondet_call_14_0/8</text>
<text text-anchor="start" x="1768" y="-186.8" font-family="Monospace" font-size="9.00"> </text>
<text text-anchor="start" x="1640" y="-175.8" font-family="Monospace" font-size="9.00"> </text>
<text text-anchor="start" x="1695.5" y="-176.4" font-family="Monospace" font-size="7.00">local</text>
<text text-anchor="start" x="1768" y="-175.8" font-family="Monospace" font-size="9.00"> </text>
</a>
</g>
</g>
<!-- nondet_call_14_0/8&#45;&gt;nondet_interface_1_bank_85_0/8 -->
<g id="edge10" class="edge">
<title>nondet_call_14_0/8&#45;&gt;nondet_interface_1_bank_85_0/8</title>
<path fill="none" stroke="black" d="M1753.04,-202.11C1792.5,-220.1 1843,-252.59 1843,-301 1843,-539 1843,-539 1843,-539 1843,-612.87 1627.48,-639.8 1483.77,-649.55"/>
<polygon fill="black" stroke="black" points="1483.3,-646.07 1473.55,-650.22 1483.76,-653.06 1483.3,-646.07"/>
<g id="a_edge10&#45;label"><a xlink:title="calls">
<text text-anchor="middle" x="1856.5" y="-417.8" font-family="Monospace" font-size="9.00">calls</text>
</a>
</g>
</g>
<!-- summary_5_function_withdraw__84_85_0/11 -->
<g id="node12" class="node">
<title>summary_5_function_withdraw__84_85_0/11</title>
<g id="a_node12"><a xlink:title="GITHUB/SmartContractToGraph/Bank_withdraw&#45;user&#45;balance_v1_parsed">
<polygon fill="cornsilk" stroke="black" points="1807,-438 1515,-438 1515,-402 1807,-402 1807,-438"/>
<text text-anchor="start" x="1523" y="-422.8" font-family="Monospace" font-size="9.00"> </text>
<text text-anchor="start" x="1529" y="-422.2" font-family="Monospace" font-size="11.00">summary_5_function_withdraw__84_85_0/11</text>
<text text-anchor="start" x="1793" y="-422.8" font-family="Monospace" font-size="9.00"> </text>
<text text-anchor="start" x="1523" y="-411.8" font-family="Monospace" font-size="9.00"> </text>
<text text-anchor="start" x="1649.5" y="-412.4" font-family="Monospace" font-size="7.00">local</text>
<text text-anchor="start" x="1793" y="-411.8" font-family="Monospace" font-size="9.00"> </text>
</a>
</g>
</g>
<!-- summary_5_function_withdraw__84_85_0/11&#45;&gt;block_12_withdraw_83_85_0/14 -->
<g id="edge11" class="edge">
<title>summary_5_function_withdraw__84_85_0/11&#45;&gt;block_12_withdraw_83_85_0/14</title>
<path fill="none" stroke="black" d="M1539.11,-401.95C1375.48,-378.49 1103.47,-337.19 1089,-320 1044.94,-267.65 1137.82,-227.44 1211.79,-205"/>
<polygon fill="black" stroke="black" points="1213.03,-208.29 1221.63,-202.09 1211.05,-201.57 1213.03,-208.29"/>
<g id="a_edge11&#45;label"><a xlink:title="calls">
<text text-anchor="middle" x="1102.5" y="-299.8" font-family="Monospace" font-size="9.00">calls</text>
</a>
</g>
</g>
<!-- summary_5_function_withdraw__84_85_0/11&#45;&gt;nondet_call_14_0/8 -->
<g id="edge12" class="edge">
<title>summary_5_function_withdraw__84_85_0/11&#45;&gt;nondet_call_14_0/8</title>
<path fill="none" stroke="black" d="M1691.02,-401.85C1717.39,-384.88 1753.96,-356.23 1770,-320 1787.15,-281.25 1756.55,-236.81 1732.29,-209.83"/>
<polygon fill="black" stroke="black" points="1734.72,-207.31 1725.34,-202.37 1729.6,-212.08 1734.72,-207.31"/>
<g id="a_edge12&#45;label"><a xlink:title="calls">
<text text-anchor="middle" x="1787.5" y="-299.8" font-family="Monospace" font-size="9.00">calls</text>
</a>
</g>
</g>
<!-- block_15_function_withdraw__84_85_0/14 -->
<g id="node13" class="node">
<title>block_15_function_withdraw__84_85_0/14</title>
<g id="a_node13"><a xlink:title="GITHUB/SmartContractToGraph/Bank_withdraw&#45;user&#45;balance_v1_parsed">
<polygon fill="cornsilk" stroke="black" points="1760.5,-320 1475.5,-320 1475.5,-284 1760.5,-284 1760.5,-320"/>
<text text-anchor="start" x="1484" y="-304.8" font-family="Monospace" font-size="9.00"> </text>
<text text-anchor="start" x="1490" y="-304.2" font-family="Monospace" font-size="11.00">block_15_function_withdraw__84_85_0/14</text>
<text text-anchor="start" x="1747" y="-304.8" font-family="Monospace" font-size="9.00"> </text>
<text text-anchor="start" x="1484" y="-293.8" font-family="Monospace" font-size="9.00"> </text>
<text text-anchor="start" x="1607" y="-294.4" font-family="Monospace" font-size="7.00">local</text>
<text text-anchor="start" x="1747" y="-293.8" font-family="Monospace" font-size="9.00"> </text>
</a>
</g>
</g>
<!-- summary_5_function_withdraw__84_85_0/11&#45;&gt;block_15_function_withdraw__84_85_0/14 -->
<g id="edge15" class="edge">
<title>summary_5_function_withdraw__84_85_0/11&#45;&gt;block_15_function_withdraw__84_85_0/14</title>
<path fill="none" stroke="black" d="M1654.66,-401.88C1647.61,-382.86 1636.13,-351.91 1627.9,-329.7"/>
<polygon fill="black" stroke="black" points="1631.13,-328.35 1624.37,-320.19 1624.56,-330.78 1631.13,-328.35"/>
<g id="a_edge15&#45;label"><a xlink:title="calls">
<text text-anchor="middle" x="1653.5" y="-358.8" font-family="Monospace" font-size="9.00">calls</text>
</a>
</g>
</g>
<!-- block_13_return_function_withdraw__84_85_0/14 -->
<g id="node14" class="node">
<title>block_13_return_function_withdraw__84_85_0/14</title>
<g id="a_node14"><a xlink:title="GITHUB/SmartContractToGraph/Bank_withdraw&#45;user&#45;balance_v1_parsed">
<polygon fill="cornsilk" stroke="black" points="1457,-320 1125,-320 1125,-284 1457,-284 1457,-320"/>
<text text-anchor="start" x="1133" y="-304.8" font-family="Monospace" font-size="9.00"> </text>
<text text-anchor="start" x="1139" y="-304.2" font-family="Monospace" font-size="11.00">block_13_return_function_withdraw__84_85_0/14</text>
<text text-anchor="start" x="1443" y="-304.8" font-family="Monospace" font-size="9.00"> </text>
<text text-anchor="start" x="1133" y="-293.8" font-family="Monospace" font-size="9.00"> </text>
<text text-anchor="start" x="1279.5" y="-294.4" font-family="Monospace" font-size="7.00">local</text>
<text text-anchor="start" x="1443" y="-293.8" font-family="Monospace" font-size="9.00"> </text>
</a>
</g>
</g>
<!-- summary_5_function_withdraw__84_85_0/11&#45;&gt;block_13_return_function_withdraw__84_85_0/14 -->
<g id="edge18" class="edge">
<title>summary_5_function_withdraw__84_85_0/11&#45;&gt;block_13_return_function_withdraw__84_85_0/14</title>
<path fill="none" stroke="black" d="M1606.41,-401.88C1539.5,-380.91 1426.29,-345.41 1355.25,-323.14"/>
<polygon fill="black" stroke="black" points="1356.11,-319.74 1345.52,-320.09 1354.01,-326.42 1356.11,-319.74"/>
<g id="a_edge18&#45;label"><a xlink:title="calls">
<text text-anchor="middle" x="1500.5" y="-358.8" font-family="Monospace" font-size="9.00">calls</text>
</a>
</g>
</g>
<!-- block_15_function_withdraw__84_85_0/14&#45;&gt;block_12_withdraw_83_85_0/14 -->
<g id="edge13" class="edge">
<title>block_15_function_withdraw__84_85_0/14&#45;&gt;block_12_withdraw_83_85_0/14</title>
<path fill="none" stroke="black" d="M1569.75,-283.88C1510.98,-263.04 1411.79,-227.85 1348.94,-205.56"/>
<polygon fill="black" stroke="black" points="1349.78,-202.14 1339.18,-202.09 1347.44,-208.73 1349.78,-202.14"/>
<g id="a_edge13&#45;label"><a xlink:title="calls">
<text text-anchor="middle" x="1477.5" y="-240.8" font-family="Monospace" font-size="9.00">calls</text>
</a>
</g>
</g>
<!-- block_15_function_withdraw__84_85_0/14&#45;&gt;nondet_call_14_0/8 -->
<g id="edge14" class="edge">
<title>block_15_function_withdraw__84_85_0/14&#45;&gt;nondet_call_14_0/8</title>
<path fill="none" stroke="black" d="M1631.13,-283.88C1646.05,-264.44 1670.55,-232.51 1687.65,-210.21"/>
<polygon fill="black" stroke="black" points="1690.5,-212.25 1693.81,-202.19 1684.95,-207.99 1690.5,-212.25"/>
<g id="a_edge14&#45;label"><a xlink:title="calls">
<text text-anchor="middle" x="1678.5" y="-240.8" font-family="Monospace" font-size="9.00">calls</text>
</a>
</g>
</g>
<!-- block_13_return_function_withdraw__84_85_0/14&#45;&gt;block_12_withdraw_83_85_0/14 -->
<g id="edge16" class="edge">
<title>block_13_return_function_withdraw__84_85_0/14&#45;&gt;block_12_withdraw_83_85_0/14</title>
<path fill="none" stroke="black" d="M1291,-283.88C1291,-265.04 1291,-234.47 1291,-212.3"/>
<polygon fill="black" stroke="black" points="1294.5,-212.19 1291,-202.19 1287.5,-212.19 1294.5,-212.19"/>
<g id="a_edge16&#45;label"><a xlink:title="calls">
<text text-anchor="middle" x="1304.5" y="-240.8" font-family="Monospace" font-size="9.00">calls</text>
</a>
</g>
</g>
<!-- block_13_return_function_withdraw__84_85_0/14&#45;&gt;nondet_call_14_0/8 -->
<g id="edge17" class="edge">
<title>block_13_return_function_withdraw__84_85_0/14&#45;&gt;nondet_call_14_0/8</title>
<path fill="none" stroke="black" d="M1359.16,-283.92C1398.88,-273.81 1449.88,-260.56 1495,-248 1544.31,-234.27 1599.76,-217.76 1641.57,-205.08"/>
<polygon fill="black" stroke="black" points="1642.81,-208.36 1651.36,-202.11 1640.77,-201.67 1642.81,-208.36"/>
<g id="a_edge17&#45;label"><a xlink:title="calls">
<text text-anchor="middle" x="1542.5" y="-240.8" font-family="Monospace" font-size="9.00">calls</text>
</a>
</g>
</g>
<!-- block_16_function_withdraw__84_85_0/14 -->
<g id="node15" class="node">
<title>block_16_function_withdraw__84_85_0/14</title>
<g id="a_node15"><a xlink:title="GITHUB/SmartContractToGraph/Bank_withdraw&#45;user&#45;balance_v1_parsed">
<polygon fill="cornsilk" stroke="black" points="1496.5,-438 1211.5,-438 1211.5,-402 1496.5,-402 1496.5,-438"/>
<text text-anchor="start" x="1220" y="-422.8" font-family="Monospace" font-size="9.00"> </text>
<text text-anchor="start" x="1226" y="-422.2" font-family="Monospace" font-size="11.00">block_16_function_withdraw__84_85_0/14</text>
<text text-anchor="start" x="1483" y="-422.8" font-family="Monospace" font-size="9.00"> </text>
<text text-anchor="start" x="1220" y="-411.8" font-family="Monospace" font-size="9.00"> </text>
<text text-anchor="start" x="1343" y="-412.4" font-family="Monospace" font-size="7.00">local</text>
<text text-anchor="start" x="1483" y="-411.8" font-family="Monospace" font-size="9.00"> </text>
</a>
</g>
</g>
<!-- summary_6_function_withdraw__84_85_0/11&#45;&gt;summary_5_function_withdraw__84_85_0/11 -->
<g id="edge20" class="edge">
<title>summary_6_function_withdraw__84_85_0/11&#45;&gt;summary_5_function_withdraw__84_85_0/11</title>
<path fill="none" stroke="black" d="M1402.71,-519.88C1456.97,-499.11 1548.43,-464.09 1606.7,-441.79"/>
<polygon fill="black" stroke="black" points="1608.02,-445.03 1616.11,-438.19 1605.52,-438.49 1608.02,-445.03"/>
<g id="a_edge20&#45;label"><a xlink:title="calls">
<text text-anchor="middle" x="1531.5" y="-476.8" font-family="Monospace" font-size="9.00">calls</text>
</a>
</g>
</g>
<!-- summary_6_function_withdraw__84_85_0/11&#45;&gt;block_16_function_withdraw__84_85_0/14 -->
<g id="edge19" class="edge">
<title>summary_6_function_withdraw__84_85_0/11&#45;&gt;block_16_function_withdraw__84_85_0/14</title>
<path fill="none" stroke="black" d="M1357.41,-519.88C1356.76,-501.04 1355.71,-470.47 1354.94,-448.3"/>
<polygon fill="black" stroke="black" points="1358.44,-448.06 1354.59,-438.19 1351.44,-448.3 1358.44,-448.06"/>
<g id="a_edge19&#45;label"><a xlink:title="calls">
<text text-anchor="middle" x="1369.5" y="-476.8" font-family="Monospace" font-size="9.00">calls</text>
</a>
</g>
</g>
<!-- contract_initializer_entry_18_bank_85_0/9 -->
<g id="node17" class="node">
<title>contract_initializer_entry_18_bank_85_0/9</title>
<g id="a_node17"><a xlink:title="GITHUB/SmartContractToGraph/Bank_withdraw&#45;user&#45;balance_v1_parsed">
<polygon fill="cornsilk" stroke="black" points="340.5,-202 35.5,-202 35.5,-166 340.5,-166 340.5,-202"/>
<text text-anchor="start" x="44" y="-186.8" font-family="Monospace" font-size="9.00"> </text>
<text text-anchor="start" x="50" y="-186.2" font-family="Monospace" font-size="11.00">contract_initializer_entry_18_bank_85_0/9</text>
<text text-anchor="start" x="327" y="-186.8" font-family="Monospace" font-size="9.00"> </text>
<text text-anchor="start" x="44" y="-175.8" font-family="Monospace" font-size="9.00"> </text>
<text text-anchor="start" x="177" y="-176.4" font-family="Monospace" font-size="7.00">local</text>
<text text-anchor="start" x="327" y="-175.8" font-family="Monospace" font-size="9.00"> </text>
</a>
</g>
</g>
<!-- contract_initializer_after_init_19_bank_85_0/9 -->
<g id="node18" class="node">
<title>contract_initializer_after_init_19_bank_85_0/9</title>
<g id="a_node18"><a xlink:title="GITHUB/SmartContractToGraph/Bank_withdraw&#45;user&#45;balance_v1_parsed">
<polygon fill="cornsilk" stroke="black" points="357.5,-320 18.5,-320 18.5,-284 357.5,-284 357.5,-320"/>
<text text-anchor="start" x="27" y="-304.8" font-family="Monospace" font-size="9.00"> </text>
<text text-anchor="start" x="33" y="-304.2" font-family="Monospace" font-size="11.00">contract_initializer_after_init_19_bank_85_0/9</text>
<text text-anchor="start" x="344" y="-304.8" font-family="Monospace" font-size="9.00"> </text>
<text text-anchor="start" x="27" y="-293.8" font-family="Monospace" font-size="9.00"> </text>
<text text-anchor="start" x="177" y="-294.4" font-family="Monospace" font-size="7.00">local</text>
<text text-anchor="start" x="344" y="-293.8" font-family="Monospace" font-size="9.00"> </text>
</a>
</g>
</g>
<!-- contract_initializer_after_init_19_bank_85_0/9&#45;&gt;contract_initializer_entry_18_bank_85_0/9 -->
<g id="edge22" class="edge">
<title>contract_initializer_after_init_19_bank_85_0/9&#45;&gt;contract_initializer_entry_18_bank_85_0/9</title>
<path fill="none" stroke="black" d="M188,-283.88C188,-265.04 188,-234.47 188,-212.3"/>
<polygon fill="black" stroke="black" points="191.5,-212.19 188,-202.19 184.5,-212.19 191.5,-212.19"/>
<g id="a_edge22&#45;label"><a xlink:title="calls">
<text text-anchor="middle" x="201.5" y="-240.8" font-family="Monospace" font-size="9.00">calls</text>
</a>
</g>
</g>
<!-- contract_initializer_17_bank_85_0/9 -->
<g id="node19" class="node">
<title>contract_initializer_17_bank_85_0/9</title>
<g id="a_node19"><a xlink:title="GITHUB/SmartContractToGraph/Bank_withdraw&#45;user&#45;balance_v1_parsed">
<polygon fill="cornsilk" stroke="black" points="283.5,-438 18.5,-438 18.5,-402 283.5,-402 283.5,-438"/>
<text text-anchor="start" x="27" y="-422.8" font-family="Monospace" font-size="9.00"> </text>
<text text-anchor="start" x="33" y="-422.2" font-family="Monospace" font-size="11.00">contract_initializer_17_bank_85_0/9</text>
<text text-anchor="start" x="270" y="-422.8" font-family="Monospace" font-size="9.00"> </text>
<text text-anchor="start" x="27" y="-411.8" font-family="Monospace" font-size="9.00"> </text>
<text text-anchor="start" x="140" y="-412.4" font-family="Monospace" font-size="7.00">local</text>
<text text-anchor="start" x="270" y="-411.8" font-family="Monospace" font-size="9.00"> </text>
</a>
</g>
</g>
<!-- contract_initializer_17_bank_85_0/9&#45;&gt;contract_initializer_after_init_19_bank_85_0/9 -->
<g id="edge23" class="edge">
<title>contract_initializer_17_bank_85_0/9&#45;&gt;contract_initializer_after_init_19_bank_85_0/9</title>
<path fill="none" stroke="black" d="M156.46,-401.88C162.5,-382.95 172.31,-352.19 179.39,-330"/>
<polygon fill="black" stroke="black" points="182.81,-330.78 182.52,-320.19 176.14,-328.65 182.81,-330.78"/>
<g id="a_edge23&#45;label"><a xlink:title="calls">
<text text-anchor="middle" x="183.5" y="-358.8" font-family="Monospace" font-size="9.00">calls</text>
</a>
</g>
</g>
<!-- implicit_constructor_entry_20_bank_85_0/9 -->
<g id="node20" class="node">
<title>implicit_constructor_entry_20_bank_85_0/9</title>
<g id="a_node20"><a xlink:title="GITHUB/SmartContractToGraph/Bank_withdraw&#45;user&#45;balance_v1_parsed">
<polygon fill="cornsilk" stroke="black" points="606.5,-438 301.5,-438 301.5,-402 606.5,-402 606.5,-438"/>
<text text-anchor="start" x="310" y="-422.8" font-family="Monospace" font-size="9.00"> </text>
<text text-anchor="start" x="316" y="-422.2" font-family="Monospace" font-size="11.00">implicit_constructor_entry_20_bank_85_0/9</text>
<text text-anchor="start" x="593" y="-422.8" font-family="Monospace" font-size="9.00"> </text>
<text text-anchor="start" x="310" y="-411.8" font-family="Monospace" font-size="9.00"> </text>
<text text-anchor="start" x="443" y="-412.4" font-family="Monospace" font-size="7.00">local</text>
<text text-anchor="start" x="593" y="-411.8" font-family="Monospace" font-size="9.00"> </text>
</a>
</g>
</g>
<!-- summary_constructor_2_bank_85_0/9&#45;&gt;contract_initializer_17_bank_85_0/9 -->
<g id="edge25" class="edge">
<title>summary_constructor_2_bank_85_0/9&#45;&gt;contract_initializer_17_bank_85_0/9</title>
<path fill="none" stroke="black" d="M409.29,-519.88C355.03,-499.11 263.57,-464.09 205.3,-441.79"/>
<polygon fill="black" stroke="black" points="206.48,-438.49 195.89,-438.19 203.98,-445.03 206.48,-438.49"/>
<g id="a_edge25&#45;label"><a xlink:title="calls">
<text text-anchor="middle" x="324.5" y="-476.8" font-family="Monospace" font-size="9.00">calls</text>
</a>
</g>
</g>
<!-- summary_constructor_2_bank_85_0/9&#45;&gt;implicit_constructor_entry_20_bank_85_0/9 -->
<g id="edge24" class="edge">
<title>summary_constructor_2_bank_85_0/9&#45;&gt;implicit_constructor_entry_20_bank_85_0/9</title>
<path fill="none" stroke="black" d="M454,-519.88C454,-501.04 454,-470.47 454,-448.3"/>
<polygon fill="black" stroke="black" points="457.5,-448.19 454,-438.19 450.5,-448.19 457.5,-448.19"/>
<g id="a_edge24&#45;label"><a xlink:title="calls">
<text text-anchor="middle" x="467.5" y="-476.8" font-family="Monospace" font-size="9.00">calls</text>
</a>
</g>
</g>
<!-- error_target_3_0/0 -->
<g id="node22" class="node">
<title>error_target_3_0/0</title>
<g id="a_node22"><a xlink:title="GITHUB/SmartContractToGraph/Bank_withdraw&#45;user&#45;balance_v1_parsed">
<polygon fill="cornsilk" stroke="black" points="1230,-792 1080,-792 1080,-756 1230,-756 1230,-792"/>
<text text-anchor="start" x="1088" y="-776.8" font-family="Monospace" font-size="9.00"> </text>
<text text-anchor="start" x="1094" y="-776.2" font-family="Monospace" font-size="11.00">error_target_3_0/0</text>
<text text-anchor="start" x="1216" y="-776.8" font-family="Monospace" font-size="9.00"> </text>
<text text-anchor="start" x="1088" y="-765.8" font-family="Monospace" font-size="9.00"> </text>
<text text-anchor="start" x="1143.5" y="-766.4" font-family="Monospace" font-size="7.00">local</text>
<text text-anchor="start" x="1216" y="-765.8" font-family="Monospace" font-size="9.00"> </text>
</a>
</g>
</g>
<!-- error_target_3_0/0&#45;&gt;interface_0_bank_85_0/5 -->
<g id="edge28" class="edge">
<title>error_target_3_0/0&#45;&gt;interface_0_bank_85_0/5</title>
<path fill="none" stroke="black" d="M1141.87,-755.88C1126.95,-736.44 1102.45,-704.51 1085.35,-682.21"/>
<polygon fill="black" stroke="black" points="1088.05,-679.99 1079.19,-674.19 1082.5,-684.25 1088.05,-679.99"/>
<g id="a_edge28&#45;label"><a xlink:title="calls">
<text text-anchor="middle" x="1126.5" y="-712.8" font-family="Monospace" font-size="9.00">calls</text>
</a>
</g>
</g>
<!-- error_target_3_0/0&#45;&gt;summary_6_function_withdraw__84_85_0/11 -->
<g id="edge27" class="edge">
<title>error_target_3_0/0&#45;&gt;summary_6_function_withdraw__84_85_0/11</title>
<path fill="none" stroke="black" d="M1158.05,-755.95C1163.66,-728.56 1177.82,-674.16 1207,-638 1234.53,-603.89 1277.05,-577.5 1309.96,-560.58"/>
<polygon fill="black" stroke="black" points="1311.6,-563.67 1318.97,-556.06 1308.46,-557.41 1311.6,-563.67"/>
<g id="a_edge27&#45;label"><a xlink:title="calls">
<text text-anchor="middle" x="1220.5" y="-653.8" font-family="Monospace" font-size="9.00">calls</text>
</a>
</g>
</g>
<!-- ff/0 -->
<g id="node23" class="node">
<title>ff/0</title>
<g id="a_node23"><a xlink:title="GITHUB/SmartContractToGraph/Bank_withdraw&#45;user&#45;balance_v1_parsed">
<polygon fill="cornsilk" stroke="black" points="1183,-910 1127,-910 1127,-874 1183,-874 1183,-910"/>
<text text-anchor="start" x="1135" y="-894.8" font-family="Monospace" font-size="9.00"> </text>
<text text-anchor="start" x="1141" y="-894.2" font-family="Monospace" font-size="11.00">ff/0</text>
<text text-anchor="start" x="1169" y="-894.8" font-family="Monospace" font-size="9.00"> </text>
<text text-anchor="start" x="1135" y="-883.8" font-family="Monospace" font-size="9.00"> </text>
<text text-anchor="start" x="1143.5" y="-884.4" font-family="Monospace" font-size="7.00">local</text>
<text text-anchor="start" x="1169" y="-883.8" font-family="Monospace" font-size="9.00"> </text>
</a>
</g>
</g>
<!-- ff/0&#45;&gt;error_target_3_0/0 -->
<g id="edge29" class="edge">
<title>ff/0&#45;&gt;error_target_3_0/0</title>
<path fill="none" stroke="black" d="M1155,-873.88C1155,-855.04 1155,-824.47 1155,-802.3"/>
<polygon fill="black" stroke="black" points="1158.5,-802.19 1155,-792.19 1151.5,-802.19 1158.5,-802.19"/>
<g id="a_edge29&#45;label"><a xlink:title="calls">
<text text-anchor="middle" x="1168.5" y="-830.8" font-family="Monospace" font-size="9.00">calls</text>
</a>
</g>
</g>
</g>
</svg>
