<?xml version="1.0" encoding="UTF-8" standalone="no"?>
<?xml-stylesheet href="diagrams.css" type="text/css"?>
<!DOCTYPE svg PUBLIC "-//W3C//DTD SVG 1.1//EN"
 "http://www.w3.org/Graphics/SVG/1.1/DTD/svg11.dtd">
<!-- Generated by graphviz version 2.43.0 (0)
 -->
<!-- Title: DepositEth_wd&#45;leq&#45;init&#45;bal_v1_parsed_object Pages: 1 -->
<svg width="2176pt" height="1225pt"
 viewBox="72.00 72.00 2104.00 1153.00" xmlns="http://www.w3.org/2000/svg" xmlns:xlink="http://www.w3.org/1999/xlink">
<g id="graph0" class="graph" transform="scale(1 1) rotate(0) translate(76 1149)">
<title>DepositEth_wd&#45;leq&#45;init&#45;bal_v1_parsed_object</title>
<polygon fill="white" stroke="transparent" points="-4,4 -4,-1077 2028,-1077 2028,4 -4,4"/>
<text text-anchor="start" x="8" y="-18" font-family="Monospace" font-size="10.00" fill="dimgray">Cross&#45;referencing diagram for object DepositEth_wd&#45;leq&#45;init&#45;bal_v1_parsed</text>
<text text-anchor="start" x="8" y="-7" font-family="Monospace" font-size="10.00" fill="dimgray">Generated on 2024&#45;05&#45;02, 12:51</text>
<g id="clust1" class="cluster">
<title>cluster_DepositEth_wd&#45;leq&#45;init&#45;bal_v1_parsed_object</title>
<g id="a_clust1"><a xlink:title="GITHUB/SmartContractToGraph/DepositEth_wd&#45;leq&#45;init&#45;bal_v1_parsed.pl">
<path fill="snow" stroke="dimgray" d="M20,-38C20,-38 2004,-38 2004,-38 2010,-38 2016,-44 2016,-50 2016,-50 2016,-1053 2016,-1053 2016,-1059 2010,-1065 2004,-1065 2004,-1065 20,-1065 20,-1065 14,-1065 8,-1059 8,-1053 8,-1053 8,-50 8,-50 8,-44 14,-38 20,-38"/>
<text text-anchor="start" x="20.5" y="-1048.5" font-family="Monospace" font-size="10.00" fill="dimgray">DepositEth_wd&#45;leq&#45;init&#45;bal_v1_parsed</text>
</a>
</g>
</g>
<!-- nondet_interface_1_depositeth_63_0/10 -->
<g id="node1" class="node">
<title>nondet_interface_1_depositeth_63_0/10</title>
<g id="a_node1"><a xlink:title="GITHUB/SmartContractToGraph/DepositEth_wd&#45;leq&#45;init&#45;bal_v1_parsed.pl">
<polygon fill="cornsilk" stroke="black" points="1750,-792 1472,-792 1472,-756 1750,-756 1750,-792"/>
<text text-anchor="start" x="1480" y="-776.8" font-family="Monospace" font-size="9.00"> </text>
<text text-anchor="start" x="1486" y="-776.2" font-family="Monospace" font-size="11.00">nondet_interface_1_depositeth_63_0/10</text>
<text text-anchor="start" x="1736" y="-776.8" font-family="Monospace" font-size="9.00"> </text>
<text text-anchor="start" x="1480" y="-765.8" font-family="Monospace" font-size="9.00"> </text>
<text text-anchor="start" x="1599.5" y="-766.4" font-family="Monospace" font-size="7.00">local</text>
<text text-anchor="start" x="1736" y="-765.8" font-family="Monospace" font-size="9.00"> </text>
</a>
</g>
</g>
<!-- summary_5_function_withdraw__52_63_0/13 -->
<g id="node8" class="node">
<title>summary_5_function_withdraw__52_63_0/13</title>
<g id="a_node8"><a xlink:title="GITHUB/SmartContractToGraph/DepositEth_wd&#45;leq&#45;init&#45;bal_v1_parsed.pl">
<polygon fill="cornsilk" stroke="black" points="1312,-674 1020,-674 1020,-638 1312,-638 1312,-674"/>
<text text-anchor="start" x="1028" y="-658.8" font-family="Monospace" font-size="9.00"> </text>
<text text-anchor="start" x="1034" y="-658.2" font-family="Monospace" font-size="11.00">summary_5_function_withdraw__52_63_0/13</text>
<text text-anchor="start" x="1298" y="-658.8" font-family="Monospace" font-size="9.00"> </text>
<text text-anchor="start" x="1028" y="-647.8" font-family="Monospace" font-size="9.00"> </text>
<text text-anchor="start" x="1154.5" y="-648.4" font-family="Monospace" font-size="7.00">local</text>
<text text-anchor="start" x="1298" y="-647.8" font-family="Monospace" font-size="9.00"> </text>
</a>
</g>
</g>
<!-- nondet_interface_1_depositeth_63_0/10&#45;&gt;summary_5_function_withdraw__52_63_0/13 -->
<g id="edge1" class="edge">
<title>nondet_interface_1_depositeth_63_0/10&#45;&gt;summary_5_function_withdraw__52_63_0/13</title>
<path fill="none" stroke="black" d="M1545.34,-755.88C1464.29,-734.76 1326.76,-698.91 1241.45,-676.67"/>
<polygon fill="black" stroke="black" points="1242.13,-673.23 1231.57,-674.09 1240.36,-680 1242.13,-673.23"/>
<g id="a_edge1&#45;label"><a xlink:title="calls">
<text text-anchor="middle" x="1414.5" y="-712.8" font-family="Monospace" font-size="9.00">calls</text>
</a>
</g>
</g>
<!-- summary_7_function_invariant__62_63_0/11 -->
<g id="node16" class="node">
<title>summary_7_function_invariant__62_63_0/11</title>
<g id="a_node16"><a xlink:title="GITHUB/SmartContractToGraph/DepositEth_wd&#45;leq&#45;init&#45;bal_v1_parsed.pl">
<polygon fill="cornsilk" stroke="black" points="1629.5,-674 1330.5,-674 1330.5,-638 1629.5,-638 1629.5,-674"/>
<text text-anchor="start" x="1339" y="-658.8" font-family="Monospace" font-size="9.00"> </text>
<text text-anchor="start" x="1345" y="-658.2" font-family="Monospace" font-size="11.00">summary_7_function_invariant__62_63_0/11</text>
<text text-anchor="start" x="1616" y="-658.8" font-family="Monospace" font-size="9.00"> </text>
<text text-anchor="start" x="1339" y="-647.8" font-family="Monospace" font-size="9.00"> </text>
<text text-anchor="start" x="1469" y="-648.4" font-family="Monospace" font-size="7.00">local</text>
<text text-anchor="start" x="1616" y="-647.8" font-family="Monospace" font-size="9.00"> </text>
</a>
</g>
</g>
<!-- nondet_interface_1_depositeth_63_0/10&#45;&gt;summary_7_function_invariant__62_63_0/11 -->
<g id="edge2" class="edge">
<title>nondet_interface_1_depositeth_63_0/10&#45;&gt;summary_7_function_invariant__62_63_0/11</title>
<path fill="none" stroke="black" d="M1591.67,-755.88C1569.32,-736.09 1532.38,-703.38 1507.15,-681.05"/>
<polygon fill="black" stroke="black" points="1509.22,-678.2 1499.41,-674.19 1504.58,-683.44 1509.22,-678.2"/>
<g id="a_edge2&#45;label"><a xlink:title="calls">
<text text-anchor="middle" x="1562.5" y="-712.8" font-family="Monospace" font-size="9.00">calls</text>
</a>
</g>
</g>
<!-- block_8_function_withdraw__52_63_0/14 -->
<g id="node2" class="node">
<title>block_8_function_withdraw__52_63_0/14</title>
<g id="a_node2"><a xlink:title="GITHUB/SmartContractToGraph/DepositEth_wd&#45;leq&#45;init&#45;bal_v1_parsed.pl">
<polygon fill="cornsilk" stroke="black" points="1122,-202 844,-202 844,-166 1122,-166 1122,-202"/>
<text text-anchor="start" x="852" y="-186.8" font-family="Monospace" font-size="9.00"> </text>
<text text-anchor="start" x="858" y="-186.2" font-family="Monospace" font-size="11.00">block_8_function_withdraw__52_63_0/14</text>
<text text-anchor="start" x="1108" y="-186.8" font-family="Monospace" font-size="9.00"> </text>
<text text-anchor="start" x="852" y="-175.8" font-family="Monospace" font-size="9.00"> </text>
<text text-anchor="start" x="971.5" y="-176.4" font-family="Monospace" font-size="7.00">local</text>
<text text-anchor="start" x="1108" y="-175.8" font-family="Monospace" font-size="9.00"> </text>
</a>
</g>
</g>
<!-- block_9_withdraw_51_63_0/14 -->
<g id="node3" class="node">
<title>block_9_withdraw_51_63_0/14</title>
<g id="a_node3"><a xlink:title="GITHUB/SmartContractToGraph/DepositEth_wd&#45;leq&#45;init&#45;bal_v1_parsed.pl">
<polygon fill="cornsilk" stroke="black" points="1088.5,-320 877.5,-320 877.5,-284 1088.5,-284 1088.5,-320"/>
<text text-anchor="start" x="886" y="-304.8" font-family="Monospace" font-size="9.00"> </text>
<text text-anchor="start" x="892" y="-304.2" font-family="Monospace" font-size="11.00">block_9_withdraw_51_63_0/14</text>
<text text-anchor="start" x="1075" y="-304.8" font-family="Monospace" font-size="9.00"> </text>
<text text-anchor="start" x="886" y="-293.8" font-family="Monospace" font-size="9.00"> </text>
<text text-anchor="start" x="972" y="-294.4" font-family="Monospace" font-size="7.00">local</text>
<text text-anchor="start" x="1075" y="-293.8" font-family="Monospace" font-size="9.00"> </text>
</a>
</g>
</g>
<!-- block_9_withdraw_51_63_0/14&#45;&gt;block_8_function_withdraw__52_63_0/14 -->
<g id="edge3" class="edge">
<title>block_9_withdraw_51_63_0/14&#45;&gt;block_8_function_withdraw__52_63_0/14</title>
<path fill="none" stroke="black" d="M983,-283.88C983,-265.04 983,-234.47 983,-212.3"/>
<polygon fill="black" stroke="black" points="986.5,-212.19 983,-202.19 979.5,-212.19 986.5,-212.19"/>
<g id="a_edge3&#45;label"><a xlink:title="calls">
<text text-anchor="middle" x="996.5" y="-240.8" font-family="Monospace" font-size="9.00">calls</text>
</a>
</g>
</g>
<!-- nondet_call_11_0/10 -->
<g id="node4" class="node">
<title>nondet_call_11_0/10</title>
<g id="a_node4"><a xlink:title="GITHUB/SmartContractToGraph/DepositEth_wd&#45;leq&#45;init&#45;bal_v1_parsed.pl">
<polygon fill="cornsilk" stroke="black" points="1369.5,-320 1212.5,-320 1212.5,-284 1369.5,-284 1369.5,-320"/>
<text text-anchor="start" x="1221" y="-304.8" font-family="Monospace" font-size="9.00"> </text>
<text text-anchor="start" x="1227" y="-304.2" font-family="Monospace" font-size="11.00">nondet_call_11_0/10</text>
<text text-anchor="start" x="1356" y="-304.8" font-family="Monospace" font-size="9.00"> </text>
<text text-anchor="start" x="1221" y="-293.8" font-family="Monospace" font-size="9.00"> </text>
<text text-anchor="start" x="1280" y="-294.4" font-family="Monospace" font-size="7.00">local</text>
<text text-anchor="start" x="1356" y="-293.8" font-family="Monospace" font-size="9.00"> </text>
</a>
</g>
</g>
<!-- nondet_call_11_0/10&#45;&gt;nondet_interface_1_depositeth_63_0/10 -->
<g id="edge4" class="edge">
<title>nondet_call_11_0/10&#45;&gt;nondet_interface_1_depositeth_63_0/10</title>
<path fill="none" stroke="black" d="M1293.29,-320.25C1298.02,-348.95 1311.58,-406.43 1347,-438 1446.04,-526.26 1551.89,-415.81 1634,-520 1686.72,-586.9 1646.81,-696.85 1624.02,-746.82"/>
<polygon fill="black" stroke="black" points="1620.8,-745.44 1619.73,-755.98 1627.14,-748.41 1620.8,-745.44"/>
<g id="a_edge4&#45;label"><a xlink:title="calls">
<text text-anchor="middle" x="1665.5" y="-535.8" font-family="Monospace" font-size="9.00">calls</text>
</a>
</g>
</g>
<!-- summary_4_function_withdraw__52_63_0/13 -->
<g id="node5" class="node">
<title>summary_4_function_withdraw__52_63_0/13</title>
<g id="a_node5"><a xlink:title="GITHUB/SmartContractToGraph/DepositEth_wd&#45;leq&#45;init&#45;bal_v1_parsed.pl">
<polygon fill="cornsilk" stroke="black" points="1315,-556 1023,-556 1023,-520 1315,-520 1315,-556"/>
<text text-anchor="start" x="1031" y="-540.8" font-family="Monospace" font-size="9.00"> </text>
<text text-anchor="start" x="1037" y="-540.2" font-family="Monospace" font-size="11.00">summary_4_function_withdraw__52_63_0/13</text>
<text text-anchor="start" x="1301" y="-540.8" font-family="Monospace" font-size="9.00"> </text>
<text text-anchor="start" x="1031" y="-529.8" font-family="Monospace" font-size="9.00"> </text>
<text text-anchor="start" x="1157.5" y="-530.4" font-family="Monospace" font-size="7.00">local</text>
<text text-anchor="start" x="1301" y="-529.8" font-family="Monospace" font-size="9.00"> </text>
</a>
</g>
</g>
<!-- summary_4_function_withdraw__52_63_0/13&#45;&gt;block_9_withdraw_51_63_0/14 -->
<g id="edge5" class="edge">
<title>summary_4_function_withdraw__52_63_0/13&#45;&gt;block_9_withdraw_51_63_0/14</title>
<path fill="none" stroke="black" d="M1022.92,-520.6C971.35,-506.97 918.43,-482.34 887,-438 859.02,-398.52 909.3,-352.61 947.05,-325.78"/>
<polygon fill="black" stroke="black" points="949.12,-328.6 955.36,-320.04 945.14,-322.85 949.12,-328.6"/>
<g id="a_edge5&#45;label"><a xlink:title="calls">
<text text-anchor="middle" x="900.5" y="-417.8" font-family="Monospace" font-size="9.00">calls</text>
</a>
</g>
</g>
<!-- summary_4_function_withdraw__52_63_0/13&#45;&gt;nondet_call_11_0/10 -->
<g id="edge6" class="edge">
<title>summary_4_function_withdraw__52_63_0/13&#45;&gt;nondet_call_11_0/10</title>
<path fill="none" stroke="black" d="M1191.62,-519.93C1213.66,-502.01 1246.36,-471.79 1264,-438 1281.95,-403.62 1287.99,-358.58 1290.01,-330.21"/>
<polygon fill="black" stroke="black" points="1293.5,-330.4 1290.6,-320.21 1286.52,-329.99 1293.5,-330.4"/>
<g id="a_edge6&#45;label"><a xlink:title="calls">
<text text-anchor="middle" x="1290.5" y="-417.8" font-family="Monospace" font-size="9.00">calls</text>
</a>
</g>
</g>
<!-- block_10_return_function_withdraw__52_63_0/14 -->
<g id="node6" class="node">
<title>block_10_return_function_withdraw__52_63_0/14</title>
<g id="a_node6"><a xlink:title="GITHUB/SmartContractToGraph/DepositEth_wd&#45;leq&#45;init&#45;bal_v1_parsed.pl">
<polygon fill="cornsilk" stroke="black" points="1255,-438 923,-438 923,-402 1255,-402 1255,-438"/>
<text text-anchor="start" x="931" y="-422.8" font-family="Monospace" font-size="9.00"> </text>
<text text-anchor="start" x="937" y="-422.2" font-family="Monospace" font-size="11.00">block_10_return_function_withdraw__52_63_0/14</text>
<text text-anchor="start" x="1241" y="-422.8" font-family="Monospace" font-size="9.00"> </text>
<text text-anchor="start" x="931" y="-411.8" font-family="Monospace" font-size="9.00"> </text>
<text text-anchor="start" x="1077.5" y="-412.4" font-family="Monospace" font-size="7.00">local</text>
<text text-anchor="start" x="1241" y="-411.8" font-family="Monospace" font-size="9.00"> </text>
</a>
</g>
</g>
<!-- summary_4_function_withdraw__52_63_0/13&#45;&gt;block_10_return_function_withdraw__52_63_0/14 -->
<g id="edge9" class="edge">
<title>summary_4_function_withdraw__52_63_0/13&#45;&gt;block_10_return_function_withdraw__52_63_0/14</title>
<path fill="none" stroke="black" d="M1157.2,-519.88C1143.84,-500.52 1121.96,-468.79 1106.59,-446.51"/>
<polygon fill="black" stroke="black" points="1109.41,-444.43 1100.85,-438.19 1103.65,-448.41 1109.41,-444.43"/>
<g id="a_edge9&#45;label"><a xlink:title="calls">
<text text-anchor="middle" x="1144.5" y="-476.8" font-family="Monospace" font-size="9.00">calls</text>
</a>
</g>
</g>
<!-- block_10_return_function_withdraw__52_63_0/14&#45;&gt;block_9_withdraw_51_63_0/14 -->
<g id="edge7" class="edge">
<title>block_10_return_function_withdraw__52_63_0/14&#45;&gt;block_9_withdraw_51_63_0/14</title>
<path fill="none" stroke="black" d="M1073.36,-401.88C1055.43,-382.27 1025.9,-349.95 1005.5,-327.63"/>
<polygon fill="black" stroke="black" points="1008.03,-325.21 998.7,-320.19 1002.87,-329.93 1008.03,-325.21"/>
<g id="a_edge7&#45;label"><a xlink:title="calls">
<text text-anchor="middle" x="1052.5" y="-358.8" font-family="Monospace" font-size="9.00">calls</text>
</a>
</g>
</g>
<!-- block_10_return_function_withdraw__52_63_0/14&#45;&gt;nondet_call_11_0/10 -->
<g id="edge8" class="edge">
<title>block_10_return_function_withdraw__52_63_0/14&#45;&gt;nondet_call_11_0/10</title>
<path fill="none" stroke="black" d="M1118.81,-401.88C1154.16,-381.58 1213.2,-347.68 1252.12,-325.33"/>
<polygon fill="black" stroke="black" points="1254.14,-328.2 1261.07,-320.19 1250.66,-322.13 1254.14,-328.2"/>
<g id="a_edge8&#45;label"><a xlink:title="calls">
<text text-anchor="middle" x="1209.5" y="-358.8" font-family="Monospace" font-size="9.00">calls</text>
</a>
</g>
</g>
<!-- block_12_function_withdraw__52_63_0/14 -->
<g id="node7" class="node">
<title>block_12_function_withdraw__52_63_0/14</title>
<g id="a_node7"><a xlink:title="GITHUB/SmartContractToGraph/DepositEth_wd&#45;leq&#45;init&#45;bal_v1_parsed.pl">
<polygon fill="cornsilk" stroke="black" points="1004.5,-556 719.5,-556 719.5,-520 1004.5,-520 1004.5,-556"/>
<text text-anchor="start" x="728" y="-540.8" font-family="Monospace" font-size="9.00"> </text>
<text text-anchor="start" x="734" y="-540.2" font-family="Monospace" font-size="11.00">block_12_function_withdraw__52_63_0/14</text>
<text text-anchor="start" x="991" y="-540.8" font-family="Monospace" font-size="9.00"> </text>
<text text-anchor="start" x="728" y="-529.8" font-family="Monospace" font-size="9.00"> </text>
<text text-anchor="start" x="851" y="-530.4" font-family="Monospace" font-size="7.00">local</text>
<text text-anchor="start" x="991" y="-529.8" font-family="Monospace" font-size="9.00"> </text>
</a>
</g>
</g>
<!-- summary_5_function_withdraw__52_63_0/13&#45;&gt;summary_4_function_withdraw__52_63_0/13 -->
<g id="edge11" class="edge">
<title>summary_5_function_withdraw__52_63_0/13&#45;&gt;summary_4_function_withdraw__52_63_0/13</title>
<path fill="none" stroke="black" d="M1166.44,-637.88C1166.93,-619.04 1167.72,-588.47 1168.29,-566.3"/>
<polygon fill="black" stroke="black" points="1171.8,-566.27 1168.56,-556.19 1164.8,-566.09 1171.8,-566.27"/>
<g id="a_edge11&#45;label"><a xlink:title="calls">
<text text-anchor="middle" x="1180.5" y="-594.8" font-family="Monospace" font-size="9.00">calls</text>
</a>
</g>
</g>
<!-- summary_5_function_withdraw__52_63_0/13&#45;&gt;block_12_function_withdraw__52_63_0/14 -->
<g id="edge10" class="edge">
<title>summary_5_function_withdraw__52_63_0/13&#45;&gt;block_12_function_withdraw__52_63_0/14</title>
<path fill="none" stroke="black" d="M1121.14,-637.88C1066.7,-617.11 974.94,-582.09 916.48,-559.79"/>
<polygon fill="black" stroke="black" points="917.63,-556.48 907.04,-556.19 915.14,-563.02 917.63,-556.48"/>
<g id="a_edge10&#45;label"><a xlink:title="calls">
<text text-anchor="middle" x="1036.5" y="-594.8" font-family="Monospace" font-size="9.00">calls</text>
</a>
</g>
</g>
<!-- interface_0_depositeth_63_0/6 -->
<g id="node9" class="node">
<title>interface_0_depositeth_63_0/6</title>
<g id="a_node9"><a xlink:title="GITHUB/SmartContractToGraph/DepositEth_wd&#45;leq&#45;init&#45;bal_v1_parsed.pl">
<polygon fill="cornsilk" stroke="black" points="1391,-792 1167,-792 1167,-756 1391,-756 1391,-792"/>
<text text-anchor="start" x="1175" y="-776.8" font-family="Monospace" font-size="9.00"> </text>
<text text-anchor="start" x="1181" y="-776.2" font-family="Monospace" font-size="11.00">interface_0_depositeth_63_0/6</text>
<text text-anchor="start" x="1377" y="-776.8" font-family="Monospace" font-size="9.00"> </text>
<text text-anchor="start" x="1175" y="-765.8" font-family="Monospace" font-size="9.00"> </text>
<text text-anchor="start" x="1267.5" y="-766.4" font-family="Monospace" font-size="7.00">local</text>
<text text-anchor="start" x="1377" y="-765.8" font-family="Monospace" font-size="9.00"> </text>
</a>
</g>
</g>
<!-- interface_0_depositeth_63_0/6&#45;&gt;summary_5_function_withdraw__52_63_0/13 -->
<g id="edge12" class="edge">
<title>interface_0_depositeth_63_0/6&#45;&gt;summary_5_function_withdraw__52_63_0/13</title>
<path fill="none" stroke="black" d="M1262.33,-755.88C1243.22,-736.27 1211.73,-703.95 1189.99,-681.63"/>
<polygon fill="black" stroke="black" points="1192.23,-678.91 1182.74,-674.19 1187.21,-683.79 1192.23,-678.91"/>
<g id="a_edge12&#45;label"><a xlink:title="calls">
<text text-anchor="middle" x="1238.5" y="-712.8" font-family="Monospace" font-size="9.00">calls</text>
</a>
</g>
</g>
<!-- interface_0_depositeth_63_0/6&#45;&gt;summary_7_function_invariant__62_63_0/11 -->
<g id="edge20" class="edge">
<title>interface_0_depositeth_63_0/6&#45;&gt;summary_7_function_invariant__62_63_0/11</title>
<path fill="none" stroke="black" d="M1292.41,-755.74C1304,-741.8 1321.86,-722.51 1341,-710 1361.71,-696.46 1386.39,-685.64 1409.17,-677.38"/>
<polygon fill="black" stroke="black" points="1410.52,-680.62 1418.8,-674.01 1408.2,-674.01 1410.52,-680.62"/>
<g id="a_edge20&#45;label"><a xlink:title="calls">
<text text-anchor="middle" x="1354.5" y="-712.8" font-family="Monospace" font-size="9.00">calls</text>
</a>
</g>
</g>
<!-- summary_constructor_2_depositeth_63_0/11 -->
<g id="node25" class="node">
<title>summary_constructor_2_depositeth_63_0/11</title>
<g id="a_node25"><a xlink:title="GITHUB/SmartContractToGraph/DepositEth_wd&#45;leq&#45;init&#45;bal_v1_parsed.pl">
<polygon fill="cornsilk" stroke="black" points="674.5,-674 375.5,-674 375.5,-638 674.5,-638 674.5,-674"/>
<text text-anchor="start" x="384" y="-658.8" font-family="Monospace" font-size="9.00"> </text>
<text text-anchor="start" x="390" y="-658.2" font-family="Monospace" font-size="11.00">summary_constructor_2_depositeth_63_0/11</text>
<text text-anchor="start" x="661" y="-658.8" font-family="Monospace" font-size="9.00"> </text>
<text text-anchor="start" x="384" y="-647.8" font-family="Monospace" font-size="9.00"> </text>
<text text-anchor="start" x="514" y="-648.4" font-family="Monospace" font-size="7.00">local</text>
<text text-anchor="start" x="661" y="-647.8" font-family="Monospace" font-size="9.00"> </text>
</a>
</g>
</g>
<!-- interface_0_depositeth_63_0/6&#45;&gt;summary_constructor_2_depositeth_63_0/11 -->
<g id="edge29" class="edge">
<title>interface_0_depositeth_63_0/6&#45;&gt;summary_constructor_2_depositeth_63_0/11</title>
<path fill="none" stroke="black" d="M1168.15,-755.95C1028.64,-734.48 789.88,-697.75 645.82,-675.59"/>
<polygon fill="black" stroke="black" points="646.03,-672.08 635.61,-674.02 644.96,-679 646.03,-672.08"/>
<g id="a_edge29&#45;label"><a xlink:title="calls">
<text text-anchor="middle" x="937.5" y="-712.8" font-family="Monospace" font-size="9.00">calls</text>
</a>
</g>
</g>
<!-- block_13_function_invariant__62_63_0/11 -->
<g id="node10" class="node">
<title>block_13_function_invariant__62_63_0/11</title>
<g id="a_node10"><a xlink:title="GITHUB/SmartContractToGraph/DepositEth_wd&#45;leq&#45;init&#45;bal_v1_parsed.pl">
<polygon fill="cornsilk" stroke="black" points="1815,-202 1523,-202 1523,-166 1815,-166 1815,-202"/>
<text text-anchor="start" x="1531" y="-186.8" font-family="Monospace" font-size="9.00"> </text>
<text text-anchor="start" x="1537" y="-186.2" font-family="Monospace" font-size="11.00">block_13_function_invariant__62_63_0/11</text>
<text text-anchor="start" x="1801" y="-186.8" font-family="Monospace" font-size="9.00"> </text>
<text text-anchor="start" x="1531" y="-175.8" font-family="Monospace" font-size="9.00"> </text>
<text text-anchor="start" x="1657.5" y="-176.4" font-family="Monospace" font-size="7.00">local</text>
<text text-anchor="start" x="1801" y="-175.8" font-family="Monospace" font-size="9.00"> </text>
</a>
</g>
</g>
<!-- block_14_invariant_61_63_0/11 -->
<g id="node11" class="node">
<title>block_14_invariant_61_63_0/11</title>
<g id="a_node11"><a xlink:title="GITHUB/SmartContractToGraph/DepositEth_wd&#45;leq&#45;init&#45;bal_v1_parsed.pl">
<polygon fill="cornsilk" stroke="black" points="1781,-320 1557,-320 1557,-284 1781,-284 1781,-320"/>
<text text-anchor="start" x="1565" y="-304.8" font-family="Monospace" font-size="9.00"> </text>
<text text-anchor="start" x="1571" y="-304.2" font-family="Monospace" font-size="11.00">block_14_invariant_61_63_0/11</text>
<text text-anchor="start" x="1767" y="-304.8" font-family="Monospace" font-size="9.00"> </text>
<text text-anchor="start" x="1565" y="-293.8" font-family="Monospace" font-size="9.00"> </text>
<text text-anchor="start" x="1657.5" y="-294.4" font-family="Monospace" font-size="7.00">local</text>
<text text-anchor="start" x="1767" y="-293.8" font-family="Monospace" font-size="9.00"> </text>
</a>
</g>
</g>
<!-- block_14_invariant_61_63_0/11&#45;&gt;block_13_function_invariant__62_63_0/11 -->
<g id="edge13" class="edge">
<title>block_14_invariant_61_63_0/11&#45;&gt;block_13_function_invariant__62_63_0/11</title>
<path fill="none" stroke="black" d="M1669,-283.88C1669,-265.04 1669,-234.47 1669,-212.3"/>
<polygon fill="black" stroke="black" points="1672.5,-212.19 1669,-202.19 1665.5,-212.19 1672.5,-212.19"/>
<g id="a_edge13&#45;label"><a xlink:title="calls">
<text text-anchor="middle" x="1682.5" y="-240.8" font-family="Monospace" font-size="9.00">calls</text>
</a>
</g>
</g>
<!-- block_16_function_invariant__62_63_0/11 -->
<g id="node12" class="node">
<title>block_16_function_invariant__62_63_0/11</title>
<g id="a_node12"><a xlink:title="GITHUB/SmartContractToGraph/DepositEth_wd&#45;leq&#45;init&#45;bal_v1_parsed.pl">
<polygon fill="cornsilk" stroke="black" points="1648,-438 1356,-438 1356,-402 1648,-402 1648,-438"/>
<text text-anchor="start" x="1364" y="-422.8" font-family="Monospace" font-size="9.00"> </text>
<text text-anchor="start" x="1370" y="-422.2" font-family="Monospace" font-size="11.00">block_16_function_invariant__62_63_0/11</text>
<text text-anchor="start" x="1634" y="-422.8" font-family="Monospace" font-size="9.00"> </text>
<text text-anchor="start" x="1364" y="-411.8" font-family="Monospace" font-size="9.00"> </text>
<text text-anchor="start" x="1490.5" y="-412.4" font-family="Monospace" font-size="7.00">local</text>
<text text-anchor="start" x="1634" y="-411.8" font-family="Monospace" font-size="9.00"> </text>
</a>
</g>
</g>
<!-- block_16_function_invariant__62_63_0/11&#45;&gt;block_14_invariant_61_63_0/11 -->
<g id="edge14" class="edge">
<title>block_16_function_invariant__62_63_0/11&#45;&gt;block_14_invariant_61_63_0/11</title>
<path fill="none" stroke="black" d="M1526.64,-401.88C1555.63,-381.75 1603.86,-348.25 1636.04,-325.89"/>
<polygon fill="black" stroke="black" points="1638.04,-328.77 1644.26,-320.19 1634.05,-323.02 1638.04,-328.77"/>
<g id="a_edge14&#45;label"><a xlink:title="calls">
<text text-anchor="middle" x="1603.5" y="-358.8" font-family="Monospace" font-size="9.00">calls</text>
</a>
</g>
</g>
<!-- summary_6_function_invariant__62_63_0/11 -->
<g id="node13" class="node">
<title>summary_6_function_invariant__62_63_0/11</title>
<g id="a_node13"><a xlink:title="GITHUB/SmartContractToGraph/DepositEth_wd&#45;leq&#45;init&#45;bal_v1_parsed.pl">
<polygon fill="cornsilk" stroke="black" points="2005.5,-556 1706.5,-556 1706.5,-520 2005.5,-520 2005.5,-556"/>
<text text-anchor="start" x="1715" y="-540.8" font-family="Monospace" font-size="9.00"> </text>
<text text-anchor="start" x="1721" y="-540.2" font-family="Monospace" font-size="11.00">summary_6_function_invariant__62_63_0/11</text>
<text text-anchor="start" x="1992" y="-540.8" font-family="Monospace" font-size="9.00"> </text>
<text text-anchor="start" x="1715" y="-529.8" font-family="Monospace" font-size="9.00"> </text>
<text text-anchor="start" x="1845" y="-530.4" font-family="Monospace" font-size="7.00">local</text>
<text text-anchor="start" x="1992" y="-529.8" font-family="Monospace" font-size="9.00"> </text>
</a>
</g>
</g>
<!-- summary_6_function_invariant__62_63_0/11&#45;&gt;block_16_function_invariant__62_63_0/11 -->
<g id="edge15" class="edge">
<title>summary_6_function_invariant__62_63_0/11&#45;&gt;block_16_function_invariant__62_63_0/11</title>
<path fill="none" stroke="black" d="M1803.77,-519.88C1739.88,-498.95 1631.88,-463.56 1563.89,-441.28"/>
<polygon fill="black" stroke="black" points="1564.75,-437.88 1554.16,-438.09 1562.57,-444.53 1564.75,-437.88"/>
<g id="a_edge15&#45;label"><a xlink:title="calls">
<text text-anchor="middle" x="1702.5" y="-476.8" font-family="Monospace" font-size="9.00">calls</text>
</a>
</g>
</g>
<!-- block_15_return_function_invariant__62_63_0/11 -->
<g id="node14" class="node">
<title>block_15_return_function_invariant__62_63_0/11</title>
<g id="a_node14"><a xlink:title="GITHUB/SmartContractToGraph/DepositEth_wd&#45;leq&#45;init&#45;bal_v1_parsed.pl">
<polygon fill="cornsilk" stroke="black" points="2005.5,-438 1666.5,-438 1666.5,-402 2005.5,-402 2005.5,-438"/>
<text text-anchor="start" x="1675" y="-422.8" font-family="Monospace" font-size="9.00"> </text>
<text text-anchor="start" x="1681" y="-422.2" font-family="Monospace" font-size="11.00">block_15_return_function_invariant__62_63_0/11</text>
<text text-anchor="start" x="1992" y="-422.8" font-family="Monospace" font-size="9.00"> </text>
<text text-anchor="start" x="1675" y="-411.8" font-family="Monospace" font-size="9.00"> </text>
<text text-anchor="start" x="1825" y="-412.4" font-family="Monospace" font-size="7.00">local</text>
<text text-anchor="start" x="1992" y="-411.8" font-family="Monospace" font-size="9.00"> </text>
</a>
</g>
</g>
<!-- summary_6_function_invariant__62_63_0/11&#45;&gt;block_15_return_function_invariant__62_63_0/11 -->
<g id="edge17" class="edge">
<title>summary_6_function_invariant__62_63_0/11&#45;&gt;block_15_return_function_invariant__62_63_0/11</title>
<path fill="none" stroke="black" d="M1853.05,-519.88C1849.8,-501.04 1844.53,-470.47 1840.71,-448.3"/>
<polygon fill="black" stroke="black" points="1844.11,-447.45 1838.96,-438.19 1837.21,-448.64 1844.11,-447.45"/>
<g id="a_edge17&#45;label"><a xlink:title="calls">
<text text-anchor="middle" x="1859.5" y="-476.8" font-family="Monospace" font-size="9.00">calls</text>
</a>
</g>
</g>
<!-- block_15_return_function_invariant__62_63_0/11&#45;&gt;block_14_invariant_61_63_0/11 -->
<g id="edge16" class="edge">
<title>block_15_return_function_invariant__62_63_0/11&#45;&gt;block_14_invariant_61_63_0/11</title>
<path fill="none" stroke="black" d="M1811.36,-401.88C1782.37,-381.75 1734.14,-348.25 1701.96,-325.89"/>
<polygon fill="black" stroke="black" points="1703.95,-323.02 1693.74,-320.19 1699.96,-328.77 1703.95,-323.02"/>
<g id="a_edge16&#45;label"><a xlink:title="calls">
<text text-anchor="middle" x="1770.5" y="-358.8" font-family="Monospace" font-size="9.00">calls</text>
</a>
</g>
</g>
<!-- block_17_function_invariant__62_63_0/11 -->
<g id="node15" class="node">
<title>block_17_function_invariant__62_63_0/11</title>
<g id="a_node15"><a xlink:title="GITHUB/SmartContractToGraph/DepositEth_wd&#45;leq&#45;init&#45;bal_v1_parsed.pl">
<polygon fill="cornsilk" stroke="black" points="1625,-556 1333,-556 1333,-520 1625,-520 1625,-556"/>
<text text-anchor="start" x="1341" y="-540.8" font-family="Monospace" font-size="9.00"> </text>
<text text-anchor="start" x="1347" y="-540.2" font-family="Monospace" font-size="11.00">block_17_function_invariant__62_63_0/11</text>
<text text-anchor="start" x="1611" y="-540.8" font-family="Monospace" font-size="9.00"> </text>
<text text-anchor="start" x="1341" y="-529.8" font-family="Monospace" font-size="9.00"> </text>
<text text-anchor="start" x="1467.5" y="-530.4" font-family="Monospace" font-size="7.00">local</text>
<text text-anchor="start" x="1611" y="-529.8" font-family="Monospace" font-size="9.00"> </text>
</a>
</g>
</g>
<!-- summary_7_function_invariant__62_63_0/11&#45;&gt;summary_6_function_invariant__62_63_0/11 -->
<g id="edge19" class="edge">
<title>summary_7_function_invariant__62_63_0/11&#45;&gt;summary_6_function_invariant__62_63_0/11</title>
<path fill="none" stroke="black" d="M1535.48,-637.88C1603.47,-616.91 1718.52,-581.41 1790.71,-559.14"/>
<polygon fill="black" stroke="black" points="1792.08,-562.38 1800.6,-556.09 1790.01,-555.7 1792.08,-562.38"/>
<g id="a_edge19&#45;label"><a xlink:title="calls">
<text text-anchor="middle" x="1692.5" y="-594.8" font-family="Monospace" font-size="9.00">calls</text>
</a>
</g>
</g>
<!-- summary_7_function_invariant__62_63_0/11&#45;&gt;block_17_function_invariant__62_63_0/11 -->
<g id="edge18" class="edge">
<title>summary_7_function_invariant__62_63_0/11&#45;&gt;block_17_function_invariant__62_63_0/11</title>
<path fill="none" stroke="black" d="M1479.85,-637.88C1479.69,-619.04 1479.43,-588.47 1479.24,-566.3"/>
<polygon fill="black" stroke="black" points="1482.73,-566.16 1479.15,-556.19 1475.73,-566.22 1482.73,-566.16"/>
<g id="a_edge18&#45;label"><a xlink:title="calls">
<text text-anchor="middle" x="1492.5" y="-594.8" font-family="Monospace" font-size="9.00">calls</text>
</a>
</g>
</g>
<!-- block_18_constructor_18_63_0/11 -->
<g id="node17" class="node">
<title>block_18_constructor_18_63_0/11</title>
<g id="a_node17"><a xlink:title="GITHUB/SmartContractToGraph/DepositEth_wd&#45;leq&#45;init&#45;bal_v1_parsed.pl">
<polygon fill="cornsilk" stroke="black" points="666,-84 428,-84 428,-48 666,-48 666,-84"/>
<text text-anchor="start" x="436" y="-68.8" font-family="Monospace" font-size="9.00"> </text>
<text text-anchor="start" x="442" y="-68.2" font-family="Monospace" font-size="11.00">block_18_constructor_18_63_0/11</text>
<text text-anchor="start" x="652" y="-68.8" font-family="Monospace" font-size="9.00"> </text>
<text text-anchor="start" x="436" y="-57.8" font-family="Monospace" font-size="9.00"> </text>
<text text-anchor="start" x="535.5" y="-58.4" font-family="Monospace" font-size="7.00">local</text>
<text text-anchor="start" x="652" y="-57.8" font-family="Monospace" font-size="9.00"> </text>
</a>
</g>
</g>
<!-- block_19__17_63_0/11 -->
<g id="node18" class="node">
<title>block_19__17_63_0/11</title>
<g id="a_node18"><a xlink:title="GITHUB/SmartContractToGraph/DepositEth_wd&#45;leq&#45;init&#45;bal_v1_parsed.pl">
<polygon fill="cornsilk" stroke="black" points="629,-202 465,-202 465,-166 629,-166 629,-202"/>
<text text-anchor="start" x="473" y="-186.8" font-family="Monospace" font-size="9.00"> </text>
<text text-anchor="start" x="479" y="-186.2" font-family="Monospace" font-size="11.00">block_19__17_63_0/11</text>
<text text-anchor="start" x="615" y="-186.8" font-family="Monospace" font-size="9.00"> </text>
<text text-anchor="start" x="473" y="-175.8" font-family="Monospace" font-size="9.00"> </text>
<text text-anchor="start" x="535.5" y="-176.4" font-family="Monospace" font-size="7.00">local</text>
<text text-anchor="start" x="615" y="-175.8" font-family="Monospace" font-size="9.00"> </text>
</a>
</g>
</g>
<!-- block_19__17_63_0/11&#45;&gt;block_18_constructor_18_63_0/11 -->
<g id="edge21" class="edge">
<title>block_19__17_63_0/11&#45;&gt;block_18_constructor_18_63_0/11</title>
<path fill="none" stroke="black" d="M547,-165.88C547,-147.04 547,-116.47 547,-94.3"/>
<polygon fill="black" stroke="black" points="550.5,-94.19 547,-84.19 543.5,-94.19 550.5,-94.19"/>
<g id="a_edge21&#45;label"><a xlink:title="calls">
<text text-anchor="middle" x="560.5" y="-122.8" font-family="Monospace" font-size="9.00">calls</text>
</a>
</g>
</g>
<!-- block_20_return_constructor_18_63_0/11 -->
<g id="node19" class="node">
<title>block_20_return_constructor_18_63_0/11</title>
<g id="a_node19"><a xlink:title="GITHUB/SmartContractToGraph/DepositEth_wd&#45;leq&#45;init&#45;bal_v1_parsed.pl">
<polygon fill="cornsilk" stroke="black" points="689.5,-320 404.5,-320 404.5,-284 689.5,-284 689.5,-320"/>
<text text-anchor="start" x="413" y="-304.8" font-family="Monospace" font-size="9.00"> </text>
<text text-anchor="start" x="419" y="-304.2" font-family="Monospace" font-size="11.00">block_20_return_constructor_18_63_0/11</text>
<text text-anchor="start" x="676" y="-304.8" font-family="Monospace" font-size="9.00"> </text>
<text text-anchor="start" x="413" y="-293.8" font-family="Monospace" font-size="9.00"> </text>
<text text-anchor="start" x="536" y="-294.4" font-family="Monospace" font-size="7.00">local</text>
<text text-anchor="start" x="676" y="-293.8" font-family="Monospace" font-size="9.00"> </text>
</a>
</g>
</g>
<!-- block_20_return_constructor_18_63_0/11&#45;&gt;block_19__17_63_0/11 -->
<g id="edge22" class="edge">
<title>block_20_return_constructor_18_63_0/11&#45;&gt;block_19__17_63_0/11</title>
<path fill="none" stroke="black" d="M547,-283.88C547,-265.04 547,-234.47 547,-212.3"/>
<polygon fill="black" stroke="black" points="550.5,-212.19 547,-202.19 543.5,-212.19 550.5,-212.19"/>
<g id="a_edge22&#45;label"><a xlink:title="calls">
<text text-anchor="middle" x="560.5" y="-240.8" font-family="Monospace" font-size="9.00">calls</text>
</a>
</g>
</g>
<!-- summary_3_constructor_18_63_0/11 -->
<g id="node20" class="node">
<title>summary_3_constructor_18_63_0/11</title>
<g id="a_node20"><a xlink:title="GITHUB/SmartContractToGraph/DepositEth_wd&#45;leq&#45;init&#45;bal_v1_parsed.pl">
<polygon fill="cornsilk" stroke="black" points="668.5,-438 423.5,-438 423.5,-402 668.5,-402 668.5,-438"/>
<text text-anchor="start" x="432" y="-422.8" font-family="Monospace" font-size="9.00"> </text>
<text text-anchor="start" x="438" y="-422.2" font-family="Monospace" font-size="11.00">summary_3_constructor_18_63_0/11</text>
<text text-anchor="start" x="655" y="-422.8" font-family="Monospace" font-size="9.00"> </text>
<text text-anchor="start" x="432" y="-411.8" font-family="Monospace" font-size="9.00"> </text>
<text text-anchor="start" x="535" y="-412.4" font-family="Monospace" font-size="7.00">local</text>
<text text-anchor="start" x="655" y="-411.8" font-family="Monospace" font-size="9.00"> </text>
</a>
</g>
</g>
<!-- summary_3_constructor_18_63_0/11&#45;&gt;block_20_return_constructor_18_63_0/11 -->
<g id="edge23" class="edge">
<title>summary_3_constructor_18_63_0/11&#45;&gt;block_20_return_constructor_18_63_0/11</title>
<path fill="none" stroke="black" d="M546.15,-401.88C546.31,-383.04 546.57,-352.47 546.76,-330.3"/>
<polygon fill="black" stroke="black" points="550.27,-330.22 546.85,-320.19 543.27,-330.16 550.27,-330.22"/>
<g id="a_edge23&#45;label"><a xlink:title="calls">
<text text-anchor="middle" x="559.5" y="-358.8" font-family="Monospace" font-size="9.00">calls</text>
</a>
</g>
</g>
<!-- contract_initializer_entry_22_depositeth_63_0/11 -->
<g id="node21" class="node">
<title>contract_initializer_entry_22_depositeth_63_0/11</title>
<g id="a_node21"><a xlink:title="GITHUB/SmartContractToGraph/DepositEth_wd&#45;leq&#45;init&#45;bal_v1_parsed.pl">
<polygon fill="cornsilk" stroke="black" points="386.5,-320 33.5,-320 33.5,-284 386.5,-284 386.5,-320"/>
<text text-anchor="start" x="42" y="-304.8" font-family="Monospace" font-size="9.00"> </text>
<text text-anchor="start" x="48" y="-304.2" font-family="Monospace" font-size="11.00">contract_initializer_entry_22_depositeth_63_0/11</text>
<text text-anchor="start" x="373" y="-304.8" font-family="Monospace" font-size="9.00"> </text>
<text text-anchor="start" x="42" y="-293.8" font-family="Monospace" font-size="9.00"> </text>
<text text-anchor="start" x="199" y="-294.4" font-family="Monospace" font-size="7.00">local</text>
<text text-anchor="start" x="373" y="-293.8" font-family="Monospace" font-size="9.00"> </text>
</a>
</g>
</g>
<!-- contract_initializer_after_init_23_depositeth_63_0/11 -->
<g id="node22" class="node">
<title>contract_initializer_after_init_23_depositeth_63_0/11</title>
<g id="a_node22"><a xlink:title="GITHUB/SmartContractToGraph/DepositEth_wd&#45;leq&#45;init&#45;bal_v1_parsed.pl">
<polygon fill="cornsilk" stroke="black" points="404,-438 18,-438 18,-402 404,-402 404,-438"/>
<text text-anchor="start" x="26" y="-422.8" font-family="Monospace" font-size="9.00"> </text>
<text text-anchor="start" x="32" y="-422.2" font-family="Monospace" font-size="11.00">contract_initializer_after_init_23_depositeth_63_0/11</text>
<text text-anchor="start" x="390" y="-422.8" font-family="Monospace" font-size="9.00"> </text>
<text text-anchor="start" x="26" y="-411.8" font-family="Monospace" font-size="9.00"> </text>
<text text-anchor="start" x="199.5" y="-412.4" font-family="Monospace" font-size="7.00">local</text>
<text text-anchor="start" x="390" y="-411.8" font-family="Monospace" font-size="9.00"> </text>
</a>
</g>
</g>
<!-- contract_initializer_after_init_23_depositeth_63_0/11&#45;&gt;contract_initializer_entry_22_depositeth_63_0/11 -->
<g id="edge24" class="edge">
<title>contract_initializer_after_init_23_depositeth_63_0/11&#45;&gt;contract_initializer_entry_22_depositeth_63_0/11</title>
<path fill="none" stroke="black" d="M210.85,-401.88C210.69,-383.04 210.43,-352.47 210.24,-330.3"/>
<polygon fill="black" stroke="black" points="213.73,-330.16 210.15,-320.19 206.73,-330.22 213.73,-330.16"/>
<g id="a_edge24&#45;label"><a xlink:title="calls">
<text text-anchor="middle" x="223.5" y="-358.8" font-family="Monospace" font-size="9.00">calls</text>
</a>
</g>
</g>
<!-- contract_initializer_21_depositeth_63_0/11 -->
<g id="node23" class="node">
<title>contract_initializer_21_depositeth_63_0/11</title>
<g id="a_node23"><a xlink:title="GITHUB/SmartContractToGraph/DepositEth_wd&#45;leq&#45;init&#45;bal_v1_parsed.pl">
<polygon fill="cornsilk" stroke="black" points="330,-556 18,-556 18,-520 330,-520 330,-556"/>
<text text-anchor="start" x="26" y="-540.8" font-family="Monospace" font-size="9.00"> </text>
<text text-anchor="start" x="32" y="-540.2" font-family="Monospace" font-size="11.00">contract_initializer_21_depositeth_63_0/11</text>
<text text-anchor="start" x="316" y="-540.8" font-family="Monospace" font-size="9.00"> </text>
<text text-anchor="start" x="26" y="-529.8" font-family="Monospace" font-size="9.00"> </text>
<text text-anchor="start" x="162.5" y="-530.4" font-family="Monospace" font-size="7.00">local</text>
<text text-anchor="start" x="316" y="-529.8" font-family="Monospace" font-size="9.00"> </text>
</a>
</g>
</g>
<!-- contract_initializer_21_depositeth_63_0/11&#45;&gt;summary_3_constructor_18_63_0/11 -->
<g id="edge26" class="edge">
<title>contract_initializer_21_depositeth_63_0/11&#45;&gt;summary_3_constructor_18_63_0/11</title>
<path fill="none" stroke="black" d="M228.89,-519.88C296.16,-498.91 409.98,-463.41 481.4,-441.14"/>
<polygon fill="black" stroke="black" points="482.68,-444.41 491.19,-438.09 480.6,-437.73 482.68,-444.41"/>
<g id="a_edge26&#45;label"><a xlink:title="calls">
<text text-anchor="middle" x="384.5" y="-476.8" font-family="Monospace" font-size="9.00">calls</text>
</a>
</g>
</g>
<!-- contract_initializer_21_depositeth_63_0/11&#45;&gt;contract_initializer_after_init_23_depositeth_63_0/11 -->
<g id="edge25" class="edge">
<title>contract_initializer_21_depositeth_63_0/11&#45;&gt;contract_initializer_after_init_23_depositeth_63_0/11</title>
<path fill="none" stroke="black" d="M179.46,-519.88C185.5,-500.95 195.31,-470.19 202.39,-448"/>
<polygon fill="black" stroke="black" points="205.81,-448.78 205.52,-438.19 199.14,-446.65 205.81,-448.78"/>
<g id="a_edge25&#45;label"><a xlink:title="calls">
<text text-anchor="middle" x="206.5" y="-476.8" font-family="Monospace" font-size="9.00">calls</text>
</a>
</g>
</g>
<!-- implicit_constructor_entry_24_depositeth_63_0/11 -->
<g id="node24" class="node">
<title>implicit_constructor_entry_24_depositeth_63_0/11</title>
<g id="a_node24"><a xlink:title="GITHUB/SmartContractToGraph/DepositEth_wd&#45;leq&#45;init&#45;bal_v1_parsed.pl">
<polygon fill="cornsilk" stroke="black" points="701.5,-556 348.5,-556 348.5,-520 701.5,-520 701.5,-556"/>
<text text-anchor="start" x="357" y="-540.8" font-family="Monospace" font-size="9.00"> </text>
<text text-anchor="start" x="363" y="-540.2" font-family="Monospace" font-size="11.00">implicit_constructor_entry_24_depositeth_63_0/11</text>
<text text-anchor="start" x="688" y="-540.8" font-family="Monospace" font-size="9.00"> </text>
<text text-anchor="start" x="357" y="-529.8" font-family="Monospace" font-size="9.00"> </text>
<text text-anchor="start" x="514" y="-530.4" font-family="Monospace" font-size="7.00">local</text>
<text text-anchor="start" x="688" y="-529.8" font-family="Monospace" font-size="9.00"> </text>
</a>
</g>
</g>
<!-- summary_constructor_2_depositeth_63_0/11&#45;&gt;contract_initializer_21_depositeth_63_0/11 -->
<g id="edge28" class="edge">
<title>summary_constructor_2_depositeth_63_0/11&#45;&gt;contract_initializer_21_depositeth_63_0/11</title>
<path fill="none" stroke="black" d="M473.21,-637.88C409.87,-616.95 302.78,-581.56 235.37,-559.28"/>
<polygon fill="black" stroke="black" points="236.31,-555.91 225.72,-556.09 234.11,-562.55 236.31,-555.91"/>
<g id="a_edge28&#45;label"><a xlink:title="calls">
<text text-anchor="middle" x="373.5" y="-594.8" font-family="Monospace" font-size="9.00">calls</text>
</a>
</g>
</g>
<!-- summary_constructor_2_depositeth_63_0/11&#45;&gt;implicit_constructor_entry_24_depositeth_63_0/11 -->
<g id="edge27" class="edge">
<title>summary_constructor_2_depositeth_63_0/11&#45;&gt;implicit_constructor_entry_24_depositeth_63_0/11</title>
<path fill="none" stroke="black" d="M525,-637.88C525,-619.04 525,-588.47 525,-566.3"/>
<polygon fill="black" stroke="black" points="528.5,-566.19 525,-556.19 521.5,-566.19 528.5,-566.19"/>
<g id="a_edge27&#45;label"><a xlink:title="calls">
<text text-anchor="middle" x="538.5" y="-594.8" font-family="Monospace" font-size="9.00">calls</text>
</a>
</g>
</g>
<!-- error_target_3_0/0 -->
<g id="node26" class="node">
<title>error_target_3_0/0</title>
<g id="a_node26"><a xlink:title="GITHUB/SmartContractToGraph/DepositEth_wd&#45;leq&#45;init&#45;bal_v1_parsed.pl">
<polygon fill="cornsilk" stroke="black" points="1354,-910 1204,-910 1204,-874 1354,-874 1354,-910"/>
<text text-anchor="start" x="1212" y="-894.8" font-family="Monospace" font-size="9.00"> </text>
<text text-anchor="start" x="1218" y="-894.2" font-family="Monospace" font-size="11.00">error_target_3_0/0</text>
<text text-anchor="start" x="1340" y="-894.8" font-family="Monospace" font-size="9.00"> </text>
<text text-anchor="start" x="1212" y="-883.8" font-family="Monospace" font-size="9.00"> </text>
<text text-anchor="start" x="1267.5" y="-884.4" font-family="Monospace" font-size="7.00">local</text>
<text text-anchor="start" x="1340" y="-883.8" font-family="Monospace" font-size="9.00"> </text>
</a>
</g>
</g>
<!-- error_target_3_0/0&#45;&gt;summary_5_function_withdraw__52_63_0/13 -->
<g id="edge30" class="edge">
<title>error_target_3_0/0&#45;&gt;summary_5_function_withdraw__52_63_0/13</title>
<path fill="none" stroke="black" d="M1232.29,-873.92C1197.41,-858.41 1152.27,-831.81 1131,-792 1112.24,-756.89 1132.02,-711.19 1148.56,-682.99"/>
<polygon fill="black" stroke="black" points="1151.75,-684.49 1153.99,-674.14 1145.78,-680.83 1151.75,-684.49"/>
<g id="a_edge30&#45;label"><a xlink:title="calls">
<text text-anchor="middle" x="1144.5" y="-771.8" font-family="Monospace" font-size="9.00">calls</text>
</a>
</g>
</g>
<!-- error_target_3_0/0&#45;&gt;interface_0_depositeth_63_0/6 -->
<g id="edge31" class="edge">
<title>error_target_3_0/0&#45;&gt;interface_0_depositeth_63_0/6</title>
<path fill="none" stroke="black" d="M1279,-873.88C1279,-855.04 1279,-824.47 1279,-802.3"/>
<polygon fill="black" stroke="black" points="1282.5,-802.19 1279,-792.19 1275.5,-802.19 1282.5,-802.19"/>
<g id="a_edge31&#45;label"><a xlink:title="calls">
<text text-anchor="middle" x="1292.5" y="-830.8" font-family="Monospace" font-size="9.00">calls</text>
</a>
</g>
</g>
<!-- error_target_3_0/0&#45;&gt;summary_7_function_invariant__62_63_0/11 -->
<g id="edge32" class="edge">
<title>error_target_3_0/0&#45;&gt;summary_7_function_invariant__62_63_0/11</title>
<path fill="none" stroke="black" d="M1304.85,-873.91C1331,-855.75 1371.52,-825.14 1400,-792 1429.23,-757.99 1453.94,-711.91 1467.87,-683.34"/>
<polygon fill="black" stroke="black" points="1471.17,-684.54 1472.33,-674.01 1464.86,-681.52 1471.17,-684.54"/>
<g id="a_edge32&#45;label"><a xlink:title="calls">
<text text-anchor="middle" x="1438.5" y="-771.8" font-family="Monospace" font-size="9.00">calls</text>
</a>
</g>
</g>
<!-- ff/0 -->
<g id="node27" class="node">
<title>ff/0</title>
<g id="a_node27"><a xlink:title="GITHUB/SmartContractToGraph/DepositEth_wd&#45;leq&#45;init&#45;bal_v1_parsed.pl">
<polygon fill="cornsilk" stroke="black" points="1307,-1028 1251,-1028 1251,-992 1307,-992 1307,-1028"/>
<text text-anchor="start" x="1259" y="-1012.8" font-family="Monospace" font-size="9.00"> </text>
<text text-anchor="start" x="1265" y="-1012.2" font-family="Monospace" font-size="11.00">ff/0</text>
<text text-anchor="start" x="1293" y="-1012.8" font-family="Monospace" font-size="9.00"> </text>
<text text-anchor="start" x="1259" y="-1001.8" font-family="Monospace" font-size="9.00"> </text>
<text text-anchor="start" x="1267.5" y="-1002.4" font-family="Monospace" font-size="7.00">local</text>
<text text-anchor="start" x="1293" y="-1001.8" font-family="Monospace" font-size="9.00"> </text>
</a>
</g>
</g>
<!-- ff/0&#45;&gt;error_target_3_0/0 -->
<g id="edge33" class="edge">
<title>ff/0&#45;&gt;error_target_3_0/0</title>
<path fill="none" stroke="black" d="M1279,-991.88C1279,-973.04 1279,-942.47 1279,-920.3"/>
<polygon fill="black" stroke="black" points="1282.5,-920.19 1279,-910.19 1275.5,-920.19 1282.5,-920.19"/>
<g id="a_edge33&#45;label"><a xlink:title="calls">
<text text-anchor="middle" x="1292.5" y="-948.8" font-family="Monospace" font-size="9.00">calls</text>
</a>
</g>
</g>
</g>
</svg>
