<?xml version="1.0" encoding="UTF-8" standalone="no"?>
<?xml-stylesheet href="diagrams.css" type="text/css"?>
<!DOCTYPE svg PUBLIC "-//W3C//DTD SVG 1.1//EN"
 "http://www.w3.org/Graphics/SVG/1.1/DTD/svg11.dtd">
<!-- Generated by graphviz version 2.43.0 (0)
 -->
<!-- Title: DepositEth_wd&#45;sender&#45;rcv&#45;EOA_v8_parsed_object Pages: 1 -->
<svg width="1672pt" height="1225pt"
 viewBox="72.00 72.00 1600.00 1153.00" xmlns="http://www.w3.org/2000/svg" xmlns:xlink="http://www.w3.org/1999/xlink">
<g id="graph0" class="graph" transform="scale(1 1) rotate(0) translate(76 1149)">
<title>DepositEth_wd&#45;sender&#45;rcv&#45;EOA_v8_parsed_object</title>
<polygon fill="white" stroke="transparent" points="-4,4 -4,-1077 1524,-1077 1524,4 -4,4"/>
<text text-anchor="start" x="8" y="-18" font-family="Monospace" font-size="10.00" fill="dimgray">Cross&#45;referencing diagram for object DepositEth_wd&#45;sender&#45;rcv&#45;EOA_v8_parsed</text>
<text text-anchor="start" x="8" y="-7" font-family="Monospace" font-size="10.00" fill="dimgray">Generated on 2024&#45;05&#45;02, 12:52</text>
<g id="clust1" class="cluster">
<title>cluster_DepositEth_wd&#45;sender&#45;rcv&#45;EOA_v8_parsed_object</title>
<g id="a_clust1"><a xlink:title="GITHUB/SmartContractToGraph/DepositEth_wd&#45;sender&#45;rcv&#45;EOA_v8_parsed.pl">
<path fill="snow" stroke="dimgray" d="M20,-38C20,-38 1500,-38 1500,-38 1506,-38 1512,-44 1512,-50 1512,-50 1512,-1053 1512,-1053 1512,-1059 1506,-1065 1500,-1065 1500,-1065 20,-1065 20,-1065 14,-1065 8,-1059 8,-1053 8,-1053 8,-50 8,-50 8,-44 14,-38 20,-38"/>
<text text-anchor="start" x="20.5" y="-1048.5" font-family="Monospace" font-size="10.00" fill="dimgray">DepositEth_wd&#45;sender&#45;rcv&#45;EOA_v8_parsed</text>
</a>
</g>
</g>
<!-- nondet_interface_1_depositeth_107_0/12 -->
<g id="node1" class="node">
<title>nondet_interface_1_depositeth_107_0/12</title>
<g id="a_node1"><a xlink:title="GITHUB/SmartContractToGraph/DepositEth_wd&#45;sender&#45;rcv&#45;EOA_v8_parsed.pl">
<polygon fill="cornsilk" stroke="black" points="1451.5,-792 1166.5,-792 1166.5,-756 1451.5,-756 1451.5,-792"/>
<text text-anchor="start" x="1175" y="-776.8" font-family="Monospace" font-size="9.00"> </text>
<text text-anchor="start" x="1181" y="-776.2" font-family="Monospace" font-size="11.00">nondet_interface_1_depositeth_107_0/12</text>
<text text-anchor="start" x="1438" y="-776.8" font-family="Monospace" font-size="9.00"> </text>
<text text-anchor="start" x="1175" y="-765.8" font-family="Monospace" font-size="9.00"> </text>
<text text-anchor="start" x="1298" y="-766.4" font-family="Monospace" font-size="7.00">local</text>
<text text-anchor="start" x="1438" y="-765.8" font-family="Monospace" font-size="9.00"> </text>
</a>
</g>
</g>
<!-- summary_5_function_withdraw__106_107_0/15 -->
<g id="node9" class="node">
<title>summary_5_function_withdraw__106_107_0/15</title>
<g id="a_node9"><a xlink:title="GITHUB/SmartContractToGraph/DepositEth_wd&#45;sender&#45;rcv&#45;EOA_v8_parsed.pl">
<polygon fill="cornsilk" stroke="black" points="1174.5,-674 869.5,-674 869.5,-638 1174.5,-638 1174.5,-674"/>
<text text-anchor="start" x="878" y="-658.8" font-family="Monospace" font-size="9.00"> </text>
<text text-anchor="start" x="884" y="-658.2" font-family="Monospace" font-size="11.00">summary_5_function_withdraw__106_107_0/15</text>
<text text-anchor="start" x="1161" y="-658.8" font-family="Monospace" font-size="9.00"> </text>
<text text-anchor="start" x="878" y="-647.8" font-family="Monospace" font-size="9.00"> </text>
<text text-anchor="start" x="1011" y="-648.4" font-family="Monospace" font-size="7.00">local</text>
<text text-anchor="start" x="1161" y="-647.8" font-family="Monospace" font-size="9.00"> </text>
</a>
</g>
</g>
<!-- nondet_interface_1_depositeth_107_0/12&#45;&gt;summary_5_function_withdraw__106_107_0/15 -->
<g id="edge1" class="edge">
<title>nondet_interface_1_depositeth_107_0/12&#45;&gt;summary_5_function_withdraw__106_107_0/15</title>
<path fill="none" stroke="black" d="M1266.65,-755.88C1215.46,-735.19 1129.34,-700.38 1074.12,-678.07"/>
<polygon fill="black" stroke="black" points="1075.1,-674.69 1064.52,-674.19 1072.48,-681.18 1075.1,-674.69"/>
<g id="a_edge1&#45;label"><a xlink:title="calls">
<text text-anchor="middle" x="1187.5" y="-712.8" font-family="Monospace" font-size="9.00">calls</text>
</a>
</g>
</g>
<!-- block_6_function_withdraw__106_107_0/19 -->
<g id="node2" class="node">
<title>block_6_function_withdraw__106_107_0/19</title>
<g id="a_node2"><a xlink:title="GITHUB/SmartContractToGraph/DepositEth_wd&#45;sender&#45;rcv&#45;EOA_v8_parsed.pl">
<polygon fill="cornsilk" stroke="black" points="1058,-202 766,-202 766,-166 1058,-166 1058,-202"/>
<text text-anchor="start" x="774" y="-186.8" font-family="Monospace" font-size="9.00"> </text>
<text text-anchor="start" x="780" y="-186.2" font-family="Monospace" font-size="11.00">block_6_function_withdraw__106_107_0/19</text>
<text text-anchor="start" x="1044" y="-186.8" font-family="Monospace" font-size="9.00"> </text>
<text text-anchor="start" x="774" y="-175.8" font-family="Monospace" font-size="9.00"> </text>
<text text-anchor="start" x="900.5" y="-176.4" font-family="Monospace" font-size="7.00">local</text>
<text text-anchor="start" x="1044" y="-175.8" font-family="Monospace" font-size="9.00"> </text>
</a>
</g>
</g>
<!-- block_7_withdraw_105_107_0/19 -->
<g id="node3" class="node">
<title>block_7_withdraw_105_107_0/19</title>
<g id="a_node3"><a xlink:title="GITHUB/SmartContractToGraph/DepositEth_wd&#45;sender&#45;rcv&#45;EOA_v8_parsed.pl">
<polygon fill="cornsilk" stroke="black" points="1024,-320 800,-320 800,-284 1024,-284 1024,-320"/>
<text text-anchor="start" x="808" y="-304.8" font-family="Monospace" font-size="9.00"> </text>
<text text-anchor="start" x="814" y="-304.2" font-family="Monospace" font-size="11.00">block_7_withdraw_105_107_0/19</text>
<text text-anchor="start" x="1010" y="-304.8" font-family="Monospace" font-size="9.00"> </text>
<text text-anchor="start" x="808" y="-293.8" font-family="Monospace" font-size="9.00"> </text>
<text text-anchor="start" x="900.5" y="-294.4" font-family="Monospace" font-size="7.00">local</text>
<text text-anchor="start" x="1010" y="-293.8" font-family="Monospace" font-size="9.00"> </text>
</a>
</g>
</g>
<!-- block_7_withdraw_105_107_0/19&#45;&gt;block_6_function_withdraw__106_107_0/19 -->
<g id="edge2" class="edge">
<title>block_7_withdraw_105_107_0/19&#45;&gt;block_6_function_withdraw__106_107_0/19</title>
<path fill="none" stroke="black" d="M912,-283.88C912,-265.04 912,-234.47 912,-212.3"/>
<polygon fill="black" stroke="black" points="915.5,-212.19 912,-202.19 908.5,-212.19 915.5,-212.19"/>
<g id="a_edge2&#45;label"><a xlink:title="calls">
<text text-anchor="middle" x="925.5" y="-240.8" font-family="Monospace" font-size="9.00">calls</text>
</a>
</g>
</g>
<!-- nondet_call_9_0/12 -->
<g id="node4" class="node">
<title>nondet_call_9_0/12</title>
<g id="a_node4"><a xlink:title="GITHUB/SmartContractToGraph/DepositEth_wd&#45;sender&#45;rcv&#45;EOA_v8_parsed.pl">
<polygon fill="cornsilk" stroke="black" points="1413,-320 1263,-320 1263,-284 1413,-284 1413,-320"/>
<text text-anchor="start" x="1271" y="-304.8" font-family="Monospace" font-size="9.00"> </text>
<text text-anchor="start" x="1277" y="-304.2" font-family="Monospace" font-size="11.00">nondet_call_9_0/12</text>
<text text-anchor="start" x="1399" y="-304.8" font-family="Monospace" font-size="9.00"> </text>
<text text-anchor="start" x="1271" y="-293.8" font-family="Monospace" font-size="9.00"> </text>
<text text-anchor="start" x="1326.5" y="-294.4" font-family="Monospace" font-size="7.00">local</text>
<text text-anchor="start" x="1399" y="-293.8" font-family="Monospace" font-size="9.00"> </text>
</a>
</g>
</g>
<!-- nondet_call_9_0/12&#45;&gt;nondet_interface_1_depositeth_107_0/12 -->
<g id="edge3" class="edge">
<title>nondet_call_9_0/12&#45;&gt;nondet_interface_1_depositeth_107_0/12</title>
<path fill="none" stroke="black" d="M1376.86,-320.06C1407.87,-336.12 1448.88,-363.5 1466,-402 1472.5,-416.62 1469.48,-422.38 1466,-438 1438.55,-561.27 1360.65,-692.81 1325.99,-747.19"/>
<polygon fill="black" stroke="black" points="1322.89,-745.53 1320.43,-755.84 1328.78,-749.32 1322.89,-745.53"/>
<g id="a_edge3&#45;label"><a xlink:title="calls">
<text text-anchor="middle" x="1454.5" y="-535.8" font-family="Monospace" font-size="9.00">calls</text>
</a>
</g>
</g>
<!-- summary_4_function_withdraw__106_107_0/15 -->
<g id="node5" class="node">
<title>summary_4_function_withdraw__106_107_0/15</title>
<g id="a_node5"><a xlink:title="GITHUB/SmartContractToGraph/DepositEth_wd&#45;sender&#45;rcv&#45;EOA_v8_parsed.pl">
<polygon fill="cornsilk" stroke="black" points="1377.5,-556 1072.5,-556 1072.5,-520 1377.5,-520 1377.5,-556"/>
<text text-anchor="start" x="1081" y="-540.8" font-family="Monospace" font-size="9.00"> </text>
<text text-anchor="start" x="1087" y="-540.2" font-family="Monospace" font-size="11.00">summary_4_function_withdraw__106_107_0/15</text>
<text text-anchor="start" x="1364" y="-540.8" font-family="Monospace" font-size="9.00"> </text>
<text text-anchor="start" x="1081" y="-529.8" font-family="Monospace" font-size="9.00"> </text>
<text text-anchor="start" x="1214" y="-530.4" font-family="Monospace" font-size="7.00">local</text>
<text text-anchor="start" x="1364" y="-529.8" font-family="Monospace" font-size="9.00"> </text>
</a>
</g>
</g>
<!-- summary_4_function_withdraw__106_107_0/15&#45;&gt;block_7_withdraw_105_107_0/19 -->
<g id="edge4" class="edge">
<title>summary_4_function_withdraw__106_107_0/15&#45;&gt;block_7_withdraw_105_107_0/19</title>
<path fill="none" stroke="black" d="M1096.31,-519.96C956.7,-500.16 750.44,-466.55 727,-438 685.71,-387.69 772.87,-346.52 841.09,-323.37"/>
<polygon fill="black" stroke="black" points="842.61,-326.56 851,-320.09 840.41,-319.91 842.61,-326.56"/>
<g id="a_edge4&#45;label"><a xlink:title="calls">
<text text-anchor="middle" x="740.5" y="-417.8" font-family="Monospace" font-size="9.00">calls</text>
</a>
</g>
</g>
<!-- summary_4_function_withdraw__106_107_0/15&#45;&gt;nondet_call_9_0/12 -->
<g id="edge5" class="edge">
<title>summary_4_function_withdraw__106_107_0/15&#45;&gt;nondet_call_9_0/12</title>
<path fill="none" stroke="black" d="M1304.75,-519.99C1349.26,-505.99 1401.04,-481.14 1428,-438 1452.94,-398.08 1406.98,-352.76 1372.04,-326.09"/>
<polygon fill="black" stroke="black" points="1374.01,-323.19 1363.9,-320.05 1369.85,-328.82 1374.01,-323.19"/>
<g id="a_edge5&#45;label"><a xlink:title="calls">
<text text-anchor="middle" x="1448.5" y="-417.8" font-family="Monospace" font-size="9.00">calls</text>
</a>
</g>
</g>
<!-- block_10_function_withdraw__106_107_0/19 -->
<g id="node6" class="node">
<title>block_10_function_withdraw__106_107_0/19</title>
<g id="a_node6"><a xlink:title="GITHUB/SmartContractToGraph/DepositEth_wd&#45;sender&#45;rcv&#45;EOA_v8_parsed.pl">
<polygon fill="cornsilk" stroke="black" points="1061.5,-438 762.5,-438 762.5,-402 1061.5,-402 1061.5,-438"/>
<text text-anchor="start" x="771" y="-422.8" font-family="Monospace" font-size="9.00"> </text>
<text text-anchor="start" x="777" y="-422.2" font-family="Monospace" font-size="11.00">block_10_function_withdraw__106_107_0/19</text>
<text text-anchor="start" x="1048" y="-422.8" font-family="Monospace" font-size="9.00"> </text>
<text text-anchor="start" x="771" y="-411.8" font-family="Monospace" font-size="9.00"> </text>
<text text-anchor="start" x="901" y="-412.4" font-family="Monospace" font-size="7.00">local</text>
<text text-anchor="start" x="1048" y="-411.8" font-family="Monospace" font-size="9.00"> </text>
</a>
</g>
</g>
<!-- summary_4_function_withdraw__106_107_0/15&#45;&gt;block_10_function_withdraw__106_107_0/19 -->
<g id="edge8" class="edge">
<title>summary_4_function_withdraw__106_107_0/15&#45;&gt;block_10_function_withdraw__106_107_0/19</title>
<path fill="none" stroke="black" d="M1178.82,-519.88C1122.68,-499.08 1028.01,-463.99 967.83,-441.69"/>
<polygon fill="black" stroke="black" points="968.71,-438.29 958.12,-438.09 966.28,-444.85 968.71,-438.29"/>
<g id="a_edge8&#45;label"><a xlink:title="calls">
<text text-anchor="middle" x="1090.5" y="-476.8" font-family="Monospace" font-size="9.00">calls</text>
</a>
</g>
</g>
<!-- block_8_return_function_withdraw__106_107_0/19 -->
<g id="node7" class="node">
<title>block_8_return_function_withdraw__106_107_0/19</title>
<g id="a_node7"><a xlink:title="GITHUB/SmartContractToGraph/DepositEth_wd&#45;sender&#45;rcv&#45;EOA_v8_parsed.pl">
<polygon fill="cornsilk" stroke="black" points="1418.5,-438 1079.5,-438 1079.5,-402 1418.5,-402 1418.5,-438"/>
<text text-anchor="start" x="1088" y="-422.8" font-family="Monospace" font-size="9.00"> </text>
<text text-anchor="start" x="1094" y="-422.2" font-family="Monospace" font-size="11.00">block_8_return_function_withdraw__106_107_0/19</text>
<text text-anchor="start" x="1405" y="-422.8" font-family="Monospace" font-size="9.00"> </text>
<text text-anchor="start" x="1088" y="-411.8" font-family="Monospace" font-size="9.00"> </text>
<text text-anchor="start" x="1238" y="-412.4" font-family="Monospace" font-size="7.00">local</text>
<text text-anchor="start" x="1405" y="-411.8" font-family="Monospace" font-size="9.00"> </text>
</a>
</g>
</g>
<!-- summary_4_function_withdraw__106_107_0/15&#45;&gt;block_8_return_function_withdraw__106_107_0/19 -->
<g id="edge11" class="edge">
<title>summary_4_function_withdraw__106_107_0/15&#45;&gt;block_8_return_function_withdraw__106_107_0/19</title>
<path fill="none" stroke="black" d="M1228.54,-519.88C1232.46,-500.95 1238.82,-470.19 1243.41,-448"/>
<polygon fill="black" stroke="black" points="1246.85,-448.69 1245.44,-438.19 1239.99,-447.27 1246.85,-448.69"/>
<g id="a_edge11&#45;label"><a xlink:title="calls">
<text text-anchor="middle" x="1250.5" y="-476.8" font-family="Monospace" font-size="9.00">calls</text>
</a>
</g>
</g>
<!-- block_10_function_withdraw__106_107_0/19&#45;&gt;block_7_withdraw_105_107_0/19 -->
<g id="edge6" class="edge">
<title>block_10_function_withdraw__106_107_0/19&#45;&gt;block_7_withdraw_105_107_0/19</title>
<path fill="none" stroke="black" d="M912,-401.88C912,-383.04 912,-352.47 912,-330.3"/>
<polygon fill="black" stroke="black" points="915.5,-330.19 912,-320.19 908.5,-330.19 915.5,-330.19"/>
<g id="a_edge6&#45;label"><a xlink:title="calls">
<text text-anchor="middle" x="925.5" y="-358.8" font-family="Monospace" font-size="9.00">calls</text>
</a>
</g>
</g>
<!-- block_10_function_withdraw__106_107_0/19&#45;&gt;nondet_call_9_0/12 -->
<g id="edge7" class="edge">
<title>block_10_function_withdraw__106_107_0/19&#45;&gt;nondet_call_9_0/12</title>
<path fill="none" stroke="black" d="M981.82,-401.93C1022.51,-391.82 1074.76,-378.57 1121,-366 1171.57,-352.25 1228.46,-335.7 1271.29,-323.01"/>
<polygon fill="black" stroke="black" points="1272.45,-326.31 1281.04,-320.11 1270.46,-319.6 1272.45,-326.31"/>
<g id="a_edge7&#45;label"><a xlink:title="calls">
<text text-anchor="middle" x="1169.5" y="-358.8" font-family="Monospace" font-size="9.00">calls</text>
</a>
</g>
</g>
<!-- block_8_return_function_withdraw__106_107_0/19&#45;&gt;block_7_withdraw_105_107_0/19 -->
<g id="edge9" class="edge">
<title>block_8_return_function_withdraw__106_107_0/19&#45;&gt;block_7_withdraw_105_107_0/19</title>
<path fill="none" stroke="black" d="M1199.27,-401.88C1138.58,-380.99 1036.06,-345.7 971.32,-323.42"/>
<polygon fill="black" stroke="black" points="972.25,-320.04 961.65,-320.09 969.97,-326.66 972.25,-320.04"/>
<g id="a_edge9&#45;label"><a xlink:title="calls">
<text text-anchor="middle" x="1103.5" y="-358.8" font-family="Monospace" font-size="9.00">calls</text>
</a>
</g>
</g>
<!-- block_8_return_function_withdraw__106_107_0/19&#45;&gt;nondet_call_9_0/12 -->
<g id="edge10" class="edge">
<title>block_8_return_function_withdraw__106_107_0/19&#45;&gt;nondet_call_9_0/12</title>
<path fill="none" stroke="black" d="M1262.13,-401.88C1277.05,-382.44 1301.55,-350.51 1318.65,-328.21"/>
<polygon fill="black" stroke="black" points="1321.5,-330.25 1324.81,-320.19 1315.95,-325.99 1321.5,-330.25"/>
<g id="a_edge10&#45;label"><a xlink:title="calls">
<text text-anchor="middle" x="1309.5" y="-358.8" font-family="Monospace" font-size="9.00">calls</text>
</a>
</g>
</g>
<!-- block_11_function_withdraw__106_107_0/19 -->
<g id="node8" class="node">
<title>block_11_function_withdraw__106_107_0/19</title>
<g id="a_node8"><a xlink:title="GITHUB/SmartContractToGraph/DepositEth_wd&#45;sender&#45;rcv&#45;EOA_v8_parsed.pl">
<polygon fill="cornsilk" stroke="black" points="1054.5,-556 755.5,-556 755.5,-520 1054.5,-520 1054.5,-556"/>
<text text-anchor="start" x="764" y="-540.8" font-family="Monospace" font-size="9.00"> </text>
<text text-anchor="start" x="770" y="-540.2" font-family="Monospace" font-size="11.00">block_11_function_withdraw__106_107_0/19</text>
<text text-anchor="start" x="1041" y="-540.8" font-family="Monospace" font-size="9.00"> </text>
<text text-anchor="start" x="764" y="-529.8" font-family="Monospace" font-size="9.00"> </text>
<text text-anchor="start" x="894" y="-530.4" font-family="Monospace" font-size="7.00">local</text>
<text text-anchor="start" x="1041" y="-529.8" font-family="Monospace" font-size="9.00"> </text>
</a>
</g>
</g>
<!-- summary_5_function_withdraw__106_107_0/15&#45;&gt;summary_4_function_withdraw__106_107_0/15 -->
<g id="edge13" class="edge">
<title>summary_5_function_withdraw__106_107_0/15&#45;&gt;summary_4_function_withdraw__106_107_0/15</title>
<path fill="none" stroke="black" d="M1051.95,-637.88C1087.49,-617.58 1146.82,-583.68 1185.93,-561.33"/>
<polygon fill="black" stroke="black" points="1187.98,-564.19 1194.92,-556.19 1184.5,-558.11 1187.98,-564.19"/>
<g id="a_edge13&#45;label"><a xlink:title="calls">
<text text-anchor="middle" x="1142.5" y="-594.8" font-family="Monospace" font-size="9.00">calls</text>
</a>
</g>
</g>
<!-- summary_5_function_withdraw__106_107_0/15&#45;&gt;block_11_function_withdraw__106_107_0/19 -->
<g id="edge12" class="edge">
<title>summary_5_function_withdraw__106_107_0/15&#45;&gt;block_11_function_withdraw__106_107_0/19</title>
<path fill="none" stroke="black" d="M1004.74,-637.88C984.86,-618.18 952.07,-585.67 929.55,-563.34"/>
<polygon fill="black" stroke="black" points="931.9,-560.74 922.33,-556.19 926.97,-565.71 931.9,-560.74"/>
<g id="a_edge12&#45;label"><a xlink:title="calls">
<text text-anchor="middle" x="980.5" y="-594.8" font-family="Monospace" font-size="9.00">calls</text>
</a>
</g>
</g>
<!-- interface_0_depositeth_107_0/7 -->
<g id="node10" class="node">
<title>interface_0_depositeth_107_0/7</title>
<g id="a_node10"><a xlink:title="GITHUB/SmartContractToGraph/DepositEth_wd&#45;sender&#45;rcv&#45;EOA_v8_parsed.pl">
<polygon fill="cornsilk" stroke="black" points="985.5,-792 754.5,-792 754.5,-756 985.5,-756 985.5,-792"/>
<text text-anchor="start" x="763" y="-776.8" font-family="Monospace" font-size="9.00"> </text>
<text text-anchor="start" x="769" y="-776.2" font-family="Monospace" font-size="11.00">interface_0_depositeth_107_0/7</text>
<text text-anchor="start" x="972" y="-776.8" font-family="Monospace" font-size="9.00"> </text>
<text text-anchor="start" x="763" y="-765.8" font-family="Monospace" font-size="9.00"> </text>
<text text-anchor="start" x="859" y="-766.4" font-family="Monospace" font-size="7.00">local</text>
<text text-anchor="start" x="972" y="-765.8" font-family="Monospace" font-size="9.00"> </text>
</a>
</g>
</g>
<!-- interface_0_depositeth_107_0/7&#45;&gt;summary_5_function_withdraw__106_107_0/15 -->
<g id="edge14" class="edge">
<title>interface_0_depositeth_107_0/7&#45;&gt;summary_5_function_withdraw__106_107_0/15</title>
<path fill="none" stroke="black" d="M892.43,-755.88C918.58,-735.92 961.97,-702.82 991.25,-680.47"/>
<polygon fill="black" stroke="black" points="993.65,-683.04 999.48,-674.19 989.41,-677.47 993.65,-683.04"/>
<g id="a_edge14&#45;label"><a xlink:title="calls">
<text text-anchor="middle" x="963.5" y="-712.8" font-family="Monospace" font-size="9.00">calls</text>
</a>
</g>
</g>
<!-- summary_constructor_2_depositeth_107_0/13 -->
<g id="node19" class="node">
<title>summary_constructor_2_depositeth_107_0/13</title>
<g id="a_node19"><a xlink:title="GITHUB/SmartContractToGraph/DepositEth_wd&#45;sender&#45;rcv&#45;EOA_v8_parsed.pl">
<polygon fill="cornsilk" stroke="black" points="707.5,-674 402.5,-674 402.5,-638 707.5,-638 707.5,-674"/>
<text text-anchor="start" x="411" y="-658.8" font-family="Monospace" font-size="9.00"> </text>
<text text-anchor="start" x="417" y="-658.2" font-family="Monospace" font-size="11.00">summary_constructor_2_depositeth_107_0/13</text>
<text text-anchor="start" x="694" y="-658.8" font-family="Monospace" font-size="9.00"> </text>
<text text-anchor="start" x="411" y="-647.8" font-family="Monospace" font-size="9.00"> </text>
<text text-anchor="start" x="544" y="-648.4" font-family="Monospace" font-size="7.00">local</text>
<text text-anchor="start" x="694" y="-647.8" font-family="Monospace" font-size="9.00"> </text>
</a>
</g>
</g>
<!-- interface_0_depositeth_107_0/7&#45;&gt;summary_constructor_2_depositeth_107_0/13 -->
<g id="edge23" class="edge">
<title>interface_0_depositeth_107_0/7&#45;&gt;summary_constructor_2_depositeth_107_0/13</title>
<path fill="none" stroke="black" d="M823.52,-755.88C766.91,-735.04 671.36,-699.85 610.82,-677.56"/>
<polygon fill="black" stroke="black" points="612.01,-674.26 601.41,-674.09 609.59,-680.83 612.01,-674.26"/>
<g id="a_edge23&#45;label"><a xlink:title="calls">
<text text-anchor="middle" x="734.5" y="-712.8" font-family="Monospace" font-size="9.00">calls</text>
</a>
</g>
</g>
<!-- block_12_constructor_25_107_0/13 -->
<g id="node11" class="node">
<title>block_12_constructor_25_107_0/13</title>
<g id="a_node11"><a xlink:title="GITHUB/SmartContractToGraph/DepositEth_wd&#45;sender&#45;rcv&#45;EOA_v8_parsed.pl">
<polygon fill="cornsilk" stroke="black" points="678.5,-84 433.5,-84 433.5,-48 678.5,-48 678.5,-84"/>
<text text-anchor="start" x="442" y="-68.8" font-family="Monospace" font-size="9.00"> </text>
<text text-anchor="start" x="448" y="-68.2" font-family="Monospace" font-size="11.00">block_12_constructor_25_107_0/13</text>
<text text-anchor="start" x="665" y="-68.8" font-family="Monospace" font-size="9.00"> </text>
<text text-anchor="start" x="442" y="-57.8" font-family="Monospace" font-size="9.00"> </text>
<text text-anchor="start" x="545" y="-58.4" font-family="Monospace" font-size="7.00">local</text>
<text text-anchor="start" x="665" y="-57.8" font-family="Monospace" font-size="9.00"> </text>
</a>
</g>
</g>
<!-- block_13__24_107_0/13 -->
<g id="node12" class="node">
<title>block_13__24_107_0/13</title>
<g id="a_node12"><a xlink:title="GITHUB/SmartContractToGraph/DepositEth_wd&#45;sender&#45;rcv&#45;EOA_v8_parsed.pl">
<polygon fill="cornsilk" stroke="black" points="641,-202 471,-202 471,-166 641,-166 641,-202"/>
<text text-anchor="start" x="479" y="-186.8" font-family="Monospace" font-size="9.00"> </text>
<text text-anchor="start" x="485" y="-186.2" font-family="Monospace" font-size="11.00">block_13__24_107_0/13</text>
<text text-anchor="start" x="627" y="-186.8" font-family="Monospace" font-size="9.00"> </text>
<text text-anchor="start" x="479" y="-175.8" font-family="Monospace" font-size="9.00"> </text>
<text text-anchor="start" x="544.5" y="-176.4" font-family="Monospace" font-size="7.00">local</text>
<text text-anchor="start" x="627" y="-175.8" font-family="Monospace" font-size="9.00"> </text>
</a>
</g>
</g>
<!-- block_13__24_107_0/13&#45;&gt;block_12_constructor_25_107_0/13 -->
<g id="edge15" class="edge">
<title>block_13__24_107_0/13&#45;&gt;block_12_constructor_25_107_0/13</title>
<path fill="none" stroke="black" d="M556,-165.88C556,-147.04 556,-116.47 556,-94.3"/>
<polygon fill="black" stroke="black" points="559.5,-94.19 556,-84.19 552.5,-94.19 559.5,-94.19"/>
<g id="a_edge15&#45;label"><a xlink:title="calls">
<text text-anchor="middle" x="569.5" y="-122.8" font-family="Monospace" font-size="9.00">calls</text>
</a>
</g>
</g>
<!-- block_14_return_constructor_25_107_0/13 -->
<g id="node13" class="node">
<title>block_14_return_constructor_25_107_0/13</title>
<g id="a_node13"><a xlink:title="GITHUB/SmartContractToGraph/DepositEth_wd&#45;sender&#45;rcv&#45;EOA_v8_parsed.pl">
<polygon fill="cornsilk" stroke="black" points="702,-320 410,-320 410,-284 702,-284 702,-320"/>
<text text-anchor="start" x="418" y="-304.8" font-family="Monospace" font-size="9.00"> </text>
<text text-anchor="start" x="424" y="-304.2" font-family="Monospace" font-size="11.00">block_14_return_constructor_25_107_0/13</text>
<text text-anchor="start" x="688" y="-304.8" font-family="Monospace" font-size="9.00"> </text>
<text text-anchor="start" x="418" y="-293.8" font-family="Monospace" font-size="9.00"> </text>
<text text-anchor="start" x="544.5" y="-294.4" font-family="Monospace" font-size="7.00">local</text>
<text text-anchor="start" x="688" y="-293.8" font-family="Monospace" font-size="9.00"> </text>
</a>
</g>
</g>
<!-- block_14_return_constructor_25_107_0/13&#45;&gt;block_13__24_107_0/13 -->
<g id="edge16" class="edge">
<title>block_14_return_constructor_25_107_0/13&#45;&gt;block_13__24_107_0/13</title>
<path fill="none" stroke="black" d="M556,-283.88C556,-265.04 556,-234.47 556,-212.3"/>
<polygon fill="black" stroke="black" points="559.5,-212.19 556,-202.19 552.5,-212.19 559.5,-212.19"/>
<g id="a_edge16&#45;label"><a xlink:title="calls">
<text text-anchor="middle" x="569.5" y="-240.8" font-family="Monospace" font-size="9.00">calls</text>
</a>
</g>
</g>
<!-- summary_3_constructor_25_107_0/13 -->
<g id="node14" class="node">
<title>summary_3_constructor_25_107_0/13</title>
<g id="a_node14"><a xlink:title="GITHUB/SmartContractToGraph/DepositEth_wd&#45;sender&#45;rcv&#45;EOA_v8_parsed.pl">
<polygon fill="cornsilk" stroke="black" points="680.5,-438 429.5,-438 429.5,-402 680.5,-402 680.5,-438"/>
<text text-anchor="start" x="438" y="-422.8" font-family="Monospace" font-size="9.00"> </text>
<text text-anchor="start" x="444" y="-422.2" font-family="Monospace" font-size="11.00">summary_3_constructor_25_107_0/13</text>
<text text-anchor="start" x="667" y="-422.8" font-family="Monospace" font-size="9.00"> </text>
<text text-anchor="start" x="438" y="-411.8" font-family="Monospace" font-size="9.00"> </text>
<text text-anchor="start" x="544" y="-412.4" font-family="Monospace" font-size="7.00">local</text>
<text text-anchor="start" x="667" y="-411.8" font-family="Monospace" font-size="9.00"> </text>
</a>
</g>
</g>
<!-- summary_3_constructor_25_107_0/13&#45;&gt;block_14_return_constructor_25_107_0/13 -->
<g id="edge17" class="edge">
<title>summary_3_constructor_25_107_0/13&#45;&gt;block_14_return_constructor_25_107_0/13</title>
<path fill="none" stroke="black" d="M555.15,-401.88C555.31,-383.04 555.57,-352.47 555.76,-330.3"/>
<polygon fill="black" stroke="black" points="559.27,-330.22 555.85,-320.19 552.27,-330.16 559.27,-330.22"/>
<g id="a_edge17&#45;label"><a xlink:title="calls">
<text text-anchor="middle" x="568.5" y="-358.8" font-family="Monospace" font-size="9.00">calls</text>
</a>
</g>
</g>
<!-- contract_initializer_entry_16_depositeth_107_0/13 -->
<g id="node15" class="node">
<title>contract_initializer_entry_16_depositeth_107_0/13</title>
<g id="a_node15"><a xlink:title="GITHUB/SmartContractToGraph/DepositEth_wd&#45;sender&#45;rcv&#45;EOA_v8_parsed.pl">
<polygon fill="cornsilk" stroke="black" points="391.5,-320 32.5,-320 32.5,-284 391.5,-284 391.5,-320"/>
<text text-anchor="start" x="41" y="-304.8" font-family="Monospace" font-size="9.00"> </text>
<text text-anchor="start" x="47" y="-304.2" font-family="Monospace" font-size="11.00">contract_initializer_entry_16_depositeth_107_0/13</text>
<text text-anchor="start" x="378" y="-304.8" font-family="Monospace" font-size="9.00"> </text>
<text text-anchor="start" x="41" y="-293.8" font-family="Monospace" font-size="9.00"> </text>
<text text-anchor="start" x="201" y="-294.4" font-family="Monospace" font-size="7.00">local</text>
<text text-anchor="start" x="378" y="-293.8" font-family="Monospace" font-size="9.00"> </text>
</a>
</g>
</g>
<!-- contract_initializer_after_init_17_depositeth_107_0/13 -->
<g id="node16" class="node">
<title>contract_initializer_after_init_17_depositeth_107_0/13</title>
<g id="a_node16"><a xlink:title="GITHUB/SmartContractToGraph/DepositEth_wd&#45;sender&#45;rcv&#45;EOA_v8_parsed.pl">
<polygon fill="cornsilk" stroke="black" points="411.5,-438 18.5,-438 18.5,-402 411.5,-402 411.5,-438"/>
<text text-anchor="start" x="27" y="-422.8" font-family="Monospace" font-size="9.00"> </text>
<text text-anchor="start" x="33" y="-422.2" font-family="Monospace" font-size="11.00">contract_initializer_after_init_17_depositeth_107_0/13</text>
<text text-anchor="start" x="398" y="-422.8" font-family="Monospace" font-size="9.00"> </text>
<text text-anchor="start" x="27" y="-411.8" font-family="Monospace" font-size="9.00"> </text>
<text text-anchor="start" x="204" y="-412.4" font-family="Monospace" font-size="7.00">local</text>
<text text-anchor="start" x="398" y="-411.8" font-family="Monospace" font-size="9.00"> </text>
</a>
</g>
</g>
<!-- contract_initializer_after_init_17_depositeth_107_0/13&#45;&gt;contract_initializer_entry_16_depositeth_107_0/13 -->
<g id="edge18" class="edge">
<title>contract_initializer_after_init_17_depositeth_107_0/13&#45;&gt;contract_initializer_entry_16_depositeth_107_0/13</title>
<path fill="none" stroke="black" d="M214.56,-401.88C214.07,-383.04 213.28,-352.47 212.71,-330.3"/>
<polygon fill="black" stroke="black" points="216.2,-330.09 212.44,-320.19 209.2,-330.27 216.2,-330.09"/>
<g id="a_edge18&#45;label"><a xlink:title="calls">
<text text-anchor="middle" x="226.5" y="-358.8" font-family="Monospace" font-size="9.00">calls</text>
</a>
</g>
</g>
<!-- contract_initializer_15_depositeth_107_0/13 -->
<g id="node17" class="node">
<title>contract_initializer_15_depositeth_107_0/13</title>
<g id="a_node17"><a xlink:title="GITHUB/SmartContractToGraph/DepositEth_wd&#45;sender&#45;rcv&#45;EOA_v8_parsed.pl">
<polygon fill="cornsilk" stroke="black" points="714.5,-556 395.5,-556 395.5,-520 714.5,-520 714.5,-556"/>
<text text-anchor="start" x="404" y="-540.8" font-family="Monospace" font-size="9.00"> </text>
<text text-anchor="start" x="410" y="-540.2" font-family="Monospace" font-size="11.00">contract_initializer_15_depositeth_107_0/13</text>
<text text-anchor="start" x="701" y="-540.8" font-family="Monospace" font-size="9.00"> </text>
<text text-anchor="start" x="404" y="-529.8" font-family="Monospace" font-size="9.00"> </text>
<text text-anchor="start" x="544" y="-530.4" font-family="Monospace" font-size="7.00">local</text>
<text text-anchor="start" x="701" y="-529.8" font-family="Monospace" font-size="9.00"> </text>
</a>
</g>
</g>
<!-- contract_initializer_15_depositeth_107_0/13&#45;&gt;summary_3_constructor_25_107_0/13 -->
<g id="edge20" class="edge">
<title>contract_initializer_15_depositeth_107_0/13&#45;&gt;summary_3_constructor_25_107_0/13</title>
<path fill="none" stroke="black" d="M555,-519.88C555,-501.04 555,-470.47 555,-448.3"/>
<polygon fill="black" stroke="black" points="558.5,-448.19 555,-438.19 551.5,-448.19 558.5,-448.19"/>
<g id="a_edge20&#45;label"><a xlink:title="calls">
<text text-anchor="middle" x="568.5" y="-476.8" font-family="Monospace" font-size="9.00">calls</text>
</a>
</g>
</g>
<!-- contract_initializer_15_depositeth_107_0/13&#45;&gt;contract_initializer_after_init_17_depositeth_107_0/13 -->
<g id="edge19" class="edge">
<title>contract_initializer_15_depositeth_107_0/13&#45;&gt;contract_initializer_after_init_17_depositeth_107_0/13</title>
<path fill="none" stroke="black" d="M504.83,-519.88C443.6,-498.99 340.17,-463.7 274.84,-441.42"/>
<polygon fill="black" stroke="black" points="275.69,-438.01 265.1,-438.09 273.43,-444.63 275.69,-438.01"/>
<g id="a_edge19&#45;label"><a xlink:title="calls">
<text text-anchor="middle" x="408.5" y="-476.8" font-family="Monospace" font-size="9.00">calls</text>
</a>
</g>
</g>
<!-- implicit_constructor_entry_18_depositeth_107_0/13 -->
<g id="node18" class="node">
<title>implicit_constructor_entry_18_depositeth_107_0/13</title>
<g id="a_node18"><a xlink:title="GITHUB/SmartContractToGraph/DepositEth_wd&#45;sender&#45;rcv&#45;EOA_v8_parsed.pl">
<polygon fill="cornsilk" stroke="black" points="377.5,-556 18.5,-556 18.5,-520 377.5,-520 377.5,-556"/>
<text text-anchor="start" x="27" y="-540.8" font-family="Monospace" font-size="9.00"> </text>
<text text-anchor="start" x="33" y="-540.2" font-family="Monospace" font-size="11.00">implicit_constructor_entry_18_depositeth_107_0/13</text>
<text text-anchor="start" x="364" y="-540.8" font-family="Monospace" font-size="9.00"> </text>
<text text-anchor="start" x="27" y="-529.8" font-family="Monospace" font-size="9.00"> </text>
<text text-anchor="start" x="187" y="-530.4" font-family="Monospace" font-size="7.00">local</text>
<text text-anchor="start" x="364" y="-529.8" font-family="Monospace" font-size="9.00"> </text>
</a>
</g>
</g>
<!-- summary_constructor_2_depositeth_107_0/13&#45;&gt;contract_initializer_15_depositeth_107_0/13 -->
<g id="edge22" class="edge">
<title>summary_constructor_2_depositeth_107_0/13&#45;&gt;contract_initializer_15_depositeth_107_0/13</title>
<path fill="none" stroke="black" d="M555,-637.88C555,-619.04 555,-588.47 555,-566.3"/>
<polygon fill="black" stroke="black" points="558.5,-566.19 555,-556.19 551.5,-566.19 558.5,-566.19"/>
<g id="a_edge22&#45;label"><a xlink:title="calls">
<text text-anchor="middle" x="568.5" y="-594.8" font-family="Monospace" font-size="9.00">calls</text>
</a>
</g>
</g>
<!-- summary_constructor_2_depositeth_107_0/13&#45;&gt;implicit_constructor_entry_18_depositeth_107_0/13 -->
<g id="edge21" class="edge">
<title>summary_constructor_2_depositeth_107_0/13&#45;&gt;implicit_constructor_entry_18_depositeth_107_0/13</title>
<path fill="none" stroke="black" d="M502.32,-637.88C437.9,-616.95 328.98,-581.56 260.41,-559.28"/>
<polygon fill="black" stroke="black" points="261.19,-555.85 250.6,-556.09 259.03,-562.51 261.19,-555.85"/>
<g id="a_edge21&#45;label"><a xlink:title="calls">
<text text-anchor="middle" x="400.5" y="-594.8" font-family="Monospace" font-size="9.00">calls</text>
</a>
</g>
</g>
<!-- error_target_3_0/0 -->
<g id="node20" class="node">
<title>error_target_3_0/0</title>
<g id="a_node20"><a xlink:title="GITHUB/SmartContractToGraph/DepositEth_wd&#45;sender&#45;rcv&#45;EOA_v8_parsed.pl">
<polygon fill="cornsilk" stroke="black" points="1050,-910 900,-910 900,-874 1050,-874 1050,-910"/>
<text text-anchor="start" x="908" y="-894.8" font-family="Monospace" font-size="9.00"> </text>
<text text-anchor="start" x="914" y="-894.2" font-family="Monospace" font-size="11.00">error_target_3_0/0</text>
<text text-anchor="start" x="1036" y="-894.8" font-family="Monospace" font-size="9.00"> </text>
<text text-anchor="start" x="908" y="-883.8" font-family="Monospace" font-size="9.00"> </text>
<text text-anchor="start" x="963.5" y="-884.4" font-family="Monospace" font-size="7.00">local</text>
<text text-anchor="start" x="1036" y="-883.8" font-family="Monospace" font-size="9.00"> </text>
</a>
</g>
</g>
<!-- error_target_3_0/0&#45;&gt;summary_5_function_withdraw__106_107_0/15 -->
<g id="edge24" class="edge">
<title>error_target_3_0/0&#45;&gt;summary_5_function_withdraw__106_107_0/15</title>
<path fill="none" stroke="black" d="M978.48,-873.83C982.48,-854.09 989.23,-820.71 995,-792 1002.53,-754.56 1011.18,-711.26 1016.61,-684.01"/>
<polygon fill="black" stroke="black" points="1020.08,-684.54 1018.6,-674.05 1013.21,-683.17 1020.08,-684.54"/>
<g id="a_edge24&#45;label"><a xlink:title="calls">
<text text-anchor="middle" x="1015.5" y="-771.8" font-family="Monospace" font-size="9.00">calls</text>
</a>
</g>
</g>
<!-- error_target_3_0/0&#45;&gt;interface_0_depositeth_107_0/7 -->
<g id="edge25" class="edge">
<title>error_target_3_0/0&#45;&gt;interface_0_depositeth_107_0/7</title>
<path fill="none" stroke="black" d="M959.51,-873.88C941.75,-854.27 912.5,-821.95 892.29,-799.63"/>
<polygon fill="black" stroke="black" points="894.86,-797.25 885.56,-792.19 889.67,-801.95 894.86,-797.25"/>
<g id="a_edge25&#45;label"><a xlink:title="calls">
<text text-anchor="middle" x="938.5" y="-830.8" font-family="Monospace" font-size="9.00">calls</text>
</a>
</g>
</g>
<!-- ff/0 -->
<g id="node21" class="node">
<title>ff/0</title>
<g id="a_node21"><a xlink:title="GITHUB/SmartContractToGraph/DepositEth_wd&#45;sender&#45;rcv&#45;EOA_v8_parsed.pl">
<polygon fill="cornsilk" stroke="black" points="1003,-1028 947,-1028 947,-992 1003,-992 1003,-1028"/>
<text text-anchor="start" x="955" y="-1012.8" font-family="Monospace" font-size="9.00"> </text>
<text text-anchor="start" x="961" y="-1012.2" font-family="Monospace" font-size="11.00">ff/0</text>
<text text-anchor="start" x="989" y="-1012.8" font-family="Monospace" font-size="9.00"> </text>
<text text-anchor="start" x="955" y="-1001.8" font-family="Monospace" font-size="9.00"> </text>
<text text-anchor="start" x="963.5" y="-1002.4" font-family="Monospace" font-size="7.00">local</text>
<text text-anchor="start" x="989" y="-1001.8" font-family="Monospace" font-size="9.00"> </text>
</a>
</g>
</g>
<!-- ff/0&#45;&gt;error_target_3_0/0 -->
<g id="edge26" class="edge">
<title>ff/0&#45;&gt;error_target_3_0/0</title>
<path fill="none" stroke="black" d="M975,-991.88C975,-973.04 975,-942.47 975,-920.3"/>
<polygon fill="black" stroke="black" points="978.5,-920.19 975,-910.19 971.5,-920.19 978.5,-920.19"/>
<g id="a_edge26&#45;label"><a xlink:title="calls">
<text text-anchor="middle" x="988.5" y="-948.8" font-family="Monospace" font-size="9.00">calls</text>
</a>
</g>
</g>
</g>
</svg>
