<?xml version="1.0" encoding="UTF-8" standalone="no"?>
<?xml-stylesheet href="diagrams.css" type="text/css"?>
<!DOCTYPE svg PUBLIC "-//W3C//DTD SVG 1.1//EN"
 "http://www.w3.org/Graphics/SVG/1.1/DTD/svg11.dtd">
<!-- Generated by graphviz version 2.43.0 (0)
 -->
<!-- Title: Caller_stor_v3_parsed_object Pages: 1 -->
<svg width="2231pt" height="1107pt"
 viewBox="72.00 72.00 2159.00 1035.00" xmlns="http://www.w3.org/2000/svg" xmlns:xlink="http://www.w3.org/1999/xlink">
<g id="graph0" class="graph" transform="scale(1 1) rotate(0) translate(76 1031)">
<title>Caller_stor_v3_parsed_object</title>
<polygon fill="white" stroke="transparent" points="-4,4 -4,-959 2083,-959 2083,4 -4,4"/>
<text text-anchor="start" x="8" y="-18" font-family="Monospace" font-size="10.00" fill="dimgray">Cross&#45;referencing diagram for object Caller_stor_v3_parsed</text>
<text text-anchor="start" x="8" y="-7" font-family="Monospace" font-size="10.00" fill="dimgray">Generated on 2024&#45;06&#45;06, 13:17</text>
<g id="clust1" class="cluster">
<title>cluster_Caller_stor_v3_parsed_object</title>
<g id="a_clust1"><a xlink:title="GITHUB/SmartContractToGraph/Caller_stor_v3_parsed">
<path fill="snow" stroke="dimgray" d="M20,-38C20,-38 2059,-38 2059,-38 2065,-38 2071,-44 2071,-50 2071,-50 2071,-935 2071,-935 2071,-941 2065,-947 2059,-947 2059,-947 20,-947 20,-947 14,-947 8,-941 8,-935 8,-935 8,-50 8,-50 8,-44 14,-38 20,-38"/>
<text text-anchor="start" x="20.5" y="-930.5" font-family="Monospace" font-size="10.00" fill="dimgray">Caller_stor_v3_parsed</text>
</a>
</g>
</g>
<!-- nondet_interface_1_callwrapper_38_0/8 -->
<g id="node1" class="node">
<title>nondet_interface_1_callwrapper_38_0/8</title>
<g id="a_node1"><a xlink:title="GITHUB/SmartContractToGraph/Caller_stor_v3_parsed">
<polygon fill="cornsilk" stroke="black" points="1950,-674 1672,-674 1672,-638 1950,-638 1950,-674"/>
<text text-anchor="start" x="1680" y="-658.8" font-family="Monospace" font-size="9.00"> </text>
<text text-anchor="start" x="1686" y="-658.2" font-family="Monospace" font-size="11.00">nondet_interface_1_callwrapper_38_0/8</text>
<text text-anchor="start" x="1936" y="-658.8" font-family="Monospace" font-size="9.00"> </text>
<text text-anchor="start" x="1680" y="-647.8" font-family="Monospace" font-size="9.00"> </text>
<text text-anchor="start" x="1799.5" y="-648.4" font-family="Monospace" font-size="7.00">local</text>
<text text-anchor="start" x="1936" y="-647.8" font-family="Monospace" font-size="9.00"> </text>
</a>
</g>
</g>
<!-- summary_4_function_callwrap__27_38_0/11 -->
<g id="node9" class="node">
<title>summary_4_function_callwrap__27_38_0/11</title>
<g id="a_node9"><a xlink:title="GITHUB/SmartContractToGraph/Caller_stor_v3_parsed">
<polygon fill="cornsilk" stroke="black" points="1957,-556 1665,-556 1665,-520 1957,-520 1957,-556"/>
<text text-anchor="start" x="1673" y="-540.8" font-family="Monospace" font-size="9.00"> </text>
<text text-anchor="start" x="1679" y="-540.2" font-family="Monospace" font-size="11.00">summary_4_function_callwrap__27_38_0/11</text>
<text text-anchor="start" x="1943" y="-540.8" font-family="Monospace" font-size="9.00"> </text>
<text text-anchor="start" x="1673" y="-529.8" font-family="Monospace" font-size="9.00"> </text>
<text text-anchor="start" x="1799.5" y="-530.4" font-family="Monospace" font-size="7.00">local</text>
<text text-anchor="start" x="1943" y="-529.8" font-family="Monospace" font-size="9.00"> </text>
</a>
</g>
</g>
<!-- nondet_interface_1_callwrapper_38_0/8&#45;&gt;summary_4_function_callwrap__27_38_0/11 -->
<g id="edge1" class="edge">
<title>nondet_interface_1_callwrapper_38_0/8&#45;&gt;summary_4_function_callwrap__27_38_0/11</title>
<path fill="none" stroke="black" d="M1811,-637.88C1811,-619.04 1811,-588.47 1811,-566.3"/>
<polygon fill="black" stroke="black" points="1814.5,-566.19 1811,-556.19 1807.5,-566.19 1814.5,-566.19"/>
<g id="a_edge1&#45;label"><a xlink:title="calls">
<text text-anchor="middle" x="1824.5" y="-594.8" font-family="Monospace" font-size="9.00">calls</text>
</a>
</g>
</g>
<!-- summary_6_function_modifystorage__37_38_0/11 -->
<g id="node16" class="node">
<title>summary_6_function_modifystorage__37_38_0/11</title>
<g id="a_node16"><a xlink:title="GITHUB/SmartContractToGraph/Caller_stor_v3_parsed">
<polygon fill="cornsilk" stroke="black" points="1411,-556 1085,-556 1085,-520 1411,-520 1411,-556"/>
<text text-anchor="start" x="1093" y="-540.8" font-family="Monospace" font-size="9.00"> </text>
<text text-anchor="start" x="1099" y="-540.2" font-family="Monospace" font-size="11.00">summary_6_function_modifystorage__37_38_0/11</text>
<text text-anchor="start" x="1397" y="-540.8" font-family="Monospace" font-size="9.00"> </text>
<text text-anchor="start" x="1093" y="-529.8" font-family="Monospace" font-size="9.00"> </text>
<text text-anchor="start" x="1236.5" y="-530.4" font-family="Monospace" font-size="7.00">local</text>
<text text-anchor="start" x="1397" y="-529.8" font-family="Monospace" font-size="9.00"> </text>
</a>
</g>
</g>
<!-- nondet_interface_1_callwrapper_38_0/8&#45;&gt;summary_6_function_modifystorage__37_38_0/11 -->
<g id="edge2" class="edge">
<title>nondet_interface_1_callwrapper_38_0/8&#45;&gt;summary_6_function_modifystorage__37_38_0/11</title>
<path fill="none" stroke="black" d="M1728.23,-637.95C1624.79,-616.63 1448.27,-580.26 1340.48,-558.05"/>
<polygon fill="black" stroke="black" points="1341.09,-554.61 1330.59,-556.02 1339.68,-561.46 1341.09,-554.61"/>
<g id="a_edge2&#45;label"><a xlink:title="calls">
<text text-anchor="middle" x="1559.5" y="-594.8" font-family="Monospace" font-size="9.00">calls</text>
</a>
</g>
</g>
<!-- block_7_function_callwrap__27_38_0/12 -->
<g id="node2" class="node">
<title>block_7_function_callwrap__27_38_0/12</title>
<g id="a_node2"><a xlink:title="GITHUB/SmartContractToGraph/Caller_stor_v3_parsed">
<polygon fill="cornsilk" stroke="black" points="1604,-84 1326,-84 1326,-48 1604,-48 1604,-84"/>
<text text-anchor="start" x="1334" y="-68.8" font-family="Monospace" font-size="9.00"> </text>
<text text-anchor="start" x="1340" y="-68.2" font-family="Monospace" font-size="11.00">block_7_function_callwrap__27_38_0/12</text>
<text text-anchor="start" x="1590" y="-68.8" font-family="Monospace" font-size="9.00"> </text>
<text text-anchor="start" x="1334" y="-57.8" font-family="Monospace" font-size="9.00"> </text>
<text text-anchor="start" x="1453.5" y="-58.4" font-family="Monospace" font-size="7.00">local</text>
<text text-anchor="start" x="1590" y="-57.8" font-family="Monospace" font-size="9.00"> </text>
</a>
</g>
</g>
<!-- block_8_callwrap_26_38_0/12 -->
<g id="node3" class="node">
<title>block_8_callwrap_26_38_0/12</title>
<g id="a_node3"><a xlink:title="GITHUB/SmartContractToGraph/Caller_stor_v3_parsed">
<polygon fill="cornsilk" stroke="black" points="1570.5,-202 1359.5,-202 1359.5,-166 1570.5,-166 1570.5,-202"/>
<text text-anchor="start" x="1368" y="-186.8" font-family="Monospace" font-size="9.00"> </text>
<text text-anchor="start" x="1374" y="-186.2" font-family="Monospace" font-size="11.00">block_8_callwrap_26_38_0/12</text>
<text text-anchor="start" x="1557" y="-186.8" font-family="Monospace" font-size="9.00"> </text>
<text text-anchor="start" x="1368" y="-175.8" font-family="Monospace" font-size="9.00"> </text>
<text text-anchor="start" x="1454" y="-176.4" font-family="Monospace" font-size="7.00">local</text>
<text text-anchor="start" x="1557" y="-175.8" font-family="Monospace" font-size="9.00"> </text>
</a>
</g>
</g>
<!-- block_8_callwrap_26_38_0/12&#45;&gt;block_7_function_callwrap__27_38_0/12 -->
<g id="edge3" class="edge">
<title>block_8_callwrap_26_38_0/12&#45;&gt;block_7_function_callwrap__27_38_0/12</title>
<path fill="none" stroke="black" d="M1465,-165.88C1465,-147.04 1465,-116.47 1465,-94.3"/>
<polygon fill="black" stroke="black" points="1468.5,-94.19 1465,-84.19 1461.5,-94.19 1468.5,-94.19"/>
<g id="a_edge3&#45;label"><a xlink:title="calls">
<text text-anchor="middle" x="1478.5" y="-122.8" font-family="Monospace" font-size="9.00">calls</text>
</a>
</g>
</g>
<!-- nondet_call_10_0/8 -->
<g id="node4" class="node">
<title>nondet_call_10_0/8</title>
<g id="a_node4"><a xlink:title="GITHUB/SmartContractToGraph/Caller_stor_v3_parsed">
<polygon fill="cornsilk" stroke="black" points="1963,-202 1813,-202 1813,-166 1963,-166 1963,-202"/>
<text text-anchor="start" x="1821" y="-186.8" font-family="Monospace" font-size="9.00"> </text>
<text text-anchor="start" x="1827" y="-186.2" font-family="Monospace" font-size="11.00">nondet_call_10_0/8</text>
<text text-anchor="start" x="1949" y="-186.8" font-family="Monospace" font-size="9.00"> </text>
<text text-anchor="start" x="1821" y="-175.8" font-family="Monospace" font-size="9.00"> </text>
<text text-anchor="start" x="1876.5" y="-176.4" font-family="Monospace" font-size="7.00">local</text>
<text text-anchor="start" x="1949" y="-175.8" font-family="Monospace" font-size="9.00"> </text>
</a>
</g>
</g>
<!-- nondet_call_10_0/8&#45;&gt;nondet_interface_1_callwrapper_38_0/8 -->
<g id="edge4" class="edge">
<title>nondet_call_10_0/8&#45;&gt;nondet_interface_1_callwrapper_38_0/8</title>
<path fill="none" stroke="black" d="M1916.84,-202.08C1942.71,-219.18 1979.13,-248.09 1996,-284 2003.75,-300.51 2014.26,-394.97 2007,-438 1997.76,-492.75 2000.41,-512.43 1966,-556 1938.6,-590.7 1895.49,-616.83 1861.68,-633.5"/>
<polygon fill="black" stroke="black" points="1859.91,-630.47 1852.41,-637.96 1862.94,-636.78 1859.91,-630.47"/>
<g id="a_edge4&#45;label"><a xlink:title="calls">
<text text-anchor="middle" x="2022.5" y="-417.8" font-family="Monospace" font-size="9.00">calls</text>
</a>
</g>
</g>
<!-- summary_3_function_callwrap__27_38_0/11 -->
<g id="node5" class="node">
<title>summary_3_function_callwrap__27_38_0/11</title>
<g id="a_node5"><a xlink:title="GITHUB/SmartContractToGraph/Caller_stor_v3_parsed">
<polygon fill="cornsilk" stroke="black" points="1998,-438 1706,-438 1706,-402 1998,-402 1998,-438"/>
<text text-anchor="start" x="1714" y="-422.8" font-family="Monospace" font-size="9.00"> </text>
<text text-anchor="start" x="1720" y="-422.2" font-family="Monospace" font-size="11.00">summary_3_function_callwrap__27_38_0/11</text>
<text text-anchor="start" x="1984" y="-422.8" font-family="Monospace" font-size="9.00"> </text>
<text text-anchor="start" x="1714" y="-411.8" font-family="Monospace" font-size="9.00"> </text>
<text text-anchor="start" x="1840.5" y="-412.4" font-family="Monospace" font-size="7.00">local</text>
<text text-anchor="start" x="1984" y="-411.8" font-family="Monospace" font-size="9.00"> </text>
</a>
</g>
</g>
<!-- summary_3_function_callwrap__27_38_0/11&#45;&gt;block_8_callwrap_26_38_0/12 -->
<g id="edge5" class="edge">
<title>summary_3_function_callwrap__27_38_0/11&#45;&gt;block_8_callwrap_26_38_0/12</title>
<path fill="none" stroke="black" d="M1731.94,-401.95C1570.34,-378.43 1301.29,-337.01 1287,-320 1245.81,-270.96 1331.82,-229.02 1398.07,-205.42"/>
<polygon fill="black" stroke="black" points="1399.39,-208.66 1407.68,-202.07 1397.09,-202.05 1399.39,-208.66"/>
<g id="a_edge5&#45;label"><a xlink:title="calls">
<text text-anchor="middle" x="1300.5" y="-299.8" font-family="Monospace" font-size="9.00">calls</text>
</a>
</g>
</g>
<!-- summary_3_function_callwrap__27_38_0/11&#45;&gt;nondet_call_10_0/8 -->
<g id="edge6" class="edge">
<title>summary_3_function_callwrap__27_38_0/11&#45;&gt;nondet_call_10_0/8</title>
<path fill="none" stroke="black" d="M1882.02,-401.85C1908.39,-384.88 1944.96,-356.23 1961,-320 1978.74,-279.91 1943.53,-235.59 1916.09,-209.03"/>
<polygon fill="black" stroke="black" points="1918.31,-206.31 1908.61,-202.03 1913.52,-211.42 1918.31,-206.31"/>
<g id="a_edge6&#45;label"><a xlink:title="calls">
<text text-anchor="middle" x="1978.5" y="-299.8" font-family="Monospace" font-size="9.00">calls</text>
</a>
</g>
</g>
<!-- block_11_function_callwrap__27_38_0/12 -->
<g id="node6" class="node">
<title>block_11_function_callwrap__27_38_0/12</title>
<g id="a_node6"><a xlink:title="GITHUB/SmartContractToGraph/Caller_stor_v3_parsed">
<polygon fill="cornsilk" stroke="black" points="1607.5,-320 1322.5,-320 1322.5,-284 1607.5,-284 1607.5,-320"/>
<text text-anchor="start" x="1331" y="-304.8" font-family="Monospace" font-size="9.00"> </text>
<text text-anchor="start" x="1337" y="-304.2" font-family="Monospace" font-size="11.00">block_11_function_callwrap__27_38_0/12</text>
<text text-anchor="start" x="1594" y="-304.8" font-family="Monospace" font-size="9.00"> </text>
<text text-anchor="start" x="1331" y="-293.8" font-family="Monospace" font-size="9.00"> </text>
<text text-anchor="start" x="1454" y="-294.4" font-family="Monospace" font-size="7.00">local</text>
<text text-anchor="start" x="1594" y="-293.8" font-family="Monospace" font-size="9.00"> </text>
</a>
</g>
</g>
<!-- summary_3_function_callwrap__27_38_0/11&#45;&gt;block_11_function_callwrap__27_38_0/12 -->
<g id="edge9" class="edge">
<title>summary_3_function_callwrap__27_38_0/11&#45;&gt;block_11_function_callwrap__27_38_0/12</title>
<path fill="none" stroke="black" d="M1794.9,-401.88C1724.77,-380.86 1606.02,-345.27 1531.75,-323.01"/>
<polygon fill="black" stroke="black" points="1532.61,-319.61 1522.02,-320.09 1530.6,-326.32 1532.61,-319.61"/>
<g id="a_edge9&#45;label"><a xlink:title="calls">
<text text-anchor="middle" x="1683.5" y="-358.8" font-family="Monospace" font-size="9.00">calls</text>
</a>
</g>
</g>
<!-- block_9_return_function_callwrap__27_38_0/12 -->
<g id="node7" class="node">
<title>block_9_return_function_callwrap__27_38_0/12</title>
<g id="a_node7"><a xlink:title="GITHUB/SmartContractToGraph/Caller_stor_v3_parsed">
<polygon fill="cornsilk" stroke="black" points="1952,-320 1626,-320 1626,-284 1952,-284 1952,-320"/>
<text text-anchor="start" x="1634" y="-304.8" font-family="Monospace" font-size="9.00"> </text>
<text text-anchor="start" x="1640" y="-304.2" font-family="Monospace" font-size="11.00">block_9_return_function_callwrap__27_38_0/12</text>
<text text-anchor="start" x="1938" y="-304.8" font-family="Monospace" font-size="9.00"> </text>
<text text-anchor="start" x="1634" y="-293.8" font-family="Monospace" font-size="9.00"> </text>
<text text-anchor="start" x="1777.5" y="-294.4" font-family="Monospace" font-size="7.00">local</text>
<text text-anchor="start" x="1938" y="-293.8" font-family="Monospace" font-size="9.00"> </text>
</a>
</g>
</g>
<!-- summary_3_function_callwrap__27_38_0/11&#45;&gt;block_9_return_function_callwrap__27_38_0/12 -->
<g id="edge12" class="edge">
<title>summary_3_function_callwrap__27_38_0/11&#45;&gt;block_9_return_function_callwrap__27_38_0/12</title>
<path fill="none" stroke="black" d="M1842.7,-401.88C1832.28,-382.69 1815.26,-351.35 1803.18,-329.1"/>
<polygon fill="black" stroke="black" points="1806.18,-327.3 1798.33,-320.19 1800.03,-330.64 1806.18,-327.3"/>
<g id="a_edge12&#45;label"><a xlink:title="calls">
<text text-anchor="middle" x="1835.5" y="-358.8" font-family="Monospace" font-size="9.00">calls</text>
</a>
</g>
</g>
<!-- block_11_function_callwrap__27_38_0/12&#45;&gt;block_8_callwrap_26_38_0/12 -->
<g id="edge7" class="edge">
<title>block_11_function_callwrap__27_38_0/12&#45;&gt;block_8_callwrap_26_38_0/12</title>
<path fill="none" stroke="black" d="M1465,-283.88C1465,-265.04 1465,-234.47 1465,-212.3"/>
<polygon fill="black" stroke="black" points="1468.5,-212.19 1465,-202.19 1461.5,-212.19 1468.5,-212.19"/>
<g id="a_edge7&#45;label"><a xlink:title="calls">
<text text-anchor="middle" x="1478.5" y="-240.8" font-family="Monospace" font-size="9.00">calls</text>
</a>
</g>
</g>
<!-- block_11_function_callwrap__27_38_0/12&#45;&gt;nondet_call_10_0/8 -->
<g id="edge8" class="edge">
<title>block_11_function_callwrap__27_38_0/12&#45;&gt;nondet_call_10_0/8</title>
<path fill="none" stroke="black" d="M1496.22,-283.93C1523.43,-269.72 1564.32,-249.95 1602,-238 1667.96,-217.08 1745.24,-203.37 1802.83,-195.15"/>
<polygon fill="black" stroke="black" points="1803.57,-198.58 1812.99,-193.72 1802.6,-191.65 1803.57,-198.58"/>
<g id="a_edge8&#45;label"><a xlink:title="calls">
<text text-anchor="middle" x="1615.5" y="-240.8" font-family="Monospace" font-size="9.00">calls</text>
</a>
</g>
</g>
<!-- block_9_return_function_callwrap__27_38_0/12&#45;&gt;block_8_callwrap_26_38_0/12 -->
<g id="edge10" class="edge">
<title>block_9_return_function_callwrap__27_38_0/12&#45;&gt;block_8_callwrap_26_38_0/12</title>
<path fill="none" stroke="black" d="M1749.25,-283.95C1717.92,-270.75 1673,-252.36 1633,-238 1600.27,-226.25 1563.48,-214.48 1532.68,-205.03"/>
<polygon fill="black" stroke="black" points="1533.5,-201.62 1522.91,-202.05 1531.45,-208.31 1533.5,-201.62"/>
<g id="a_edge10&#45;label"><a xlink:title="calls">
<text text-anchor="middle" x="1671.5" y="-240.8" font-family="Monospace" font-size="9.00">calls</text>
</a>
</g>
</g>
<!-- block_9_return_function_callwrap__27_38_0/12&#45;&gt;nondet_call_10_0/8 -->
<g id="edge11" class="edge">
<title>block_9_return_function_callwrap__27_38_0/12&#45;&gt;nondet_call_10_0/8</title>
<path fill="none" stroke="black" d="M1803.61,-283.88C1820.28,-264.35 1847.69,-232.23 1866.73,-209.92"/>
<polygon fill="black" stroke="black" points="1869.5,-212.06 1873.33,-202.19 1864.18,-207.52 1869.5,-212.06"/>
<g id="a_edge11&#45;label"><a xlink:title="calls">
<text text-anchor="middle" x="1854.5" y="-240.8" font-family="Monospace" font-size="9.00">calls</text>
</a>
</g>
</g>
<!-- block_12_function_callwrap__27_38_0/12 -->
<g id="node8" class="node">
<title>block_12_function_callwrap__27_38_0/12</title>
<g id="a_node8"><a xlink:title="GITHUB/SmartContractToGraph/Caller_stor_v3_parsed">
<polygon fill="cornsilk" stroke="black" points="1687.5,-438 1402.5,-438 1402.5,-402 1687.5,-402 1687.5,-438"/>
<text text-anchor="start" x="1411" y="-422.8" font-family="Monospace" font-size="9.00"> </text>
<text text-anchor="start" x="1417" y="-422.2" font-family="Monospace" font-size="11.00">block_12_function_callwrap__27_38_0/12</text>
<text text-anchor="start" x="1674" y="-422.8" font-family="Monospace" font-size="9.00"> </text>
<text text-anchor="start" x="1411" y="-411.8" font-family="Monospace" font-size="9.00"> </text>
<text text-anchor="start" x="1534" y="-412.4" font-family="Monospace" font-size="7.00">local</text>
<text text-anchor="start" x="1674" y="-411.8" font-family="Monospace" font-size="9.00"> </text>
</a>
</g>
</g>
<!-- summary_4_function_callwrap__27_38_0/11&#45;&gt;summary_3_function_callwrap__27_38_0/11 -->
<g id="edge14" class="edge">
<title>summary_4_function_callwrap__27_38_0/11&#45;&gt;summary_3_function_callwrap__27_38_0/11</title>
<path fill="none" stroke="black" d="M1817.05,-519.88C1823.77,-500.86 1834.71,-469.91 1842.56,-447.7"/>
<polygon fill="black" stroke="black" points="1845.89,-448.78 1845.93,-438.19 1839.29,-446.45 1845.89,-448.78"/>
<g id="a_edge14&#45;label"><a xlink:title="calls">
<text text-anchor="middle" x="1845.5" y="-476.8" font-family="Monospace" font-size="9.00">calls</text>
</a>
</g>
</g>
<!-- summary_4_function_callwrap__27_38_0/11&#45;&gt;block_12_function_callwrap__27_38_0/12 -->
<g id="edge13" class="edge">
<title>summary_4_function_callwrap__27_38_0/11&#45;&gt;block_12_function_callwrap__27_38_0/12</title>
<path fill="none" stroke="black" d="M1771.75,-519.88C1724.41,-499.24 1644.81,-464.53 1593.62,-442.2"/>
<polygon fill="black" stroke="black" points="1594.98,-438.98 1584.41,-438.19 1592.18,-445.39 1594.98,-438.98"/>
<g id="a_edge13&#45;label"><a xlink:title="calls">
<text text-anchor="middle" x="1698.5" y="-476.8" font-family="Monospace" font-size="9.00">calls</text>
</a>
</g>
</g>
<!-- interface_0_callwrapper_38_0/5 -->
<g id="node10" class="node">
<title>interface_0_callwrapper_38_0/5</title>
<g id="a_node10"><a xlink:title="GITHUB/SmartContractToGraph/Caller_stor_v3_parsed">
<polygon fill="cornsilk" stroke="black" points="1510.5,-674 1279.5,-674 1279.5,-638 1510.5,-638 1510.5,-674"/>
<text text-anchor="start" x="1288" y="-658.8" font-family="Monospace" font-size="9.00"> </text>
<text text-anchor="start" x="1294" y="-658.2" font-family="Monospace" font-size="11.00">interface_0_callwrapper_38_0/5</text>
<text text-anchor="start" x="1497" y="-658.8" font-family="Monospace" font-size="9.00"> </text>
<text text-anchor="start" x="1288" y="-647.8" font-family="Monospace" font-size="9.00"> </text>
<text text-anchor="start" x="1384" y="-648.4" font-family="Monospace" font-size="7.00">local</text>
<text text-anchor="start" x="1497" y="-647.8" font-family="Monospace" font-size="9.00"> </text>
</a>
</g>
</g>
<!-- interface_0_callwrapper_38_0/5&#45;&gt;summary_4_function_callwrap__27_38_0/11 -->
<g id="edge15" class="edge">
<title>interface_0_callwrapper_38_0/5&#45;&gt;summary_4_function_callwrap__27_38_0/11</title>
<path fill="none" stroke="black" d="M1410.65,-637.85C1425.08,-623.18 1447.87,-602.79 1472,-592 1528.68,-566.66 1595.39,-553.17 1654.58,-546.08"/>
<polygon fill="black" stroke="black" points="1655.24,-549.53 1664.77,-544.91 1654.44,-542.57 1655.24,-549.53"/>
<g id="a_edge15&#45;label"><a xlink:title="calls">
<text text-anchor="middle" x="1485.5" y="-594.8" font-family="Monospace" font-size="9.00">calls</text>
</a>
</g>
</g>
<!-- interface_0_callwrapper_38_0/5&#45;&gt;summary_6_function_modifystorage__37_38_0/11 -->
<g id="edge21" class="edge">
<title>interface_0_callwrapper_38_0/5&#45;&gt;summary_6_function_modifystorage__37_38_0/11</title>
<path fill="none" stroke="black" d="M1373.31,-637.88C1348.01,-617.92 1306.06,-584.82 1277.74,-562.47"/>
<polygon fill="black" stroke="black" points="1279.8,-559.63 1269.78,-556.19 1275.46,-565.13 1279.8,-559.63"/>
<g id="a_edge21&#45;label"><a xlink:title="calls">
<text text-anchor="middle" x="1338.5" y="-594.8" font-family="Monospace" font-size="9.00">calls</text>
</a>
</g>
</g>
<!-- summary_constructor_2_callwrapper_38_0/9 -->
<g id="node21" class="node">
<title>summary_constructor_2_callwrapper_38_0/9</title>
<g id="a_node21"><a xlink:title="GITHUB/SmartContractToGraph/Caller_stor_v3_parsed">
<polygon fill="cornsilk" stroke="black" points="695.5,-556 396.5,-556 396.5,-520 695.5,-520 695.5,-556"/>
<text text-anchor="start" x="405" y="-540.8" font-family="Monospace" font-size="9.00"> </text>
<text text-anchor="start" x="411" y="-540.2" font-family="Monospace" font-size="11.00">summary_constructor_2_callwrapper_38_0/9</text>
<text text-anchor="start" x="682" y="-540.8" font-family="Monospace" font-size="9.00"> </text>
<text text-anchor="start" x="405" y="-529.8" font-family="Monospace" font-size="9.00"> </text>
<text text-anchor="start" x="535" y="-530.4" font-family="Monospace" font-size="7.00">local</text>
<text text-anchor="start" x="682" y="-529.8" font-family="Monospace" font-size="9.00"> </text>
</a>
</g>
</g>
<!-- interface_0_callwrapper_38_0/5&#45;&gt;summary_constructor_2_callwrapper_38_0/9 -->
<g id="edge26" class="edge">
<title>interface_0_callwrapper_38_0/5&#45;&gt;summary_constructor_2_callwrapper_38_0/9</title>
<path fill="none" stroke="black" d="M1279.17,-639.17C1123.17,-617.86 846.09,-580 680.88,-557.43"/>
<polygon fill="black" stroke="black" points="681.03,-553.92 670.65,-556.03 680.08,-560.85 681.03,-553.92"/>
<g id="a_edge26&#45;label"><a xlink:title="calls">
<text text-anchor="middle" x="1008.5" y="-594.8" font-family="Monospace" font-size="9.00">calls</text>
</a>
</g>
</g>
<!-- block_13_function_modifystorage__37_38_0/11 -->
<g id="node11" class="node">
<title>block_13_function_modifystorage__37_38_0/11</title>
<g id="a_node11"><a xlink:title="GITHUB/SmartContractToGraph/Caller_stor_v3_parsed">
<polygon fill="cornsilk" stroke="black" points="1217.5,-84 898.5,-84 898.5,-48 1217.5,-48 1217.5,-84"/>
<text text-anchor="start" x="907" y="-68.8" font-family="Monospace" font-size="9.00"> </text>
<text text-anchor="start" x="913" y="-68.2" font-family="Monospace" font-size="11.00">block_13_function_modifystorage__37_38_0/11</text>
<text text-anchor="start" x="1204" y="-68.8" font-family="Monospace" font-size="9.00"> </text>
<text text-anchor="start" x="907" y="-57.8" font-family="Monospace" font-size="9.00"> </text>
<text text-anchor="start" x="1047" y="-58.4" font-family="Monospace" font-size="7.00">local</text>
<text text-anchor="start" x="1204" y="-57.8" font-family="Monospace" font-size="9.00"> </text>
</a>
</g>
</g>
<!-- block_14_modifystorage_36_38_0/11 -->
<g id="node12" class="node">
<title>block_14_modifystorage_36_38_0/11</title>
<g id="a_node12"><a xlink:title="GITHUB/SmartContractToGraph/Caller_stor_v3_parsed">
<polygon fill="cornsilk" stroke="black" points="1183.5,-202 932.5,-202 932.5,-166 1183.5,-166 1183.5,-202"/>
<text text-anchor="start" x="941" y="-186.8" font-family="Monospace" font-size="9.00"> </text>
<text text-anchor="start" x="947" y="-186.2" font-family="Monospace" font-size="11.00">block_14_modifystorage_36_38_0/11</text>
<text text-anchor="start" x="1170" y="-186.8" font-family="Monospace" font-size="9.00"> </text>
<text text-anchor="start" x="941" y="-175.8" font-family="Monospace" font-size="9.00"> </text>
<text text-anchor="start" x="1047" y="-176.4" font-family="Monospace" font-size="7.00">local</text>
<text text-anchor="start" x="1170" y="-175.8" font-family="Monospace" font-size="9.00"> </text>
</a>
</g>
</g>
<!-- block_14_modifystorage_36_38_0/11&#45;&gt;block_13_function_modifystorage__37_38_0/11 -->
<g id="edge16" class="edge">
<title>block_14_modifystorage_36_38_0/11&#45;&gt;block_13_function_modifystorage__37_38_0/11</title>
<path fill="none" stroke="black" d="M1058,-165.88C1058,-147.04 1058,-116.47 1058,-94.3"/>
<polygon fill="black" stroke="black" points="1061.5,-94.19 1058,-84.19 1054.5,-94.19 1061.5,-94.19"/>
<g id="a_edge16&#45;label"><a xlink:title="calls">
<text text-anchor="middle" x="1071.5" y="-122.8" font-family="Monospace" font-size="9.00">calls</text>
</a>
</g>
</g>
<!-- block_15_return_function_modifystorage__37_38_0/11 -->
<g id="node13" class="node">
<title>block_15_return_function_modifystorage__37_38_0/11</title>
<g id="a_node13"><a xlink:title="GITHUB/SmartContractToGraph/Caller_stor_v3_parsed">
<polygon fill="cornsilk" stroke="black" points="1241,-320 875,-320 875,-284 1241,-284 1241,-320"/>
<text text-anchor="start" x="883" y="-304.8" font-family="Monospace" font-size="9.00"> </text>
<text text-anchor="start" x="889" y="-304.2" font-family="Monospace" font-size="11.00">block_15_return_function_modifystorage__37_38_0/11</text>
<text text-anchor="start" x="1227" y="-304.8" font-family="Monospace" font-size="9.00"> </text>
<text text-anchor="start" x="883" y="-293.8" font-family="Monospace" font-size="9.00"> </text>
<text text-anchor="start" x="1046.5" y="-294.4" font-family="Monospace" font-size="7.00">local</text>
<text text-anchor="start" x="1227" y="-293.8" font-family="Monospace" font-size="9.00"> </text>
</a>
</g>
</g>
<!-- block_15_return_function_modifystorage__37_38_0/11&#45;&gt;block_14_modifystorage_36_38_0/11 -->
<g id="edge17" class="edge">
<title>block_15_return_function_modifystorage__37_38_0/11&#45;&gt;block_14_modifystorage_36_38_0/11</title>
<path fill="none" stroke="black" d="M1058,-283.88C1058,-265.04 1058,-234.47 1058,-212.3"/>
<polygon fill="black" stroke="black" points="1061.5,-212.19 1058,-202.19 1054.5,-212.19 1061.5,-212.19"/>
<g id="a_edge17&#45;label"><a xlink:title="calls">
<text text-anchor="middle" x="1071.5" y="-240.8" font-family="Monospace" font-size="9.00">calls</text>
</a>
</g>
</g>
<!-- summary_5_function_modifystorage__37_38_0/11 -->
<g id="node14" class="node">
<title>summary_5_function_modifystorage__37_38_0/11</title>
<g id="a_node14"><a xlink:title="GITHUB/SmartContractToGraph/Caller_stor_v3_parsed">
<polygon fill="cornsilk" stroke="black" points="1384,-438 1058,-438 1058,-402 1384,-402 1384,-438"/>
<text text-anchor="start" x="1066" y="-422.8" font-family="Monospace" font-size="9.00"> </text>
<text text-anchor="start" x="1072" y="-422.2" font-family="Monospace" font-size="11.00">summary_5_function_modifystorage__37_38_0/11</text>
<text text-anchor="start" x="1370" y="-422.8" font-family="Monospace" font-size="9.00"> </text>
<text text-anchor="start" x="1066" y="-411.8" font-family="Monospace" font-size="9.00"> </text>
<text text-anchor="start" x="1209.5" y="-412.4" font-family="Monospace" font-size="7.00">local</text>
<text text-anchor="start" x="1370" y="-411.8" font-family="Monospace" font-size="9.00"> </text>
</a>
</g>
</g>
<!-- summary_5_function_modifystorage__37_38_0/11&#45;&gt;block_15_return_function_modifystorage__37_38_0/11 -->
<g id="edge18" class="edge">
<title>summary_5_function_modifystorage__37_38_0/11&#45;&gt;block_15_return_function_modifystorage__37_38_0/11</title>
<path fill="none" stroke="black" d="M1196.95,-401.88C1168.78,-381.84 1121.98,-348.53 1090.57,-326.18"/>
<polygon fill="black" stroke="black" points="1092.33,-323.13 1082.15,-320.19 1088.27,-328.84 1092.33,-323.13"/>
<g id="a_edge18&#45;label"><a xlink:title="calls">
<text text-anchor="middle" x="1157.5" y="-358.8" font-family="Monospace" font-size="9.00">calls</text>
</a>
</g>
</g>
<!-- block_16_function_modifystorage__37_38_0/11 -->
<g id="node15" class="node">
<title>block_16_function_modifystorage__37_38_0/11</title>
<g id="a_node15"><a xlink:title="GITHUB/SmartContractToGraph/Caller_stor_v3_parsed">
<polygon fill="cornsilk" stroke="black" points="1039.5,-438 720.5,-438 720.5,-402 1039.5,-402 1039.5,-438"/>
<text text-anchor="start" x="729" y="-422.8" font-family="Monospace" font-size="9.00"> </text>
<text text-anchor="start" x="735" y="-422.2" font-family="Monospace" font-size="11.00">block_16_function_modifystorage__37_38_0/11</text>
<text text-anchor="start" x="1026" y="-422.8" font-family="Monospace" font-size="9.00"> </text>
<text text-anchor="start" x="729" y="-411.8" font-family="Monospace" font-size="9.00"> </text>
<text text-anchor="start" x="869" y="-412.4" font-family="Monospace" font-size="7.00">local</text>
<text text-anchor="start" x="1026" y="-411.8" font-family="Monospace" font-size="9.00"> </text>
</a>
</g>
</g>
<!-- summary_6_function_modifystorage__37_38_0/11&#45;&gt;summary_5_function_modifystorage__37_38_0/11 -->
<g id="edge20" class="edge">
<title>summary_6_function_modifystorage__37_38_0/11&#45;&gt;summary_5_function_modifystorage__37_38_0/11</title>
<path fill="none" stroke="black" d="M1244.02,-519.88C1239.61,-500.95 1232.45,-470.19 1227.29,-448"/>
<polygon fill="black" stroke="black" points="1230.68,-447.13 1225,-438.19 1223.86,-448.72 1230.68,-447.13"/>
<g id="a_edge20&#45;label"><a xlink:title="calls">
<text text-anchor="middle" x="1248.5" y="-476.8" font-family="Monospace" font-size="9.00">calls</text>
</a>
</g>
</g>
<!-- summary_6_function_modifystorage__37_38_0/11&#45;&gt;block_16_function_modifystorage__37_38_0/11 -->
<g id="edge19" class="edge">
<title>summary_6_function_modifystorage__37_38_0/11&#45;&gt;block_16_function_modifystorage__37_38_0/11</title>
<path fill="none" stroke="black" d="M1193.7,-519.88C1127.15,-498.91 1014.56,-463.41 943.9,-441.14"/>
<polygon fill="black" stroke="black" points="944.81,-437.76 934.22,-438.09 942.71,-444.44 944.81,-437.76"/>
<g id="a_edge19&#45;label"><a xlink:title="calls">
<text text-anchor="middle" x="1088.5" y="-476.8" font-family="Monospace" font-size="9.00">calls</text>
</a>
</g>
</g>
<!-- contract_initializer_entry_18_callwrapper_38_0/9 -->
<g id="node17" class="node">
<title>contract_initializer_entry_18_callwrapper_38_0/9</title>
<g id="a_node17"><a xlink:title="GITHUB/SmartContractToGraph/Caller_stor_v3_parsed">
<polygon fill="cornsilk" stroke="black" points="722.5,-202 369.5,-202 369.5,-166 722.5,-166 722.5,-202"/>
<text text-anchor="start" x="378" y="-186.8" font-family="Monospace" font-size="9.00"> </text>
<text text-anchor="start" x="384" y="-186.2" font-family="Monospace" font-size="11.00">contract_initializer_entry_18_callwrapper_38_0/9</text>
<text text-anchor="start" x="709" y="-186.8" font-family="Monospace" font-size="9.00"> </text>
<text text-anchor="start" x="378" y="-175.8" font-family="Monospace" font-size="9.00"> </text>
<text text-anchor="start" x="535" y="-176.4" font-family="Monospace" font-size="7.00">local</text>
<text text-anchor="start" x="709" y="-175.8" font-family="Monospace" font-size="9.00"> </text>
</a>
</g>
</g>
<!-- contract_initializer_after_init_19_callwrapper_38_0/9 -->
<g id="node18" class="node">
<title>contract_initializer_after_init_19_callwrapper_38_0/9</title>
<g id="a_node18"><a xlink:title="GITHUB/SmartContractToGraph/Caller_stor_v3_parsed">
<polygon fill="cornsilk" stroke="black" points="739,-320 353,-320 353,-284 739,-284 739,-320"/>
<text text-anchor="start" x="361" y="-304.8" font-family="Monospace" font-size="9.00"> </text>
<text text-anchor="start" x="367" y="-304.2" font-family="Monospace" font-size="11.00">contract_initializer_after_init_19_callwrapper_38_0/9</text>
<text text-anchor="start" x="725" y="-304.8" font-family="Monospace" font-size="9.00"> </text>
<text text-anchor="start" x="361" y="-293.8" font-family="Monospace" font-size="9.00"> </text>
<text text-anchor="start" x="534.5" y="-294.4" font-family="Monospace" font-size="7.00">local</text>
<text text-anchor="start" x="725" y="-293.8" font-family="Monospace" font-size="9.00"> </text>
</a>
</g>
</g>
<!-- contract_initializer_after_init_19_callwrapper_38_0/9&#45;&gt;contract_initializer_entry_18_callwrapper_38_0/9 -->
<g id="edge22" class="edge">
<title>contract_initializer_after_init_19_callwrapper_38_0/9&#45;&gt;contract_initializer_entry_18_callwrapper_38_0/9</title>
<path fill="none" stroke="black" d="M546,-283.88C546,-265.04 546,-234.47 546,-212.3"/>
<polygon fill="black" stroke="black" points="549.5,-212.19 546,-202.19 542.5,-212.19 549.5,-212.19"/>
<g id="a_edge22&#45;label"><a xlink:title="calls">
<text text-anchor="middle" x="559.5" y="-240.8" font-family="Monospace" font-size="9.00">calls</text>
</a>
</g>
</g>
<!-- contract_initializer_17_callwrapper_38_0/9 -->
<g id="node19" class="node">
<title>contract_initializer_17_callwrapper_38_0/9</title>
<g id="a_node19"><a xlink:title="GITHUB/SmartContractToGraph/Caller_stor_v3_parsed">
<polygon fill="cornsilk" stroke="black" points="702,-438 390,-438 390,-402 702,-402 702,-438"/>
<text text-anchor="start" x="398" y="-422.8" font-family="Monospace" font-size="9.00"> </text>
<text text-anchor="start" x="404" y="-422.2" font-family="Monospace" font-size="11.00">contract_initializer_17_callwrapper_38_0/9</text>
<text text-anchor="start" x="688" y="-422.8" font-family="Monospace" font-size="9.00"> </text>
<text text-anchor="start" x="398" y="-411.8" font-family="Monospace" font-size="9.00"> </text>
<text text-anchor="start" x="534.5" y="-412.4" font-family="Monospace" font-size="7.00">local</text>
<text text-anchor="start" x="688" y="-411.8" font-family="Monospace" font-size="9.00"> </text>
</a>
</g>
</g>
<!-- contract_initializer_17_callwrapper_38_0/9&#45;&gt;contract_initializer_after_init_19_callwrapper_38_0/9 -->
<g id="edge23" class="edge">
<title>contract_initializer_17_callwrapper_38_0/9&#45;&gt;contract_initializer_after_init_19_callwrapper_38_0/9</title>
<path fill="none" stroke="black" d="M546,-401.88C546,-383.04 546,-352.47 546,-330.3"/>
<polygon fill="black" stroke="black" points="549.5,-330.19 546,-320.19 542.5,-330.19 549.5,-330.19"/>
<g id="a_edge23&#45;label"><a xlink:title="calls">
<text text-anchor="middle" x="559.5" y="-358.8" font-family="Monospace" font-size="9.00">calls</text>
</a>
</g>
</g>
<!-- implicit_constructor_entry_20_callwrapper_38_0/9 -->
<g id="node20" class="node">
<title>implicit_constructor_entry_20_callwrapper_38_0/9</title>
<g id="a_node20"><a xlink:title="GITHUB/SmartContractToGraph/Caller_stor_v3_parsed">
<polygon fill="cornsilk" stroke="black" points="371.5,-438 18.5,-438 18.5,-402 371.5,-402 371.5,-438"/>
<text text-anchor="start" x="27" y="-422.8" font-family="Monospace" font-size="9.00"> </text>
<text text-anchor="start" x="33" y="-422.2" font-family="Monospace" font-size="11.00">implicit_constructor_entry_20_callwrapper_38_0/9</text>
<text text-anchor="start" x="358" y="-422.8" font-family="Monospace" font-size="9.00"> </text>
<text text-anchor="start" x="27" y="-411.8" font-family="Monospace" font-size="9.00"> </text>
<text text-anchor="start" x="184" y="-412.4" font-family="Monospace" font-size="7.00">local</text>
<text text-anchor="start" x="358" y="-411.8" font-family="Monospace" font-size="9.00"> </text>
</a>
</g>
</g>
<!-- summary_constructor_2_callwrapper_38_0/9&#45;&gt;contract_initializer_17_callwrapper_38_0/9 -->
<g id="edge25" class="edge">
<title>summary_constructor_2_callwrapper_38_0/9&#45;&gt;contract_initializer_17_callwrapper_38_0/9</title>
<path fill="none" stroke="black" d="M546,-519.88C546,-501.04 546,-470.47 546,-448.3"/>
<polygon fill="black" stroke="black" points="549.5,-448.19 546,-438.19 542.5,-448.19 549.5,-448.19"/>
<g id="a_edge25&#45;label"><a xlink:title="calls">
<text text-anchor="middle" x="559.5" y="-476.8" font-family="Monospace" font-size="9.00">calls</text>
</a>
</g>
</g>
<!-- summary_constructor_2_callwrapper_38_0/9&#45;&gt;implicit_constructor_entry_20_callwrapper_38_0/9 -->
<g id="edge24" class="edge">
<title>summary_constructor_2_callwrapper_38_0/9&#45;&gt;implicit_constructor_entry_20_callwrapper_38_0/9</title>
<path fill="none" stroke="black" d="M494.21,-519.88C430.87,-498.95 323.78,-463.56 256.37,-441.28"/>
<polygon fill="black" stroke="black" points="257.31,-437.91 246.72,-438.09 255.11,-444.55 257.31,-437.91"/>
<g id="a_edge24&#45;label"><a xlink:title="calls">
<text text-anchor="middle" x="394.5" y="-476.8" font-family="Monospace" font-size="9.00">calls</text>
</a>
</g>
</g>
<!-- error_target_4_0/0 -->
<g id="node22" class="node">
<title>error_target_4_0/0</title>
<g id="a_node22"><a xlink:title="GITHUB/SmartContractToGraph/Caller_stor_v3_parsed">
<polygon fill="cornsilk" stroke="black" points="1913,-792 1763,-792 1763,-756 1913,-756 1913,-792"/>
<text text-anchor="start" x="1771" y="-776.8" font-family="Monospace" font-size="9.00"> </text>
<text text-anchor="start" x="1777" y="-776.2" font-family="Monospace" font-size="11.00">error_target_4_0/0</text>
<text text-anchor="start" x="1899" y="-776.8" font-family="Monospace" font-size="9.00"> </text>
<text text-anchor="start" x="1771" y="-765.8" font-family="Monospace" font-size="9.00"> </text>
<text text-anchor="start" x="1826.5" y="-766.4" font-family="Monospace" font-size="7.00">local</text>
<text text-anchor="start" x="1899" y="-765.8" font-family="Monospace" font-size="9.00"> </text>
</a>
</g>
</g>
<!-- error_target_4_0/0&#45;&gt;summary_4_function_callwrap__27_38_0/11 -->
<g id="edge27" class="edge">
<title>error_target_4_0/0&#45;&gt;summary_4_function_callwrap__27_38_0/11</title>
<path fill="none" stroke="black" d="M1874.09,-755.8C1918.5,-732.09 1985.03,-686.72 1959,-638 1939.56,-601.61 1900.17,-576.26 1866.91,-560.32"/>
<polygon fill="black" stroke="black" points="1868.26,-557.09 1857.71,-556.08 1865.33,-563.45 1868.26,-557.09"/>
<g id="a_edge27&#45;label"><a xlink:title="calls">
<text text-anchor="middle" x="1977.5" y="-653.8" font-family="Monospace" font-size="9.00">calls</text>
</a>
</g>
</g>
<!-- error_target_4_0/0&#45;&gt;interface_0_callwrapper_38_0/5 -->
<g id="edge28" class="edge">
<title>error_target_4_0/0&#45;&gt;interface_0_callwrapper_38_0/5</title>
<path fill="none" stroke="black" d="M1772.63,-755.88C1691.95,-734.76 1555.04,-698.91 1470.11,-676.67"/>
<polygon fill="black" stroke="black" points="1470.83,-673.24 1460.27,-674.09 1469.06,-680.01 1470.83,-673.24"/>
<g id="a_edge28&#45;label"><a xlink:title="calls">
<text text-anchor="middle" x="1642.5" y="-712.8" font-family="Monospace" font-size="9.00">calls</text>
</a>
</g>
</g>
<!-- ff/0 -->
<g id="node23" class="node">
<title>ff/0</title>
<g id="a_node23"><a xlink:title="GITHUB/SmartContractToGraph/Caller_stor_v3_parsed">
<polygon fill="cornsilk" stroke="black" points="1866,-910 1810,-910 1810,-874 1866,-874 1866,-910"/>
<text text-anchor="start" x="1818" y="-894.8" font-family="Monospace" font-size="9.00"> </text>
<text text-anchor="start" x="1824" y="-894.2" font-family="Monospace" font-size="11.00">ff/0</text>
<text text-anchor="start" x="1852" y="-894.8" font-family="Monospace" font-size="9.00"> </text>
<text text-anchor="start" x="1818" y="-883.8" font-family="Monospace" font-size="9.00"> </text>
<text text-anchor="start" x="1826.5" y="-884.4" font-family="Monospace" font-size="7.00">local</text>
<text text-anchor="start" x="1852" y="-883.8" font-family="Monospace" font-size="9.00"> </text>
</a>
</g>
</g>
<!-- ff/0&#45;&gt;error_target_4_0/0 -->
<g id="edge29" class="edge">
<title>ff/0&#45;&gt;error_target_4_0/0</title>
<path fill="none" stroke="black" d="M1838,-873.88C1838,-855.04 1838,-824.47 1838,-802.3"/>
<polygon fill="black" stroke="black" points="1841.5,-802.19 1838,-792.19 1834.5,-802.19 1841.5,-802.19"/>
<g id="a_edge29&#45;label"><a xlink:title="calls">
<text text-anchor="middle" x="1851.5" y="-830.8" font-family="Monospace" font-size="9.00">calls</text>
</a>
</g>
</g>
</g>
</svg>
