<?xml version="1.0" encoding="UTF-8" standalone="no"?>
<?xml-stylesheet href="diagrams.css" type="text/css"?>
<!DOCTYPE svg PUBLIC "-//W3C//DTD SVG 1.1//EN"
 "http://www.w3.org/Graphics/SVG/1.1/DTD/svg11.dtd">
<!-- Generated by graphviz version 2.43.0 (0)
 -->
<!-- Title: Caller_stor_v1_parsed_object Pages: 1 -->
<svg width="1549pt" height="1107pt"
 viewBox="72.00 72.00 1477.00 1035.00" xmlns="http://www.w3.org/2000/svg" xmlns:xlink="http://www.w3.org/1999/xlink">
<g id="graph0" class="graph" transform="scale(1 1) rotate(0) translate(76 1031)">
<title>Caller_stor_v1_parsed_object</title>
<polygon fill="white" stroke="transparent" points="-4,4 -4,-959 1401,-959 1401,4 -4,4"/>
<text text-anchor="start" x="8" y="-18" font-family="Monospace" font-size="10.00" fill="dimgray">Cross&#45;referencing diagram for object Caller_stor_v1_parsed</text>
<text text-anchor="start" x="8" y="-7" font-family="Monospace" font-size="10.00" fill="dimgray">Generated on 2024&#45;06&#45;06, 13:17</text>
<g id="clust1" class="cluster">
<title>cluster_Caller_stor_v1_parsed_object</title>
<g id="a_clust1"><a xlink:title="GITHUB/SmartContractToGraph/Caller_stor_v1_parsed">
<path fill="snow" stroke="dimgray" d="M20,-38C20,-38 1377,-38 1377,-38 1383,-38 1389,-44 1389,-50 1389,-50 1389,-935 1389,-935 1389,-941 1383,-947 1377,-947 1377,-947 20,-947 20,-947 14,-947 8,-941 8,-935 8,-935 8,-50 8,-50 8,-44 14,-38 20,-38"/>
<text text-anchor="start" x="20.5" y="-930.5" font-family="Monospace" font-size="10.00" fill="dimgray">Caller_stor_v1_parsed</text>
</a>
</g>
</g>
<!-- nondet_interface_1_callwrapper_28_0/8 -->
<g id="node1" class="node">
<title>nondet_interface_1_callwrapper_28_0/8</title>
<g id="a_node1"><a xlink:title="GITHUB/SmartContractToGraph/Caller_stor_v1_parsed">
<polygon fill="cornsilk" stroke="black" points="1283,-674 1005,-674 1005,-638 1283,-638 1283,-674"/>
<text text-anchor="start" x="1013" y="-658.8" font-family="Monospace" font-size="9.00"> </text>
<text text-anchor="start" x="1019" y="-658.2" font-family="Monospace" font-size="11.00">nondet_interface_1_callwrapper_28_0/8</text>
<text text-anchor="start" x="1269" y="-658.8" font-family="Monospace" font-size="9.00"> </text>
<text text-anchor="start" x="1013" y="-647.8" font-family="Monospace" font-size="9.00"> </text>
<text text-anchor="start" x="1132.5" y="-648.4" font-family="Monospace" font-size="7.00">local</text>
<text text-anchor="start" x="1269" y="-647.8" font-family="Monospace" font-size="9.00"> </text>
</a>
</g>
</g>
<!-- summary_4_function_callwrap__27_28_0/11 -->
<g id="node9" class="node">
<title>summary_4_function_callwrap__27_28_0/11</title>
<g id="a_node9"><a xlink:title="GITHUB/SmartContractToGraph/Caller_stor_v1_parsed">
<polygon fill="cornsilk" stroke="black" points="1081,-556 789,-556 789,-520 1081,-520 1081,-556"/>
<text text-anchor="start" x="797" y="-540.8" font-family="Monospace" font-size="9.00"> </text>
<text text-anchor="start" x="803" y="-540.2" font-family="Monospace" font-size="11.00">summary_4_function_callwrap__27_28_0/11</text>
<text text-anchor="start" x="1067" y="-540.8" font-family="Monospace" font-size="9.00"> </text>
<text text-anchor="start" x="797" y="-529.8" font-family="Monospace" font-size="9.00"> </text>
<text text-anchor="start" x="923.5" y="-530.4" font-family="Monospace" font-size="7.00">local</text>
<text text-anchor="start" x="1067" y="-529.8" font-family="Monospace" font-size="9.00"> </text>
</a>
</g>
</g>
<!-- nondet_interface_1_callwrapper_28_0/8&#45;&gt;summary_4_function_callwrap__27_28_0/11 -->
<g id="edge1" class="edge">
<title>nondet_interface_1_callwrapper_28_0/8&#45;&gt;summary_4_function_callwrap__27_28_0/11</title>
<path fill="none" stroke="black" d="M1113.16,-637.88C1076.42,-617.49 1014.98,-583.39 974.72,-561.04"/>
<polygon fill="black" stroke="black" points="976.41,-557.98 965.97,-556.19 973.01,-564.1 976.41,-557.98"/>
<g id="a_edge1&#45;label"><a xlink:title="calls">
<text text-anchor="middle" x="1058.5" y="-594.8" font-family="Monospace" font-size="9.00">calls</text>
</a>
</g>
</g>
<!-- block_5_function_callwrap__27_28_0/12 -->
<g id="node2" class="node">
<title>block_5_function_callwrap__27_28_0/12</title>
<g id="a_node2"><a xlink:title="GITHUB/SmartContractToGraph/Caller_stor_v1_parsed">
<polygon fill="cornsilk" stroke="black" points="950,-84 672,-84 672,-48 950,-48 950,-84"/>
<text text-anchor="start" x="680" y="-68.8" font-family="Monospace" font-size="9.00"> </text>
<text text-anchor="start" x="686" y="-68.2" font-family="Monospace" font-size="11.00">block_5_function_callwrap__27_28_0/12</text>
<text text-anchor="start" x="936" y="-68.8" font-family="Monospace" font-size="9.00"> </text>
<text text-anchor="start" x="680" y="-57.8" font-family="Monospace" font-size="9.00"> </text>
<text text-anchor="start" x="799.5" y="-58.4" font-family="Monospace" font-size="7.00">local</text>
<text text-anchor="start" x="936" y="-57.8" font-family="Monospace" font-size="9.00"> </text>
</a>
</g>
</g>
<!-- block_6_callwrap_26_28_0/12 -->
<g id="node3" class="node">
<title>block_6_callwrap_26_28_0/12</title>
<g id="a_node3"><a xlink:title="GITHUB/SmartContractToGraph/Caller_stor_v1_parsed">
<polygon fill="cornsilk" stroke="black" points="916.5,-202 705.5,-202 705.5,-166 916.5,-166 916.5,-202"/>
<text text-anchor="start" x="714" y="-186.8" font-family="Monospace" font-size="9.00"> </text>
<text text-anchor="start" x="720" y="-186.2" font-family="Monospace" font-size="11.00">block_6_callwrap_26_28_0/12</text>
<text text-anchor="start" x="903" y="-186.8" font-family="Monospace" font-size="9.00"> </text>
<text text-anchor="start" x="714" y="-175.8" font-family="Monospace" font-size="9.00"> </text>
<text text-anchor="start" x="800" y="-176.4" font-family="Monospace" font-size="7.00">local</text>
<text text-anchor="start" x="903" y="-175.8" font-family="Monospace" font-size="9.00"> </text>
</a>
</g>
</g>
<!-- block_6_callwrap_26_28_0/12&#45;&gt;block_5_function_callwrap__27_28_0/12 -->
<g id="edge2" class="edge">
<title>block_6_callwrap_26_28_0/12&#45;&gt;block_5_function_callwrap__27_28_0/12</title>
<path fill="none" stroke="black" d="M811,-165.88C811,-147.04 811,-116.47 811,-94.3"/>
<polygon fill="black" stroke="black" points="814.5,-94.19 811,-84.19 807.5,-94.19 814.5,-94.19"/>
<g id="a_edge2&#45;label"><a xlink:title="calls">
<text text-anchor="middle" x="824.5" y="-122.8" font-family="Monospace" font-size="9.00">calls</text>
</a>
</g>
</g>
<!-- nondet_call_8_0/8 -->
<g id="node4" class="node">
<title>nondet_call_8_0/8</title>
<g id="a_node4"><a xlink:title="GITHUB/SmartContractToGraph/Caller_stor_v1_parsed">
<polygon fill="cornsilk" stroke="black" points="1290.5,-202 1147.5,-202 1147.5,-166 1290.5,-166 1290.5,-202"/>
<text text-anchor="start" x="1156" y="-186.8" font-family="Monospace" font-size="9.00"> </text>
<text text-anchor="start" x="1162" y="-186.2" font-family="Monospace" font-size="11.00">nondet_call_8_0/8</text>
<text text-anchor="start" x="1277" y="-186.8" font-family="Monospace" font-size="9.00"> </text>
<text text-anchor="start" x="1156" y="-175.8" font-family="Monospace" font-size="9.00"> </text>
<text text-anchor="start" x="1208" y="-176.4" font-family="Monospace" font-size="7.00">local</text>
<text text-anchor="start" x="1277" y="-175.8" font-family="Monospace" font-size="9.00"> </text>
</a>
</g>
</g>
<!-- nondet_call_8_0/8&#45;&gt;nondet_interface_1_callwrapper_28_0/8 -->
<g id="edge3" class="edge">
<title>nondet_call_8_0/8&#45;&gt;nondet_interface_1_callwrapper_28_0/8</title>
<path fill="none" stroke="black" d="M1263.29,-202.04C1301.98,-220.17 1352,-252.9 1352,-301 1352,-539 1352,-539 1352,-539 1352,-590.08 1303.56,-618.87 1253.44,-635"/>
<polygon fill="black" stroke="black" points="1252.28,-631.69 1243.74,-637.96 1254.32,-638.38 1252.28,-631.69"/>
<g id="a_edge3&#45;label"><a xlink:title="calls">
<text text-anchor="middle" x="1365.5" y="-417.8" font-family="Monospace" font-size="9.00">calls</text>
</a>
</g>
</g>
<!-- summary_3_function_callwrap__27_28_0/11 -->
<g id="node5" class="node">
<title>summary_3_function_callwrap__27_28_0/11</title>
<g id="a_node5"><a xlink:title="GITHUB/SmartContractToGraph/Caller_stor_v1_parsed">
<polygon fill="cornsilk" stroke="black" points="1316,-438 1024,-438 1024,-402 1316,-402 1316,-438"/>
<text text-anchor="start" x="1032" y="-422.8" font-family="Monospace" font-size="9.00"> </text>
<text text-anchor="start" x="1038" y="-422.2" font-family="Monospace" font-size="11.00">summary_3_function_callwrap__27_28_0/11</text>
<text text-anchor="start" x="1302" y="-422.8" font-family="Monospace" font-size="9.00"> </text>
<text text-anchor="start" x="1032" y="-411.8" font-family="Monospace" font-size="9.00"> </text>
<text text-anchor="start" x="1158.5" y="-412.4" font-family="Monospace" font-size="7.00">local</text>
<text text-anchor="start" x="1302" y="-411.8" font-family="Monospace" font-size="9.00"> </text>
</a>
</g>
</g>
<!-- summary_3_function_callwrap__27_28_0/11&#45;&gt;block_6_callwrap_26_28_0/12 -->
<g id="edge4" class="edge">
<title>summary_3_function_callwrap__27_28_0/11&#45;&gt;block_6_callwrap_26_28_0/12</title>
<path fill="none" stroke="black" d="M1023.78,-402.8C867.46,-383.97 638.37,-351.46 612,-320 568.37,-267.95 660.57,-227.53 733.58,-204.98"/>
<polygon fill="black" stroke="black" points="734.72,-208.29 743.28,-202.05 732.69,-201.59 734.72,-208.29"/>
<g id="a_edge4&#45;label"><a xlink:title="calls">
<text text-anchor="middle" x="625.5" y="-299.8" font-family="Monospace" font-size="9.00">calls</text>
</a>
</g>
</g>
<!-- summary_3_function_callwrap__27_28_0/11&#45;&gt;nondet_call_8_0/8 -->
<g id="edge5" class="edge">
<title>summary_3_function_callwrap__27_28_0/11&#45;&gt;nondet_call_8_0/8</title>
<path fill="none" stroke="black" d="M1200.02,-401.85C1226.39,-384.88 1262.96,-356.23 1279,-320 1296.1,-281.36 1266.35,-236.55 1242.96,-209.51"/>
<polygon fill="black" stroke="black" points="1245.55,-207.15 1236.27,-202.04 1240.34,-211.82 1245.55,-207.15"/>
<g id="a_edge5&#45;label"><a xlink:title="calls">
<text text-anchor="middle" x="1297.5" y="-299.8" font-family="Monospace" font-size="9.00">calls</text>
</a>
</g>
</g>
<!-- block_9_function_callwrap__27_28_0/12 -->
<g id="node6" class="node">
<title>block_9_function_callwrap__27_28_0/12</title>
<g id="a_node6"><a xlink:title="GITHUB/SmartContractToGraph/Caller_stor_v1_parsed">
<polygon fill="cornsilk" stroke="black" points="1270,-320 992,-320 992,-284 1270,-284 1270,-320"/>
<text text-anchor="start" x="1000" y="-304.8" font-family="Monospace" font-size="9.00"> </text>
<text text-anchor="start" x="1006" y="-304.2" font-family="Monospace" font-size="11.00">block_9_function_callwrap__27_28_0/12</text>
<text text-anchor="start" x="1256" y="-304.8" font-family="Monospace" font-size="9.00"> </text>
<text text-anchor="start" x="1000" y="-293.8" font-family="Monospace" font-size="9.00"> </text>
<text text-anchor="start" x="1119.5" y="-294.4" font-family="Monospace" font-size="7.00">local</text>
<text text-anchor="start" x="1256" y="-293.8" font-family="Monospace" font-size="9.00"> </text>
</a>
</g>
</g>
<!-- summary_3_function_callwrap__27_28_0/11&#45;&gt;block_9_function_callwrap__27_28_0/12 -->
<g id="edge8" class="edge">
<title>summary_3_function_callwrap__27_28_0/11&#45;&gt;block_9_function_callwrap__27_28_0/12</title>
<path fill="none" stroke="black" d="M1164.25,-401.88C1157.85,-382.86 1147.44,-351.91 1139.98,-329.7"/>
<polygon fill="black" stroke="black" points="1143.28,-328.55 1136.78,-320.19 1136.65,-330.78 1143.28,-328.55"/>
<g id="a_edge8&#45;label"><a xlink:title="calls">
<text text-anchor="middle" x="1164.5" y="-358.8" font-family="Monospace" font-size="9.00">calls</text>
</a>
</g>
</g>
<!-- block_7_return_function_callwrap__27_28_0/12 -->
<g id="node7" class="node">
<title>block_7_return_function_callwrap__27_28_0/12</title>
<g id="a_node7"><a xlink:title="GITHUB/SmartContractToGraph/Caller_stor_v1_parsed">
<polygon fill="cornsilk" stroke="black" points="974,-320 648,-320 648,-284 974,-284 974,-320"/>
<text text-anchor="start" x="656" y="-304.8" font-family="Monospace" font-size="9.00"> </text>
<text text-anchor="start" x="662" y="-304.2" font-family="Monospace" font-size="11.00">block_7_return_function_callwrap__27_28_0/12</text>
<text text-anchor="start" x="960" y="-304.8" font-family="Monospace" font-size="9.00"> </text>
<text text-anchor="start" x="656" y="-293.8" font-family="Monospace" font-size="9.00"> </text>
<text text-anchor="start" x="799.5" y="-294.4" font-family="Monospace" font-size="7.00">local</text>
<text text-anchor="start" x="960" y="-293.8" font-family="Monospace" font-size="9.00"> </text>
</a>
</g>
</g>
<!-- summary_3_function_callwrap__27_28_0/11&#45;&gt;block_7_return_function_callwrap__27_28_0/12 -->
<g id="edge11" class="edge">
<title>summary_3_function_callwrap__27_28_0/11&#45;&gt;block_7_return_function_callwrap__27_28_0/12</title>
<path fill="none" stroke="black" d="M1117.03,-401.88C1052.24,-380.95 942.71,-345.56 873.76,-323.28"/>
<polygon fill="black" stroke="black" points="874.49,-319.84 863.9,-320.09 872.34,-326.5 874.49,-319.84"/>
<g id="a_edge11&#45;label"><a xlink:title="calls">
<text text-anchor="middle" x="1014.5" y="-358.8" font-family="Monospace" font-size="9.00">calls</text>
</a>
</g>
</g>
<!-- block_9_function_callwrap__27_28_0/12&#45;&gt;block_6_callwrap_26_28_0/12 -->
<g id="edge6" class="edge">
<title>block_9_function_callwrap__27_28_0/12&#45;&gt;block_6_callwrap_26_28_0/12</title>
<path fill="none" stroke="black" d="M1083.78,-283.88C1026.27,-263.04 929.2,-227.85 867.7,-205.56"/>
<polygon fill="black" stroke="black" points="868.74,-202.21 858.15,-202.09 866.36,-208.79 868.74,-202.21"/>
<g id="a_edge6&#45;label"><a xlink:title="calls">
<text text-anchor="middle" x="993.5" y="-240.8" font-family="Monospace" font-size="9.00">calls</text>
</a>
</g>
</g>
<!-- block_9_function_callwrap__27_28_0/12&#45;&gt;nondet_call_8_0/8 -->
<g id="edge7" class="edge">
<title>block_9_function_callwrap__27_28_0/12&#45;&gt;nondet_call_8_0/8</title>
<path fill="none" stroke="black" d="M1143.98,-283.88C1158.74,-264.44 1182.96,-232.51 1199.87,-210.21"/>
<polygon fill="black" stroke="black" points="1202.71,-212.27 1205.96,-202.19 1197.13,-208.04 1202.71,-212.27"/>
<g id="a_edge7&#45;label"><a xlink:title="calls">
<text text-anchor="middle" x="1190.5" y="-240.8" font-family="Monospace" font-size="9.00">calls</text>
</a>
</g>
</g>
<!-- block_7_return_function_callwrap__27_28_0/12&#45;&gt;block_6_callwrap_26_28_0/12 -->
<g id="edge9" class="edge">
<title>block_7_return_function_callwrap__27_28_0/12&#45;&gt;block_6_callwrap_26_28_0/12</title>
<path fill="none" stroke="black" d="M811,-283.88C811,-265.04 811,-234.47 811,-212.3"/>
<polygon fill="black" stroke="black" points="814.5,-212.19 811,-202.19 807.5,-212.19 814.5,-212.19"/>
<g id="a_edge9&#45;label"><a xlink:title="calls">
<text text-anchor="middle" x="824.5" y="-240.8" font-family="Monospace" font-size="9.00">calls</text>
</a>
</g>
</g>
<!-- block_7_return_function_callwrap__27_28_0/12&#45;&gt;nondet_call_8_0/8 -->
<g id="edge10" class="edge">
<title>block_7_return_function_callwrap__27_28_0/12&#45;&gt;nondet_call_8_0/8</title>
<path fill="none" stroke="black" d="M877.83,-283.92C916.77,-273.8 966.77,-260.55 1011,-248 1059.39,-234.26 1113.79,-217.75 1154.81,-205.08"/>
<polygon fill="black" stroke="black" points="1155.89,-208.41 1164.41,-202.11 1153.82,-201.72 1155.89,-208.41"/>
<g id="a_edge10&#45;label"><a xlink:title="calls">
<text text-anchor="middle" x="1058.5" y="-240.8" font-family="Monospace" font-size="9.00">calls</text>
</a>
</g>
</g>
<!-- block_10_function_callwrap__27_28_0/12 -->
<g id="node8" class="node">
<title>block_10_function_callwrap__27_28_0/12</title>
<g id="a_node8"><a xlink:title="GITHUB/SmartContractToGraph/Caller_stor_v1_parsed">
<polygon fill="cornsilk" stroke="black" points="1005.5,-438 720.5,-438 720.5,-402 1005.5,-402 1005.5,-438"/>
<text text-anchor="start" x="729" y="-422.8" font-family="Monospace" font-size="9.00"> </text>
<text text-anchor="start" x="735" y="-422.2" font-family="Monospace" font-size="11.00">block_10_function_callwrap__27_28_0/12</text>
<text text-anchor="start" x="992" y="-422.8" font-family="Monospace" font-size="9.00"> </text>
<text text-anchor="start" x="729" y="-411.8" font-family="Monospace" font-size="9.00"> </text>
<text text-anchor="start" x="852" y="-412.4" font-family="Monospace" font-size="7.00">local</text>
<text text-anchor="start" x="992" y="-411.8" font-family="Monospace" font-size="9.00"> </text>
</a>
</g>
</g>
<!-- summary_4_function_callwrap__27_28_0/11&#45;&gt;summary_3_function_callwrap__27_28_0/11 -->
<g id="edge13" class="edge">
<title>summary_4_function_callwrap__27_28_0/11&#45;&gt;summary_3_function_callwrap__27_28_0/11</title>
<path fill="none" stroke="black" d="M969.68,-519.88C1011.24,-499.37 1080.95,-464.96 1126.2,-442.62"/>
<polygon fill="black" stroke="black" points="1127.76,-445.75 1135.18,-438.19 1124.67,-439.47 1127.76,-445.75"/>
<g id="a_edge13&#45;label"><a xlink:title="calls">
<text text-anchor="middle" x="1072.5" y="-476.8" font-family="Monospace" font-size="9.00">calls</text>
</a>
</g>
</g>
<!-- summary_4_function_callwrap__27_28_0/11&#45;&gt;block_10_function_callwrap__27_28_0/12 -->
<g id="edge12" class="edge">
<title>summary_4_function_callwrap__27_28_0/11&#45;&gt;block_10_function_callwrap__27_28_0/12</title>
<path fill="none" stroke="black" d="M924.38,-519.88C912.41,-500.61 892.84,-469.07 879.02,-446.81"/>
<polygon fill="black" stroke="black" points="881.91,-444.84 873.67,-438.19 875.97,-448.53 881.91,-444.84"/>
<g id="a_edge12&#45;label"><a xlink:title="calls">
<text text-anchor="middle" x="914.5" y="-476.8" font-family="Monospace" font-size="9.00">calls</text>
</a>
</g>
</g>
<!-- interface_0_callwrapper_28_0/5 -->
<g id="node10" class="node">
<title>interface_0_callwrapper_28_0/5</title>
<g id="a_node10"><a xlink:title="GITHUB/SmartContractToGraph/Caller_stor_v1_parsed">
<polygon fill="cornsilk" stroke="black" points="898.5,-674 667.5,-674 667.5,-638 898.5,-638 898.5,-674"/>
<text text-anchor="start" x="676" y="-658.8" font-family="Monospace" font-size="9.00"> </text>
<text text-anchor="start" x="682" y="-658.2" font-family="Monospace" font-size="11.00">interface_0_callwrapper_28_0/5</text>
<text text-anchor="start" x="885" y="-658.8" font-family="Monospace" font-size="9.00"> </text>
<text text-anchor="start" x="676" y="-647.8" font-family="Monospace" font-size="9.00"> </text>
<text text-anchor="start" x="772" y="-648.4" font-family="Monospace" font-size="7.00">local</text>
<text text-anchor="start" x="885" y="-647.8" font-family="Monospace" font-size="9.00"> </text>
</a>
</g>
</g>
<!-- interface_0_callwrapper_28_0/5&#45;&gt;summary_4_function_callwrap__27_28_0/11 -->
<g id="edge14" class="edge">
<title>interface_0_callwrapper_28_0/5&#45;&gt;summary_4_function_callwrap__27_28_0/11</title>
<path fill="none" stroke="black" d="M805.43,-637.88C831.58,-617.92 874.97,-584.82 904.25,-562.47"/>
<polygon fill="black" stroke="black" points="906.65,-565.04 912.48,-556.19 902.41,-559.47 906.65,-565.04"/>
<g id="a_edge14&#45;label"><a xlink:title="calls">
<text text-anchor="middle" x="876.5" y="-594.8" font-family="Monospace" font-size="9.00">calls</text>
</a>
</g>
</g>
<!-- summary_constructor_2_callwrapper_28_0/9 -->
<g id="node15" class="node">
<title>summary_constructor_2_callwrapper_28_0/9</title>
<g id="a_node15"><a xlink:title="GITHUB/SmartContractToGraph/Caller_stor_v1_parsed">
<polygon fill="cornsilk" stroke="black" points="695.5,-556 396.5,-556 396.5,-520 695.5,-520 695.5,-556"/>
<text text-anchor="start" x="405" y="-540.8" font-family="Monospace" font-size="9.00"> </text>
<text text-anchor="start" x="411" y="-540.2" font-family="Monospace" font-size="11.00">summary_constructor_2_callwrapper_28_0/9</text>
<text text-anchor="start" x="682" y="-540.8" font-family="Monospace" font-size="9.00"> </text>
<text text-anchor="start" x="405" y="-529.8" font-family="Monospace" font-size="9.00"> </text>
<text text-anchor="start" x="535" y="-530.4" font-family="Monospace" font-size="7.00">local</text>
<text text-anchor="start" x="682" y="-529.8" font-family="Monospace" font-size="9.00"> </text>
</a>
</g>
</g>
<!-- interface_0_callwrapper_28_0/5&#45;&gt;summary_constructor_2_callwrapper_28_0/9 -->
<g id="edge19" class="edge">
<title>interface_0_callwrapper_28_0/5&#45;&gt;summary_constructor_2_callwrapper_28_0/9</title>
<path fill="none" stroke="black" d="M748.03,-637.88C706.11,-617.37 635.81,-582.96 590.18,-560.62"/>
<polygon fill="black" stroke="black" points="591.63,-557.44 581.11,-556.19 588.56,-563.73 591.63,-557.44"/>
<g id="a_edge19&#45;label"><a xlink:title="calls">
<text text-anchor="middle" x="684.5" y="-594.8" font-family="Monospace" font-size="9.00">calls</text>
</a>
</g>
</g>
<!-- contract_initializer_entry_12_callwrapper_28_0/9 -->
<g id="node11" class="node">
<title>contract_initializer_entry_12_callwrapper_28_0/9</title>
<g id="a_node11"><a xlink:title="GITHUB/SmartContractToGraph/Caller_stor_v1_parsed">
<polygon fill="cornsilk" stroke="black" points="550.5,-202 197.5,-202 197.5,-166 550.5,-166 550.5,-202"/>
<text text-anchor="start" x="206" y="-186.8" font-family="Monospace" font-size="9.00"> </text>
<text text-anchor="start" x="212" y="-186.2" font-family="Monospace" font-size="11.00">contract_initializer_entry_12_callwrapper_28_0/9</text>
<text text-anchor="start" x="537" y="-186.8" font-family="Monospace" font-size="9.00"> </text>
<text text-anchor="start" x="206" y="-175.8" font-family="Monospace" font-size="9.00"> </text>
<text text-anchor="start" x="363" y="-176.4" font-family="Monospace" font-size="7.00">local</text>
<text text-anchor="start" x="537" y="-175.8" font-family="Monospace" font-size="9.00"> </text>
</a>
</g>
</g>
<!-- contract_initializer_after_init_13_callwrapper_28_0/9 -->
<g id="node12" class="node">
<title>contract_initializer_after_init_13_callwrapper_28_0/9</title>
<g id="a_node12"><a xlink:title="GITHUB/SmartContractToGraph/Caller_stor_v1_parsed">
<polygon fill="cornsilk" stroke="black" points="567,-320 181,-320 181,-284 567,-284 567,-320"/>
<text text-anchor="start" x="189" y="-304.8" font-family="Monospace" font-size="9.00"> </text>
<text text-anchor="start" x="195" y="-304.2" font-family="Monospace" font-size="11.00">contract_initializer_after_init_13_callwrapper_28_0/9</text>
<text text-anchor="start" x="553" y="-304.8" font-family="Monospace" font-size="9.00"> </text>
<text text-anchor="start" x="189" y="-293.8" font-family="Monospace" font-size="9.00"> </text>
<text text-anchor="start" x="362.5" y="-294.4" font-family="Monospace" font-size="7.00">local</text>
<text text-anchor="start" x="553" y="-293.8" font-family="Monospace" font-size="9.00"> </text>
</a>
</g>
</g>
<!-- contract_initializer_after_init_13_callwrapper_28_0/9&#45;&gt;contract_initializer_entry_12_callwrapper_28_0/9 -->
<g id="edge15" class="edge">
<title>contract_initializer_after_init_13_callwrapper_28_0/9&#45;&gt;contract_initializer_entry_12_callwrapper_28_0/9</title>
<path fill="none" stroke="black" d="M374,-283.88C374,-265.04 374,-234.47 374,-212.3"/>
<polygon fill="black" stroke="black" points="377.5,-212.19 374,-202.19 370.5,-212.19 377.5,-212.19"/>
<g id="a_edge15&#45;label"><a xlink:title="calls">
<text text-anchor="middle" x="387.5" y="-240.8" font-family="Monospace" font-size="9.00">calls</text>
</a>
</g>
</g>
<!-- contract_initializer_11_callwrapper_28_0/9 -->
<g id="node13" class="node">
<title>contract_initializer_11_callwrapper_28_0/9</title>
<g id="a_node13"><a xlink:title="GITHUB/SmartContractToGraph/Caller_stor_v1_parsed">
<polygon fill="cornsilk" stroke="black" points="702,-438 390,-438 390,-402 702,-402 702,-438"/>
<text text-anchor="start" x="398" y="-422.8" font-family="Monospace" font-size="9.00"> </text>
<text text-anchor="start" x="404" y="-422.2" font-family="Monospace" font-size="11.00">contract_initializer_11_callwrapper_28_0/9</text>
<text text-anchor="start" x="688" y="-422.8" font-family="Monospace" font-size="9.00"> </text>
<text text-anchor="start" x="398" y="-411.8" font-family="Monospace" font-size="9.00"> </text>
<text text-anchor="start" x="534.5" y="-412.4" font-family="Monospace" font-size="7.00">local</text>
<text text-anchor="start" x="688" y="-411.8" font-family="Monospace" font-size="9.00"> </text>
</a>
</g>
</g>
<!-- contract_initializer_11_callwrapper_28_0/9&#45;&gt;contract_initializer_after_init_13_callwrapper_28_0/9 -->
<g id="edge16" class="edge">
<title>contract_initializer_11_callwrapper_28_0/9&#45;&gt;contract_initializer_after_init_13_callwrapper_28_0/9</title>
<path fill="none" stroke="black" d="M520.62,-401.88C490.77,-381.75 441.09,-348.25 407.95,-325.89"/>
<polygon fill="black" stroke="black" points="409.73,-322.88 399.48,-320.19 405.82,-328.68 409.73,-322.88"/>
<g id="a_edge16&#45;label"><a xlink:title="calls">
<text text-anchor="middle" x="478.5" y="-358.8" font-family="Monospace" font-size="9.00">calls</text>
</a>
</g>
</g>
<!-- implicit_constructor_entry_14_callwrapper_28_0/9 -->
<g id="node14" class="node">
<title>implicit_constructor_entry_14_callwrapper_28_0/9</title>
<g id="a_node14"><a xlink:title="GITHUB/SmartContractToGraph/Caller_stor_v1_parsed">
<polygon fill="cornsilk" stroke="black" points="371.5,-438 18.5,-438 18.5,-402 371.5,-402 371.5,-438"/>
<text text-anchor="start" x="27" y="-422.8" font-family="Monospace" font-size="9.00"> </text>
<text text-anchor="start" x="33" y="-422.2" font-family="Monospace" font-size="11.00">implicit_constructor_entry_14_callwrapper_28_0/9</text>
<text text-anchor="start" x="358" y="-422.8" font-family="Monospace" font-size="9.00"> </text>
<text text-anchor="start" x="27" y="-411.8" font-family="Monospace" font-size="9.00"> </text>
<text text-anchor="start" x="184" y="-412.4" font-family="Monospace" font-size="7.00">local</text>
<text text-anchor="start" x="358" y="-411.8" font-family="Monospace" font-size="9.00"> </text>
</a>
</g>
</g>
<!-- summary_constructor_2_callwrapper_28_0/9&#45;&gt;contract_initializer_11_callwrapper_28_0/9 -->
<g id="edge18" class="edge">
<title>summary_constructor_2_callwrapper_28_0/9&#45;&gt;contract_initializer_11_callwrapper_28_0/9</title>
<path fill="none" stroke="black" d="M546,-519.88C546,-501.04 546,-470.47 546,-448.3"/>
<polygon fill="black" stroke="black" points="549.5,-448.19 546,-438.19 542.5,-448.19 549.5,-448.19"/>
<g id="a_edge18&#45;label"><a xlink:title="calls">
<text text-anchor="middle" x="559.5" y="-476.8" font-family="Monospace" font-size="9.00">calls</text>
</a>
</g>
</g>
<!-- summary_constructor_2_callwrapper_28_0/9&#45;&gt;implicit_constructor_entry_14_callwrapper_28_0/9 -->
<g id="edge17" class="edge">
<title>summary_constructor_2_callwrapper_28_0/9&#45;&gt;implicit_constructor_entry_14_callwrapper_28_0/9</title>
<path fill="none" stroke="black" d="M494.21,-519.88C430.87,-498.95 323.78,-463.56 256.37,-441.28"/>
<polygon fill="black" stroke="black" points="257.31,-437.91 246.72,-438.09 255.11,-444.55 257.31,-437.91"/>
<g id="a_edge17&#45;label"><a xlink:title="calls">
<text text-anchor="middle" x="394.5" y="-476.8" font-family="Monospace" font-size="9.00">calls</text>
</a>
</g>
</g>
<!-- error_target_3_0/0 -->
<g id="node16" class="node">
<title>error_target_3_0/0</title>
<g id="a_node16"><a xlink:title="GITHUB/SmartContractToGraph/Caller_stor_v1_parsed">
<polygon fill="cornsilk" stroke="black" points="963,-792 813,-792 813,-756 963,-756 963,-792"/>
<text text-anchor="start" x="821" y="-776.8" font-family="Monospace" font-size="9.00"> </text>
<text text-anchor="start" x="827" y="-776.2" font-family="Monospace" font-size="11.00">error_target_3_0/0</text>
<text text-anchor="start" x="949" y="-776.8" font-family="Monospace" font-size="9.00"> </text>
<text text-anchor="start" x="821" y="-765.8" font-family="Monospace" font-size="9.00"> </text>
<text text-anchor="start" x="876.5" y="-766.4" font-family="Monospace" font-size="7.00">local</text>
<text text-anchor="start" x="949" y="-765.8" font-family="Monospace" font-size="9.00"> </text>
</a>
</g>
</g>
<!-- error_target_3_0/0&#45;&gt;summary_4_function_callwrap__27_28_0/11 -->
<g id="edge20" class="edge">
<title>error_target_3_0/0&#45;&gt;summary_4_function_callwrap__27_28_0/11</title>
<path fill="none" stroke="black" d="M891.48,-755.83C895.48,-736.09 902.23,-702.71 908,-674 915.53,-636.56 924.18,-593.26 929.61,-566.01"/>
<polygon fill="black" stroke="black" points="933.08,-566.54 931.6,-556.05 926.21,-565.17 933.08,-566.54"/>
<g id="a_edge20&#45;label"><a xlink:title="calls">
<text text-anchor="middle" x="928.5" y="-653.8" font-family="Monospace" font-size="9.00">calls</text>
</a>
</g>
</g>
<!-- error_target_3_0/0&#45;&gt;interface_0_callwrapper_28_0/5 -->
<g id="edge21" class="edge">
<title>error_target_3_0/0&#45;&gt;interface_0_callwrapper_28_0/5</title>
<path fill="none" stroke="black" d="M872.51,-755.88C854.75,-736.27 825.5,-703.95 805.29,-681.63"/>
<polygon fill="black" stroke="black" points="807.86,-679.25 798.56,-674.19 802.67,-683.95 807.86,-679.25"/>
<g id="a_edge21&#45;label"><a xlink:title="calls">
<text text-anchor="middle" x="851.5" y="-712.8" font-family="Monospace" font-size="9.00">calls</text>
</a>
</g>
</g>
<!-- ff/0 -->
<g id="node17" class="node">
<title>ff/0</title>
<g id="a_node17"><a xlink:title="GITHUB/SmartContractToGraph/Caller_stor_v1_parsed">
<polygon fill="cornsilk" stroke="black" points="916,-910 860,-910 860,-874 916,-874 916,-910"/>
<text text-anchor="start" x="868" y="-894.8" font-family="Monospace" font-size="9.00"> </text>
<text text-anchor="start" x="874" y="-894.2" font-family="Monospace" font-size="11.00">ff/0</text>
<text text-anchor="start" x="902" y="-894.8" font-family="Monospace" font-size="9.00"> </text>
<text text-anchor="start" x="868" y="-883.8" font-family="Monospace" font-size="9.00"> </text>
<text text-anchor="start" x="876.5" y="-884.4" font-family="Monospace" font-size="7.00">local</text>
<text text-anchor="start" x="902" y="-883.8" font-family="Monospace" font-size="9.00"> </text>
</a>
</g>
</g>
<!-- ff/0&#45;&gt;error_target_3_0/0 -->
<g id="edge22" class="edge">
<title>ff/0&#45;&gt;error_target_3_0/0</title>
<path fill="none" stroke="black" d="M888,-873.88C888,-855.04 888,-824.47 888,-802.3"/>
<polygon fill="black" stroke="black" points="891.5,-802.19 888,-792.19 884.5,-802.19 891.5,-802.19"/>
<g id="a_edge22&#45;label"><a xlink:title="calls">
<text text-anchor="middle" x="901.5" y="-830.8" font-family="Monospace" font-size="9.00">calls</text>
</a>
</g>
</g>
</g>
</svg>
